<?xml version="1.0" standalone="no"?>
<!DOCTYPE svg PUBLIC "-//W3C//DTD SVG 1.1//EN" "http://www.w3.org/Graphics/SVG/1.1/DTD/svg11.dtd" >
<svg xmlns="http://www.w3.org/2000/svg" xmlns:xlink="http://www.w3.org/1999/xlink" version="1.1">
<metadata>
Created by FontForge 20201107 at Tue Dec  7 14:11:03 2021
 By 
Copyright 2020 The Freehand Project Authors (https://github.com/danhhong/Freehand)
</metadata>
<defs>
<font id="Freehand-Regular" horiz-adv-x="0" >
  <font-face 
    font-family="Freehand"
    font-weight="400"
    font-stretch="normal"
    units-per-em="2048"
    panose-1="0 0 0 0 0 0 0 0 0 0"
    ascent="1638"
    descent="-410"
    x-height="686"
    cap-height="1464"
    bbox="-3199 -1200 5163 2501"
    underline-thickness="50"
    underline-position="-125"
    unicode-range="U+0020-25CC"
  />
<missing-glyph horiz-adv-x="1024" 
d="M922 1462v-1462h-820v1462h820zM823 1364h-622v-1266h622v1266z" />
    <glyph glyph-name=".notdef" horiz-adv-x="1024" 
d="M922 1462v-1462h-820v1462h820zM823 1364h-622v-1266h622v1266z" />
    <glyph glyph-name=".null" 
 />
    <glyph glyph-name="nonmarkingreturn" horiz-adv-x="682" 
 />
    <glyph glyph-name="space" unicode=" " horiz-adv-x="700" 
 />
    <glyph glyph-name="exclam" unicode="!" horiz-adv-x="628" 
d="M680 1498q18 2 28 -8q10 -1 20 -1.5t20 0.5q20 2 42 -3h13q5 0 11 -2q16 -8 26 -30t-4 -40q5 -16 0 -27q-4 -10 -6 -25q-10 -17 -18.5 -33.5t-16.5 -33.5q-15 -33 -37 -61q-8 -20 -12 -26q-2 -4 -4 -8.5t-4 -9.5q-4 -10 -11 -17q-6 -6 -11 -17l-19 -36q-4 -8 -9 -16.5
t-10 -17.5q-19 -37 -40 -70q-23 -36 -36 -74q-10 -16 -19 -35t-19 -35q-9 -15 -19 -34q-4 -9 -9 -18l-10 -18l-30 -46q-3 -7 -7 -19t-7 -19l-15 -38l-8 -18t-9 -18q-10 -20 -19 -36t-19 -32q-5 -9 -9 -18l-8 -18q-8 -20 -23 -32q-4 -18 -12 -30q-9 -15 -14 -28
q-17 -39 -41 -81q-11 -19 -22.5 -39t-22.5 -40q-7 -4 -13.5 -9t-13.5 -10q-14 -11 -35 -11q-11 -2 -16 1q-3 2 -6.5 3.5t-7.5 3.5q-20 6 -25 14q-4 8 -9 12q0 14 1 21q2 11 -5 17q8 23 16 46.5t16 48.5t17.5 48.5t20.5 46.5q5 10 10.5 19.5t10.5 18.5t10.5 18.5t10.5 19.5
q10 16 16 39q6 20 18 37q10 20 18 40.5t13 40.5q10 37 31 75q11 32 27 67q14 30 27 65q16 39 24 44q-2 6 2 15t8 15q5 21 12 34q10 32 21 60t27 54q2 8 4.5 15t4.5 14t4.5 14t4.5 15q8 30 18 50q8 44 24 86q12 28 23 52t27 40q6 6 14 13t18 9q13 4 26 1q12 -3 26 5zM122 168
q25 4 40 -4q14 -13 16 -11t4 -1q26 -14 34 -51t-6 -65q-22 -32 -36 -48t-36 -26q-16 -10 -29 -16t-33 -2q-60 8 -75 38t-9 64q5 20 10 30l7 12q4 6 7 10q29 38 72 60l16 7q6 3 18 3z" />
    <glyph glyph-name="quotedbl" unicode="&#x22;" horiz-adv-x="532" 
d="M344 962q-8 -6 -18 -16q-68 -21 -60 26q3 24 19 69t35 92.5t28 78.5q4 9 4 20t4 20q10 26 20 50.5t20 46.5l36 83q47 60 102 60q12 -8 28 -11q19 -3 26 -13q10 -10 8 -17t-12 -29q-10 -26 -25 -61t-33 -73q-6 -12 -13 -24.5t-15 -25.5l-16 -26l-16 -26q-16 -30 -31 -60
t-29 -59t-29.5 -55.5t-32.5 -49.5zM768 1476q44 0 70 -20q-16 -70 -42 -126t-54 -110q-25 -56 -61 -121q-19 -34 -35 -64.5t-30 -58.5q-8 -8 -12 -11t-12 -11q-34 -16 -51 -1t-13 49q2 16 13 47t23 61q8 26 16.5 49.5t16.5 45.5t17 45t18 48q5 11 6 20t12 20q-6 26 18 59
l40 55q14 9 31 14q8 2 15 4.5t14 5.5z" />
    <glyph glyph-name="numbersign" unicode="#" horiz-adv-x="1274" 
d="M1276 1464l2 -10q11 8 19 5t17 -1q1 -10 9 -16t9 -18q-24 -52 -42 -81q-19 -31 -32 -63q-12 -18 -15 -33q-3 -16 -13 -23q-5 -18 -11 -29q-4 -7 -7.5 -14l-7.5 -15q-2 -5 -4 -9.5t-4 -9.5q-4 -9 0 -21q-5 -9 -10 -17l-10 -16q-10 -14 -16 -37q26 -2 51 13t57 13
q6 0 14 -2t14 -2q8 -2 18 0l20 4q14 2 20 1q7 -1 20 1q21 2 25 -4q5 -6 15 -2q8 -5 11 -14q3 -10 13 -14q2 -22 -6 -30q-9 -9 -20 -24q-8 -12 -13 -22t-9 -20q-7 -10 -19 -10t-23 -4q-39 6 -75 -2.5t-71 -14t-72 8.5q-13 -1 -24 0q-13 2 -24 -2q-11 -24 -21 -50t-20 -54
t-21.5 -52.5t-25.5 -45.5q-15 -39 -39 -88q-11 -23 -20.5 -45.5t-16.5 -44.5q64 -12 122 0q56 12 122 10h14.5t14.5 1q15 2 29 -3q21 -34 12.5 -44t-34.5 -36q-18 -24 -30 -48q-2 -4 -3.5 -8t-3.5 -8q-3 -7 -11 -12q-36 2 -57 -4q-22 -6 -43 -6q-7 0 -17 2t-17 2
q-20 0 -39 -0.5t-36 -1.5t-36 -0.5t-39 2.5q-7 0 -19 2q-10 2 -19 -2q0 -13 0.5 -23.5t1.5 -18.5q1 -16 -10 -20q-4 -15 -12 -26q-9 -12 -14 -24l-15 -48q-4 -12 -7.5 -24.5t-7.5 -25.5q-4 -8 -7 -15t-3 -15q-1 -27 -10 -46q-4 -8 -7.5 -16t-6.5 -16q-5 -10 -9 -19.5
t-8 -18.5q-7 -18 -21 -30q-9 0 -20 -3q-9 -3 -24 -1q-18 5 -33 18q-7 7 -14.5 13t-14.5 11q-39 22 -34 44q5 19 16 36q12 18 18 36q16 32 30.5 62.5t27.5 59.5t26.5 58t27.5 58q-48 5 -93 3q-22 -1 -45 -1h-46q-7 0 -19 -2t-19 -2q-10 -1 -19 -1.5t-17 -0.5t-16 -0.5
t-16 -1.5q-9 -17 -16 -41t-16 -41q-4 -11 -9 -21t-10 -19l-21 -36q0 -16 -8 -22q-8 -21 -16.5 -42t-17.5 -41q-18 -40 -30 -87q-18 -21 -20 -22q-3 -1 -8 -6q-30 -30 -44 -17q-11 11 -30 23q-6 20 -17 37q-9 15 -15 27q5 43 22 72q20 33 32 64q10 26 20 51t26 47
q12 31 20 41t8 25q-27 10 -54 2q-28 -8 -54 -4q-16 1 -46 10q-7 4 -14 6q-5 1 -10 6q-8 -5 -13 -1t-11 5q-12 16 -15 30t5 36q5 21 8 24q4 4 14 20h132q31 0 60 -0.5t56 -1.5q12 18 18 39q6 22 16 43q12 28 29 65t31 65q9 20 18 42.5t17 47.5q17 50 33 96q-27 8 -58 5
q-16 -1 -32.5 -2.5t-33.5 -2.5l-40 -3q-10 -1 -20 -1.5t-20 -1.5q-25 -6 -40 4q-13 12 -12 24q1 6 2 13t2 15q3 8 12 20q8 11 6 24l14 24q50 10 116 7q64 -3 122 3h18q10 0 14 4q6 5 15 22q9 18 15 24q10 12 15 23q3 7 11 21q8 13 15.5 24.5t14.5 21.5q12 18 24 46
q11 12 15 28q4 15 15 26q16 36 21 58q5 21 15 40q21 46 54 64q59 22 76 -6q24 -12 28 -22q-1 -6 -1.5 -12t0.5 -13q1 -13 -9 -17q-5 -12 -10 -23.5t-10 -22.5l-20 -44q-36 -68 -57 -119q-11 -28 -23.5 -55t-25.5 -54q15 0 30 -0.5t29 -1.5t29.5 -1.5t31.5 -0.5q22 1 44 0
t46 0q31 0 55 4q14 2 27.5 2.5t27.5 -0.5q15 28 28 63q11 30 30 61l72 141q18 35 37 70.5t39 70.5q19 0 26 -4q8 -4 18 0zM952 928l-12 -2q-8 4 -14 3t-14 -3q-22 -2 -46 -5t-40 -9q-15 4 -29 4q-7 0 -14 -0.5t-15 -1.5q-38 -2 -73 3q-38 5 -65 1q-19 -46 -33 -84
q-7 -19 -13 -35.5t-12 -30.5q-3 -5 -6.5 -10.5t-7.5 -11.5q-12 -19 -21 -39q-8 -18 -21 -37q-16 -24 -29 -60t-23 -64q24 -12 49 -9q26 3 51 3q23 4 38 4h22q7 2 14 3l14 2l28 3q11 0 23 -0.5t25 -1.5q26 -2 50 0q20 45 41 93t43 100q42 100 90 185z" />
    <glyph glyph-name="dollar" unicode="$" horiz-adv-x="808" 
d="M872 1308q11 -4 26 -4t24 -4l14 -7t16 -5q8 -2 16 -13q8 -12 12 -13q17 -16 16 -17q-2 -2 -2 -5q5 -9 9 -10q5 -1 9 -6q8 -13 -5 -24q-13 -12 -13 -22q-7 -15 -20 -20q-20 -11 -26 -9q-4 1 -12 -1q-15 0 -32 9q-16 8 -32 7q-10 6 -24 4q-15 -2 -20 8q-18 -6 -47 -4
q-27 1 -49 0q-42 -2 -69 -7t-53 -11q-21 -7 -29 -15q-5 -5 -13 -11l-15 -12q-5 -4 -15 -10q-10 -16 -21 -37t-17 -41q-2 -8 1 -24t11 -26q2 -20 12 -36l20 -32q14 -15 23.5 -27t14.5 -20q11 -18 26 -27q7 -8 13.5 -16t11.5 -16q10 -16 27 -28q7 -13 17 -26q9 -12 15 -30
q12 -20 36 -41q21 -19 26 -51q2 -8 4.5 -16.5t5.5 -16.5q6 -16 4 -37q-7 -32 -8 -52q-1 -21 -8 -46q-2 -7 -3.5 -13.5t-3.5 -12.5q-1 -6 -3 -12.5t-4 -13.5q-2 -8 -4 -16.5t-4 -17.5q-4 -18 -16 -28q-3 -6 -6.5 -12t-7.5 -12t-8 -12.5t-8 -13.5q-18 -26 -38 -47t-50 -39
q-20 -12 -35 -19t-31 -13l-34 -12l-18 -6l-18 -6l-20 -9q-10 -4 -24 -3q-15 -4 -35 -4q-10 0 -18.5 0.5t-16.5 1.5q-10 -22 -22 -38q-10 -14 -22 -36q-15 -5 -23 -20q-9 -16 -17 -24q-14 -22 -24 -36t-22 -26q-4 -14 -14 -17t-20 9q-6 10 -13 29t-5 31q19 47 33 70
q16 27 23 48q6 16 10 20t4 14q-100 30 -144 132q-10 10 -16 26q-6 17 -16 24q-1 11 -6 15q-3 3 -8 15q-24 9 -24 36q6 22 3 31q-3 10 1 17q20 11 27 23q8 14 17 23q-2 12 2 22q11 4 21 -1l19 -9q44 -43 64 -82.5t60 -65.5q6 -13 18 -20q11 -7 22 -18q6 -6 14 -13t20 -7
q5 -4 10.5 -7.5t12.5 -5.5t12.5 -5.5t10.5 -7.5q28 0 49 5t43 15q23 7 38 16q6 6 14 16q6 8 14 14q22 22 44 45t38 51q20 46 12 105t-22 113q-12 11 -24 21l-24 20q-27 22 -44 47q-8 6 -18 16q-16 14 -31 29t-31 33q-11 11 -26 22t-20 26q-5 11 -6 22t-6 22q-4 18 -7 35
t-1 33q0 17 3 30q3 15 -1 32q-4 36 12 63q17 27 30 51q5 8 10 16.5t9 16.5q9 17 23 29q8 2 13 8q3 4 11 10q10 0 13 5t13 5q25 14 37 18t23 12l15 3q8 2 11 5q8 -2 14 0l12 4q15 4 32 4h34q20 2 39 6q17 4 41 4q17 32 31 70q14 37 35 64q1 10 9 19q6 7 11 19q11 23 24 30
q10 18 19 15t17 -7q14 -12 19 -33t9 -41q3 -31 -6 -50.5t-20.5 -39t-15.5 -52.5z" />
    <glyph glyph-name="percent" unicode="%" horiz-adv-x="1226" 
d="M1218 1444q18 24 38 28t42 8q14 -8 20 -18q3 -4 5 -13t5 -13q12 -15 23 -24q13 -10 7 -36q-2 -6 -6 -17t-10 -17q-5 -9 -14 -14q-11 -6 -18 -16l-33 -33q-18 -18 -33 -29q-7 -9 -14 -16.5t-14 -14.5l-28 -27q-17 -27 -38 -42q-16 -17 -31.5 -35t-29.5 -38
q-27 -37 -63 -73q-18 -29 -36 -55t-36 -49q-52 -43 -89 -98q-19 -29 -39.5 -56.5t-41.5 -53.5q-4 -5 -8 -9.5t-8 -9.5q-8 -10 -14 -23q-14 -14 -26 -28l-24 -28l-12 -12t-13 -12t-13 -12.5t-12 -13.5l-32 -32l-21 -24q-5 -6 -11 -12.5t-12 -13.5q-29 -24 -56.5 -51.5
t-53.5 -58.5q-9 -10 -17 -28q-9 -20 -17 -30q-16 -12 -27 -27q-10 -14 -27 -25q-28 -41 -60 -70q-20 -18 -37 -30q-16 -11 -35 -30q-17 -5 -29 -14t-29 -14q-4 -5 -9 -9.5t-10 -9.5q-5 -4 -10.5 -9t-10.5 -10q-6 -7 -9 -17q-3 -8 -11 -15q-23 -14 -44 -20q-18 -1 -28 6
q-5 4 -10.5 7.5t-11.5 6.5q-2 10 -4 22t-2 26q12 22 26 30q26 38 57 71t63 65q17 15 32.5 31.5t29.5 33.5q31 37 62 63q10 12 19.5 24t19.5 23l20 22t21 21l42 54q5 6 10 12.5t10 13.5t10 13.5t10 12.5q26 50 61 85t69 75q16 20 32.5 40t33.5 39q34 38 64 79q40 43 74 90
q20 22 36.5 41t29.5 35t26.5 32t27.5 32q29 41 63 78q33 36 63 80q11 15 29 28t29 28l-56 -12t-56 -16q-14 -8 -22 -8q-6 -1 -15 -6q-8 -4 -19 -4q-14 0 -28 8t-24 14q-24 5 -29 -7q-3 -7 -11 -21q-18 -30 -28 -46q-6 -9 -11.5 -18t-10.5 -18q-2 -5 -4 -9.5t-4 -9.5
q-2 -4 -4 -9l-4 -10q-6 -10 -13 -19.5t-15 -17.5t-15 -17.5t-13 -19.5q-11 -11 -20.5 -22.5t-17.5 -22.5t-17.5 -22.5t-20.5 -22.5q-5 -4 -15 -10q-7 -4 -13 -10q-7 -6 -13.5 -12.5l-13.5 -13.5l-27 -28q-13 -8 -25.5 -16t-23.5 -16q-22 -16 -51 -30q-10 -6 -19 -11t-19 -5
q-12 -6 -24 -15t-28 -15q-28 6 -60 14t-54 24q-42 50 -56 118q4 34 10 68t20 66q2 5 4 9.5t4 8.5t4 8.5t4 9.5q12 28 25 55t33 49q67 88 162 150q8 5 15.5 10t14.5 10t14.5 10t15.5 10q34 18 68 34q22 10 44 19t44 17q20 -4 47 10q25 13 55 12q45 -1 76 -26q12 -10 23 -21
t15 -27q16 -12 26 -25q13 -16 28 -23q16 -6 32 -5t38 3q26 5 54 6q14 1 27 3.5t25 6.5q15 7 28 13.5l23 11.5q11 5 20.5 10t18.5 9zM762 1396q-40 -10 -72 -25t-64 -35q-17 -11 -35 -22t-37 -22q-41 -25 -70 -48q-20 -16 -36 -29t-30 -29q-7 -8 -14 -18t-14 -22
q-12 -22 -30 -46q-10 -12 -19 -27t-13 -33q-1 -7 -1.5 -17t-0.5 -24q0 -27 8 -33q8 -4 15 -3q5 1 17 1q15 -4 30 -4q18 2 33 12q8 5 15.5 10t15.5 10q21 12 42 28q20 14 42 30t38 32l38 38q9 8 17.5 15.5t16.5 14.5q17 14 30 30q14 29 24 48q11 20 24 42q3 7 6 13.5t7 12.5
t6.5 11.5t4.5 10.5q4 15 4 28q0 8 2 24q0 3 2 13q2 8 -2 13zM1146 344q-11 -18 -21 -35l-20 -34q-19 -33 -45 -69q-12 -18 -28 -34q-6 -8 -11 -15l-10 -14q-4 -7 -10 -14t-13 -15l-21 -16q-10 -7 -21 -18q-16 -14 -31 -27t-37 -25q-8 -4 -17 -8t-19 -8q-31 -16 -64 -24
q-10 -2 -21 -4t-25 0q-30 6 -39 3q-8 -3 -19 -1q-73 7 -92 66l-2 24t-3 23q-3 23 -3 49q-2 42 17 94t37 94q10 22 21 44t27 38q10 8 17 15l15 15q7 5 17 17q8 9 15 15q7 9 20 16q12 6 22 16q5 4 10.5 7.5t12.5 7.5t12.5 7.5t10.5 7.5q25 18 42 34q20 18 42 30q25 14 49 21
q26 8 47 23q16 5 29 9t23 8t20.5 6.5t21.5 4.5q7 1 16 5q8 3 18 -1q14 -4 22 -13t16 -19q4 -3 12 -7q6 -3 10 -13q7 -12 8 -23q2 -13 6 -27t7 -28t1 -30q-6 -48 -25 -93t-47 -85zM1106 570q-14 -6 -30 -18q-30 -6 -54 -22q-7 -3 -13.5 -6t-12.5 -7t-12.5 -7t-13.5 -6
q-7 -4 -16 -6q-7 -1 -18 -6q-22 -12 -41 -30t-37 -38q-11 -13 -19.5 -24t-14.5 -19l-28 -39q-10 -14 -19 -27t-17 -29q-9 -20 -14 -47q-4 -25 -12 -51q-10 -28 -3 -40q7 -11 13 -34q3 -7 5 -21t5 -21q14 4 32 9t34 3q23 11 37 26t33 28q16 10 26 18t24 20q14 14 29 34t29 34
q7 12 15.5 24t18.5 24q21 25 38 50q22 34 40 75t24 83q-14 11 -17 31q-3 19 -11 39z" />
    <glyph glyph-name="ampersand" unicode="&#x26;" horiz-adv-x="1132" 
d="M916 1504q24 8 41 6q18 -2 33 4q22 -22 27 -25t11 -9q16 -16 26 -36t20 -42q4 -8 2 -20q-2 -14 -2 -20q0 -16 1 -24q1 -6 0.5 -13t-1.5 -15q-8 -18 -11 -36q-1 -10 -3 -20l-4 -20q-4 -12 -13 -25t-19 -25l-10 -10q-4 -4 -12 -10q-5 -13 -14 -18t-18 -14q-13 -15 -17 -16
t-9 -6q-11 -7 -18 -14q-37 -31 -55 -42t-35 -28q-20 -20 -40 -32q-20 -20 -39.5 -40t-38.5 -40t-39 -39t-41 -37q2 -15 3 -30.5t2 -31.5l3 -64q0 -13 1 -18t1 -16q-4 -12 -2 -19q2 -6 2 -9q-2 -16 -1 -18q1 -3 1 -8q0 -25 5 -33l9 -15q-2 -9 2 -14q5 -6 0 -14q10 -15 16 -36
t16 -36q11 -46 32 -78q11 -17 20.5 -35t17.5 -37q16 -19 18 -31q2 -10 8 -17q17 13 33 26.5t32 27.5q30 27 65 50q40 29 73 60t67 54q16 24 30 50t8 54q-23 -11 -38 -13q-13 -1 -24 -9q-16 -1 -30 -10l-28 -18q-20 -14 -31 -23t-21 -29q-21 -16 -38 -43q-18 -30 -38 -47
q-12 28 -7 46t15 36q13 17 23 29t17 19q16 17 16 22q0 4 4 8q15 15 26.5 26t19.5 18q34 34 58 53t50 35q20 -6 41 6q22 12 39 8q15 -10 22 -17q2 -2 4 -5l4 -6l16 -16q4 -4 7 -11q2 -4 3 -6.5t2 -4.5q-2 -24 2 -34q5 -29 -12 -54q-18 -56 -41 -76q-25 -22 -43 -48
q-20 -20 -35 -32t-31 -24q-16 -18 -33 -33q-16 -15 -33 -33q-25 -22 -51 -42q-23 -17 -49 -42q-7 -5 -13.5 -10.5t-11.5 -11.5t-11 -11.5t-12 -10.5q5 -18 16 -31q12 -14 8 -33l9 -19q6 -12 7 -19q12 -14 14 -37q1 -21 10 -43q17 -67 48 -116q-23 -22 -42 -14q-12 16 -27 23
t-33 13q-14 17 -16 15t-2 1q-10 10 -13 22q-3 10 -11 22q-6 11 -15 15q-8 4 -17 13q-11 13 -20.5 25.5t-17.5 23.5l-32 45q-11 0 -19 -5q-10 -6 -17 -7q-31 -16 -54 -27l-44 -21q-24 -12 -47 -24t-45 -28q-33 -8 -42 -7q-8 1 -24 -1q-6 -1 -12 -3t-13 -4q-15 -5 -25 -1
q-28 8 -38 7q-12 -1 -22 3q-19 0 -24 6l-37 9q-10 2 -19 4.5t-18 4.5q-27 5 -32 8q-10 6 -14 10q-30 18 -42 29t-20 27q-28 30 -46 65t-34 69q-4 9 -7.5 19t-5.5 20q-4 21 -15 39l-2 6t-3 7q-3 8 -3 17q0 4 3 13t7 19q5 17 10 26q6 16 6 26q11 16 19 37q8 22 23 37
q5 17 16 24q5 13 14 18q4 10 13 17t19 13q16 18 29 32t29 24q20 24 42 39q22 14 34 33q3 2 6.5 4t7.5 4q8 5 12 14q38 26 63 60q26 35 63 60q15 13 30.5 25.5t31.5 25.5l32 26t32 27q8 25 5 42q-3 16 -1 38q10 68 24 128q-4 5 1 19q2 7 4 12t3 9q10 32 20 52t22 42
q17 11 24 28q10 15 24 28q15 13 22 26q11 6 15 15q4 8 15 13q11 17 27 27q8 5 16.5 11.5t16.5 13.5q16 16 35 29t43 21q14 16 35 22t43 10zM644 1032h4q5 8 9 11q5 3 9 9q30 31 42 38q12 15 25 23t25 23q20 20 38 32q43 39 76 76q6 20 13 27q8 8 9 15q8 20 13 37t3 27
q-21 13 -25 20q-3 6 -11 8q-7 0 -18 -6q-5 -3 -8.5 -5t-5.5 -3q-25 -13 -48 -18q-5 -7 -10 -8t-10 -10q-15 -7 -16 -9t-6 -7q-3 -3 -11 -8q-7 -4 -11 -8q-10 -10 -15 -21q-2 -5 -5.5 -11t-7.5 -12q-5 -8 -10 -15.5t-10 -15.5q-10 -14 -16 -31q-3 -13 -7 -34t-7 -34
q-2 -14 -4 -27t-4 -25q-2 -10 -4 -22t4 -16zM272 522l-6 -6q-5 -7 -10.5 -13.5t-10.5 -12.5q-12 -13 -21 -28l-16 -12q-2 -2 0 -4q-12 -15 -25 -27q-15 -14 -21 -31q-4 -12 -3 -24t-3 -22q1 -20 3 -34.5t4 -22.5q5 -18 5 -33l18 -50q7 -18 8 -34q14 -21 24 -18
q17 -12 27 -21q10 -8 23 -15q10 -6 22 -6q18 4 34 7t34 5t39 6q21 5 39 6q9 0 24 4q23 2 41 4.5t31 6.5q25 7 50 9q11 9 31 16t35 16q-4 23 -12 42q-7 20 -12 42q-14 40 -21 61t-13 43q-16 38 -24 74t-14 74q-2 16 -2 26q0 16 -4 28l-3 15q-2 10 -3 17q-4 31 -4 69t-4 69
q-55 -31 -102 -75q-23 -22 -45.5 -42.5t-44.5 -40.5q-45 -38 -68 -68z" />
    <glyph glyph-name="quotesingle" unicode="'" horiz-adv-x="288" 
d="M344 962q-8 -6 -18 -16q-68 -21 -60 26q3 24 19 69t35 92.5t28 78.5q4 9 4 20t4 20q10 26 20 50.5t20 46.5l36 83q47 60 102 60q12 -8 28 -11q19 -3 26 -13q10 -10 8 -17t-12 -29q-10 -26 -25 -61t-33 -73q-6 -12 -13 -24.5t-15 -25.5l-16 -26l-16 -26q-16 -30 -31 -60
t-29 -59t-29.5 -55.5t-32.5 -49.5z" />
    <glyph glyph-name="parenleft" unicode="(" horiz-adv-x="556" 
d="M132 -86q-7 5 -9 12l-3 18q-4 14 -6.5 27t-3.5 25q-1 8 -1.5 16t0.5 16t0.5 16.5t-1.5 17.5q-10 62 -5 137t19 149q4 18 9 39t11 39q8 20 12 39q2 10 4 18.5t4 16.5q2 6 4.5 12t5.5 11t5.5 11t4.5 12q2 12 4 21.5t4 16.5l22 51q6 14 11.5 27.5t10.5 27.5q8 19 15 37.5
t14 36.5t14.5 36.5t16.5 37.5q6 10 12 19.5t13 18.5q13 17 25 40q6 10 11.5 19.5t10.5 18.5l24 40q36 52 76 104t86 110l139 167q69 83 153 153q14 5 19 0l15 -12q9 -7 18 -11q11 -5 6 -19q-2 -8 -11 -20t-19 -22q-22 -30 -48 -57q-28 -30 -48 -55q-8 -10 -15.5 -20
t-14.5 -20l-30 -42q-4 -6 -8 -11.5t-8 -10.5t-7.5 -10t-6.5 -10q-7 -11 -13.5 -21t-12.5 -18q-12 -16 -24 -39q-9 -14 -16 -30l-14 -30q-7 -15 -15 -26t-13 -22q-16 -28 -30 -56t-26 -54q-5 -9 -13 -20q-6 -8 -11 -20q-10 -16 -21 -35t-21 -37q-4 -9 -7.5 -18t-5.5 -17
q-5 -17 -15 -35q-2 -4 -4 -7.5t-4 -5.5t-4 -5l-4 -6q-9 -16 -14 -30q-6 -18 -16 -30q-34 -76 -65 -155t-51 -147q-3 -4 -5 -12l-3 -10q-6 -19 -6 -34q0 -13 -6 -36q-5 -14 -3 -25q2 -10 -3 -27q-4 -15 -4 -33q0 -19 -4 -35q-4 -40 0 -68q4 -25 4 -62q0 -13 4 -30
q2 -14 2 -20q0 -11 -4 -18q-7 -10 -22 -13q-13 -3 -26 -11q-18 -1 -30 3q-13 5 -28 1z" />
    <glyph glyph-name="parenright" unicode=")" horiz-adv-x="566" 
d="M608 1524q5 -4 7 -12l3 -16q1 -6 2.5 -12.5t2.5 -13.5q4 -17 5 -28q1 -8 1.5 -16t-0.5 -16t-0.5 -16t1.5 -16q10 -64 5 -139t-19 -149q-6 -42 -20 -78q-3 -10 -5.5 -19.5t-4.5 -19.5t-4 -18.5t-4 -16.5q-2 -5 -4.5 -10.5t-5.5 -11.5t-5.5 -12.5t-4.5 -13.5q-4 -10 -6 -18
q-1 -7 -6 -18q-4 -12 -9 -24.5t-10 -26.5l-21 -55q-15 -35 -30 -74q-7 -18 -15 -36t-17 -36q-11 -24 -23 -41q-7 -10 -13 -19.5t-12 -19.5q-12 -17 -24 -38q-5 -9 -10.5 -18.5t-11.5 -19.5q-37 -57 -77 -106t-87 -108q-70 -88 -139 -170t-153 -152q-12 -4 -19 0t-17 12
q-8 7 -17 11q-10 5 -5 19q4 10 12 21t16 21q26 30 51 57q25 26 49 55q8 10 15 20l14 20t14 20.5t15 21.5q4 5 8 10.5t8 11.5t8 11.5t8 10.5q14 20 26 38t22 40q4 7 7.5 14.5t7.5 14.5q4 8 8 15t9 14q7 15 15 26t13 22q8 15 15 29.5t14 27.5l13.5 27t13.5 26q5 12 11 20
q8 11 13 20l20 36t18 36q9 16 16 36t16 36q4 4 7 10q4 8 7 12q8 14 15 30t13 30q36 76 67 156t53 146l2 6l2 6t2 5.5t2 4.5q4 17 4 35q0 16 6 35q4 12 4 24q0 11 4 26q4 16 4 35q0 8 0.5 17t1.5 18q6 38 1 68q-4 28 -3 62q0 5 -2 15t-2 15q-2 14 -2 21q0 12 4 17q7 10 21 13
q11 2 23 11q22 2 33 -2t29 -2z" />
    <glyph glyph-name="asterisk" unicode="*" horiz-adv-x="710" 
d="M788 1488q-10 -11 -8 -26q2 -13 0 -24q-7 -34 -29 -64q-21 -28 -39 -60l-23 -42q-10 -19 -21 -42q42 5 67 13q28 9 59 15q22 4 46 10t46 14q12 0 25 3q7 2 12.5 3t10.5 2q32 -6 42 -12q4 -28 -11 -65t-33 -65q-14 -8 -28 0q-23 -4 -46 2q-21 6 -46 4q-8 0 -18 2
q-9 2 -18 -2q-35 -12 -57 -10q-24 2 -43 -2q8 -15 7 -19q-1 -3 1 -9q5 -8 11 -12q7 -4 13 -12q12 -16 16 -26q16 -10 39 -16q20 -6 31 -18q16 -18 23 -19q9 -2 13 -5q-6 -14 -10 -22t-14 -12q-18 -33 -38 -50q-5 -5 -10 -6q-6 -1 -12 -6q-8 -6 -18 -20q-7 -5 -14 -9l-14 -8
q-13 -7 -24 -21q-18 -4 -26 3t-14 15q-2 44 -11 83t-19 79l-8 36t-16 28q-24 -22 -43 -46t-37 -50q-39 -46 -65 -87q-29 -46 -55 -85q-14 -2 -22 -2q-4 6 -12 9t-10 11q-18 2 -26 8t-18 16q-3 5 -6 9t-5 8q-6 10 -7 21q-8 11 -7 16q1 4 -1 10q18 13 16 15q-1 2 2 5l80 44
t74 50q44 27 86 72q-17 4 -37 2q-8 -1 -17 -1.5t-18 -0.5l-32 4t-34 -2q-12 -2 -24 -4.5t-24 -5.5q-22 -6 -50 -4q-10 -14 -22 -10t-12 18t7 35t15 41q6 16 13 31t17 29q4 5 14 15q8 8 12 17q8 4 14 6.5t10 3.5q3 -3 10 -5q10 -2 14 -5q11 -4 17 -11q5 -5 15 -11
q41 -5 55 -14t39 -14q12 -9 27 -10l16 -2t15 -2q1 8 3 16l4 16l9 34q2 10 4 19.5t3 18.5q2 9 3.5 18t3.5 18q4 23 4 49q0 23 14 49q19 8 37 8h35q24 1 52 13q26 11 50 9z" />
    <glyph glyph-name="plus" unicode="+" horiz-adv-x="944" 
d="M730 1050l-2 -20q8 -18 8 -26q0 -6 2 -20q-4 -7 -4 -13t-4 -13l-19 -33q-9 -15 -15 -33q-10 -22 -24 -48t-30 -52q-10 -28 -25 -56l-14 -28t-13 -28q34 8 60 10t48 0q14 0 22 -1t22 -1q18 -2 37 -1t39 3q26 2 46 -1q23 -3 44 -3q18 -22 12 -40t-22 -38q-30 -5 -46 -10
q-18 -6 -34 -6q-13 -6 -27 -6q-15 0 -27 -4q-4 -3 -14 -7t-14 -7q-25 -4 -38 -2q-14 2 -20 2q-10 1 -19.5 1.5t-18.5 0.5h-40q-10 0 -15 -1t-13 -1q-14 -2 -21 -1q-10 2 -21 -3q-8 -23 -17.5 -46.5t-20.5 -46.5t-20.5 -46.5t-17.5 -46.5q-6 -24 -16 -40l-12 -26
q-2 -7 -3.5 -13.5t-3.5 -11.5q-1 -5 -3 -11l-4 -12q-4 -10 -9 -19t-11 -19q-10 -8 -21 -16t-21 -12q-12 0 -27 -5q-13 -4 -23 1q-22 -6 -23 -3q-2 4 -5 7q-10 7 -10 16v12q-2 6 0 15t4 17q28 52 52 104l7 18q2 4 3.5 8t3.5 8q2 6 3 11.5t2 9.5q2 12 5 19q11 29 30 57
q20 29 32 67q-64 -6 -118 -9t-106 11q-59 4 -50 46q-6 12 -1 18q5 7 9 16q13 14 14 13q2 -1 4 1q26 14 32 8q8 1 17 2.5t19 2.5q20 3 38 3q16 -2 30 -3t24 -1q40 4 72 5t66 1q7 12 12 28q2 7 5.5 15t8.5 17q8 15 17 28q11 16 17 30q8 17 15 33.5t14 32.5q14 34 33 58
q14 21 23 40q7 16 19 32q8 11 18 18q11 8 18 18q27 13 44 24q17 4 32 2z" />
    <glyph glyph-name="comma" unicode="," horiz-adv-x="272" 
d="M-52 -100l2 20q28 16 52 46q-18 2 -37 14t-25 38q-4 26 3 59t23 45q5 8 12 15l14 13q26 26 60 16q14 -2 18 -2q9 0 14 4q4 -2 7.5 -4t6.5 -4l12 -8q5 -16 12 -30q8 -14 8 -32q0 -23 -10 -44q-9 -19 -14 -44q-12 -6 -16 -22q-4 -14 -12 -32q-16 -14 -30 -28t-26 -30
q-18 -5 -30 -14q-7 -7 -8 -12q-1 -6 -8 -6q-8 0 -20 12q0 15 -4 20t-4 10z" />
    <glyph glyph-name="hyphen" unicode="-" horiz-adv-x="818" 
d="M796 672q-4 -7 -2 -13t-2 -13q-6 -10 -10 -14q-7 -7 -12 -16q-9 -13 -14 -28q-4 -11 -18 -22l-45 -9l-22 -4t-21 -3q-9 0 -20 -0.5t-24 -1.5q-30 -2 -46 2q-10 1 -16.5 1.5t-9.5 0.5h-12q-31 0 -63 -7t-65 -7q-11 1 -21.5 2t-21.5 2q-10 1 -22.5 0.5t-26.5 -2.5
q-22 -4 -28 -3q-4 1 -12 -1l-19 -3q-12 -2 -17 -3q-10 -4 -23 -8t-25 -2q-7 0 -11 4q-2 2 -5.5 4t-7.5 4q-7 3 -19 7q-8 3 -13 11q4 13 6 32t18 38l10 10t12 14l11 15q5 7 13 13q7 3 19 5q10 2 19 7q14 -4 33 -2q17 2 25 -6q27 0 57 -5q27 -5 59 -3q20 0 39 3q10 2 20.5 3
t22.5 2h70q8 0 16.5 0.5t16.5 1.5t17 1.5t18 0.5q20 2 34 -1q17 -3 32 -3q8 1 17.5 2.5t19.5 2.5q21 3 39 3q5 -2 9.5 -3t8.5 -2q8 -2 12 -7z" />
    <glyph glyph-name="period" unicode="." horiz-adv-x="278" 
d="M44 176q5 -4 12 -6q7 -1 12 -8q10 4 20 0l20 -8q6 -14 22 -30q6 -22 7 -42t-7 -38q-15 -12 -22 -31q-6 -16 -20 -27q-10 -10 -23 -16q-15 -7 -27 -16q-26 -8 -43 -1t-31 19q-24 22 -24.5 61.5t16 77.5t40.5 53q12 4 22 7t26 5z" />
    <glyph glyph-name="slash" unicode="/" horiz-adv-x="776" 
d="M1170 1490l16 -8q-19 -24 -38 -49.5t-39 -52.5q-19 -27 -40.5 -54t-44.5 -54q-60 -72 -130 -142q-69 -69 -118 -138q-5 -10 -10.5 -19.5t-11.5 -18.5l-24 -36q-25 -33 -32 -44q-9 -15 -18 -26q-23 -28 -47.5 -56.5t-50.5 -57.5t-50.5 -58.5t-47.5 -59.5
q-48 -61 -100 -118q-26 -29 -51.5 -58t-50.5 -58q-17 -20 -33.5 -40t-32.5 -40t-32 -39t-32 -37q-11 -14 -21.5 -27t-21.5 -26q-20 -24 -37 -49q-16 -15 -32 -31t-32 -33q-30 -33 -68 -52q-5 -2 -10.5 -4.5t-11.5 -5.5t-12.5 -5.5t-13.5 -4.5q-10 -4 -26 -10t-22 -4
q-7 15 -12 17q-4 2 -8 5q-10 7 -8 15q1 5 20 29q4 5 7.5 10t6.5 9q6 9 12 15q17 20 42 43q11 11 22 21.5t22 21.5q22 22 43 48t39 50q16 20 31.5 40t30.5 40t31.5 41.5t34.5 44.5l72 90q8 11 16.5 22.5t16.5 23.5t16.5 23.5t16.5 22.5q23 22 48 50q17 17 34 36t34 39
t33 38.5t31 34.5l56 68q14 17 28.5 34.5t29.5 35.5q27 32 55.5 64.5t58.5 66.5t58 66.5t54 64.5q14 14 29 34q7 9 13.5 17.5t13.5 16.5q8 9 16.5 18t16.5 17q19 19 31 35q23 24 39 48q15 22 43 50q2 2 10 8q3 2 6.5 4.5t7.5 5.5l15 16q8 8 15 12q4 4 11 8l17 10l20 12
q5 4 16 4q6 0 17 -1t15 -3q4 -4 1 -11q-3 -8 1 -15z" />
    <glyph glyph-name="zero" unicode="0" horiz-adv-x="1070" 
d="M1024 1448q14 -4 21 -12l17 -18q5 -5 10.5 -9.5t10.5 -9.5q11 -9 21 -21q18 -18 33 -37t25 -47q20 -52 20.5 -128t-4.5 -138q-5 -20 -9 -39.5t-8 -39.5q-4 -19 -9.5 -39t-13.5 -40q-4 -9 -7 -23q-3 -16 -7 -25q-3 -11 -5.5 -22t-4.5 -22t-4.5 -22t-5.5 -22
q-5 -24 -13 -43q-9 -22 -15 -43q-22 -35 -43 -81q-10 -22 -19.5 -42.5t-19.5 -40.5q-3 -6 -6.5 -12t-7.5 -12l-16 -24l-6 -12l-6 -12t-6.5 -12t-7.5 -12q-10 -17 -21 -34t-23 -34t-23.5 -34t-22.5 -34q-51 -45 -103 -82t-93 -90q-23 -12 -42 -26q-11 -15 -20 -24
q-27 -17 -41 -28q-16 -12 -25 -18q-37 -12 -56 -23t-38 -11q-24 1 -51 11q-29 10 -47 15q-19 11 -21 9q-1 -1 -5 -1q-34 22 -64 49t-54 59q-13 26 -20 54l-18 54q-2 8 -3.5 16t-3.5 15q-1 8 -3 15.5t-4 15.5q-10 29 -15 57q-2 14 -5 29l-6 30q-2 10 -6 16l-8 12q-1 23 -5 30
q-1 3 -2.5 5.5t-2.5 4.5q-2 8 -2 14t-2 16q-2 39 10 74q-2 12 -1 23t3 23l7 18q2 4 3.5 8.5t3.5 9.5t3 9.5t2 8.5q2 12 5 16l28 57q5 11 10 20.5t10 18.5q8 40 25 72t37 61q16 23 41 57.5t39 59.5q29 43 60 82q14 18 28 36.5t28 37.5q28 36 62 67t70 59l12 10t11 10t11 10
l12 10l24 20q11 10 26 18q5 3 10.5 6t12.5 6t12.5 6t10.5 6q14 8 32 18t34 16q6 2 12.5 4t13.5 4q16 5 26 14q12 0 21 4q11 5 21 6q8 3 25 5l27 3q27 0 52 -4q14 -2 33 -2q23 0 29 -16zM994 1016q2 10 1 15q-1 7 3 13q-10 24 -3 51q4 14 6.5 26.5t4.5 24.5q-9 20 -10 32
q-1 14 -10 30q-26 28 -34 43t-16 31q-13 10 -35 10h-35q-25 5 -33 0q-7 -4 -15 -4q-10 -2 -19.5 -3.5t-19.5 -3.5q-21 -3 -35 -7q-18 -16 -34 -31t-32 -31q-8 -10 -16 -19t-18 -19q-5 -5 -9.5 -10.5t-9.5 -10.5q-4 -5 -9 -10.5t-10 -10.5q-22 -28 -44 -57t-44 -59
q-30 -44 -60 -77q-33 -36 -58 -79q-8 -12 -15.5 -24.5t-15.5 -26.5q-7 -13 -15 -26.5t-16 -26.5q-3 -3 -5 -10q-2 -8 -5 -12q-6 -10 -9 -14l-9 -12q-4 -5 -4 -12t-4 -12l-4 -6t-4 -5q-4 -4 -6 -9q-2 -6 -1 -10t-1 -12q-10 -28 -8 -43q2 -16 -2 -27q-8 -25 -7 -33
q1 -7 -1 -23q-2 -28 -4.5 -55.5t-5.5 -55.5q-6 -56 4 -101q10 -11 13 -28q3 -16 9 -30l12 -20q11 -20 21 -29l27 -23q20 -24 29 -25t25 -1t24 -1q12 -1 24 3q16 4 30 11t28 15q20 11 40.5 22.5t40.5 23.5t40 23.5t39 22.5q12 24 27 44t29 38q10 10 13 15t11 11q19 30 40 51
q20 20 40 55q20 30 36 64q10 18 17 34t11 34q12 20 15 30q3 11 7 20q3 7 5 17t5 17q8 18 7 22t1 10q8 20 14 39t10 39q10 24 18 55q8 29 18 57q-16 16 -7 44q8 25 13 52z" />
    <glyph glyph-name="one" unicode="1" horiz-adv-x="728" 
d="M324 154q21 -1 38.5 -2t30.5 -2q14 -1 27 -1.5t26 -0.5q4 -4 7 -12q3 -7 9 -12q16 -30 7 -45t-23 -35q-6 -11 -10 -16t-4 -20q-13 0 -20 -10q-8 -11 -22 0q-15 -4 -29 -4q-9 0 -23 -2q-24 -4 -24 -3t-4 1q-56 8 -102 -4q-23 7 -26.5 7.5t-5.5 -4t-22 -13.5
q-52 -7 -90 -30q-10 1 -26 -6q-14 2 -21 -5t-19 -5q-10 6 -16 26t2 32q-8 36 -1 55t23 43q29 28 60 28q30 0 48 12q39 68 56 120q9 27 19 56.5t21 61.5q1 11 8 21q5 8 10 19q9 18 14 40q5 21 14 32q2 12 11 40t19 54t14 32q7 5 12 8.5t8 5.5q6 5 9 10q3 6 7 10q9 20 13 33
q3 12 13 19q17 41 34 64q3 7 6 13.5t5 12.5t5.5 11.5t7.5 10.5q0 10 4 13q4 2 2 13q9 12 16 29q3 8 6.5 15.5t7.5 15.5q16 42 28 71t28 57q9 15 14 34q5 17 14 28q0 10 3 18t7 18q3 4 9 14q5 8 9 12q18 37 38 69q19 31 32 63q-17 -1 -29 -10q-5 -4 -12 -8t-15 -8
q-14 -12 -34 -20q-8 -5 -15.5 -10.5t-15.5 -10.5q-17 -12 -31 -17q-10 -4 -24 -3q-13 2 -22 -7q-30 -4 -43 17t-3 43q1 6 5 11t5 11l3 14q2 9 5 12q5 9 10 11q5 3 10 9q34 10 48 20t26 20q22 10 42 20l40 20q13 8 25 16t22 15q18 13 41 27q6 16 20 24q17 9 28 18q6 4 14 10
t10 14q7 1 11 7q4 5 11 1q9 -3 15 -4.5t8 -2.5q3 -1 9 -1q13 -4 1.5 -14.5t-1.5 -21.5q4 -4 18 -10t18 -10q3 -10 4.5 -16.5t2.5 -8.5q3 -8 5 -11q1 -10 0 -22t0 -24q2 -21 -4 -42q-4 -15 -4 -24q-13 -48 -34 -88q-20 -38 -38 -76q-8 -20 -18 -34q-11 -17 -19 -32t-19 -32
q-14 -40 -33 -73q-10 -17 -19 -34.5t-18 -34.5q-26 -42 -45 -82q-10 -21 -20 -41.5t-21 -40.5q-12 -17 -22.5 -31.5t-19.5 -27.5t-18.5 -26t-19.5 -27q-4 -47 -21 -88q-8 -20 -16 -40.5t-15 -41.5q-12 -40 -32 -84q-19 -42 -30 -86q-16 -40 -25 -73t-15 -57z" />
    <glyph glyph-name="two" unicode="2" horiz-adv-x="942" 
d="M252 160l-10 -18q36 11 67 15q32 5 45 15q13 4 24 7.5t19 5.5t16.5 5.5t16.5 7.5h15.5t14.5 1t14.5 1h15.5h46q9 0 17.5 -0.5t16.5 -1.5q8 -2 16.5 -4.5t17.5 -6.5q18 -7 40 -3q24 4 43 5t43 -5l14 -7t16 -7q17 -6 35 -6t39 -8q5 -8 1 -13q-3 -4 -3 -13q0 -8 2 -14l4 -12
q2 -15 3 -16q2 -1 -3 -12q12 -28 0 -47t-34 -27q-17 4 -35 8.5t-37 8.5q-37 9 -76 9q-60 2 -125 0t-119 -14q-11 -5 -23 -6t-23 -6q-11 -4 -21.5 -7.5t-20.5 -5.5t-20.5 -5.5t-21.5 -7.5q-9 -2 -18.5 -4t-20.5 -4q-20 -4 -43 -12q-9 -1 -20 -6q-9 -4 -20 -4q-20 -2 -40 3
t-30 19q-24 11 -36 36q-6 13 -13 26.5t-15 27.5q-2 4 -3 7.5t-2 5.5t-2 5.5t-3 7.5q-11 22 -4 41q4 10 8.5 20.5t9.5 22.5q16 26 28 45t24 33q14 17 26 36q4 5 8.5 10t8.5 9q7 7 13 17q5 6 6 13q1 6 6 11q3 3 9 7t9 7q31 31 59 62q29 32 63 60q14 18 28 34t30 32
q36 30 65 65t71 59q10 10 20 17q11 8 20 17q11 11 18 22q6 10 20 22q6 5 12.5 10t13.5 9q14 9 24 21q11 11 18 22t18 22q24 30 50 62t58 60q30 46 63 89t67 87q5 12 11 20t11 22q5 18 3 39q-1 11 -0.5 21.5t1.5 21.5q6 36 -8 56q-15 21 -16 44q-4 4 -12 6t-12 -4q-4 6 -13 8
t-19 2t-22 -2t-18 -6q-15 6 -28 4q-6 -1 -11.5 -1.5t-10.5 -0.5q-14 -2 -22 -2q-13 0 -22 -4l-8 -8t-9 -8q-8 -7 -13 -18q-20 -16 -39 -32t-39 -34q-10 -7 -18 -20q-7 -11 -22 -18q-16 -22 -35 -38t-29 -44q-12 -8 -17 -17q-4 -9 -11 -17l-16 -16q-2 -6 -2 -12v-16
q-1 -8 -1.5 -16.5t0.5 -16.5q2 -17 -3 -35q6 -16 14 -24q10 5 25 15q7 5 13 9l12 8q10 10 23 16t23 16q29 19 52 42q11 14 32 26q18 10 28 28l8 16t8 18q4 7 6 16t6 16q5 11 10 16q6 6 4 20q33 -6 28 -44q0 -8 -3 -16q-3 -7 -3 -18q0 -8 3 -16q3 -9 -1 -16q-10 -16 -17 -27
t-11 -18t-8 -13l-8 -12l-116 -105q-61 -55 -134 -89q-19 -4 -34 4q-13 8 -30 12q-10 10 -19 22q-10 13 -21 20l-11 18l-9 18q-16 28 -23 50t-11 44q0 5 0.5 12t1.5 17t1.5 18t0.5 15q2 34 17 62t29 52q3 5 5 18t5 18q7 16 16 26q13 14 26.5 26.5t27.5 23.5q29 23 52 46
q26 11 32 24q12 5 21 13q5 5 10.5 9t10.5 8q12 11 29 21l31 19q16 1 30 10q12 8 28 12q9 4 20 7t18 9q17 1 37 6q17 4 41 4q29 2 56 -1t58 -1q50 2 87 -20t65 -46q22 -13 27 -20q4 -6 3 -16q-4 -22 -1 -27q2 -2 3.5 -5t3.5 -6q6 -13 6 -30q0 -16 10 -26q0 -18 9 -41
q9 -22 7 -49q-1 -19 -12 -33q-9 -12 -14 -33q-5 -35 -10 -47q-3 -7 -5.5 -13t-4.5 -12q-22 -46 -41 -82t-45 -64l-30 -24q-9 -9 -17 -20q-7 -10 -19 -16q-13 -16 -27 -31t-28 -29t-27.5 -29.5t-25.5 -32.5q-13 -14 -24.5 -28.5t-21.5 -30.5q-19 -31 -48 -57q-12 -12 -18 -24
q-20 -8 -31 -20t-19 -22q-4 -5 -8 -9l-8 -8l-16 -15q-18 -18 -35 -31q-10 -7 -18.5 -14.5t-16.5 -14.5q-9 -8 -18 -15.5t-18 -15.5q-18 -15 -34 -31q-32 -36 -68 -68q-6 -8 -9 -11t-9 -11q-16 -18 -36 -49t-34 -53q-5 -7 -15 -17q-8 -8 -13 -17q-8 -13 -20 -38z" />
    <glyph glyph-name="three" unicode="3" horiz-adv-x="1004" 
d="M1078 1412l2 -20q10 -30 14 -67t-6 -71q-4 -30 -7 -46t-7 -32q-15 -18 -25 -39q-9 -19 -25 -35q-19 -22 -30 -39q-12 -19 -26 -33l-27 -27q-5 -5 -15 -13q-18 -21 -23 -23q-8 -3 -13 -7l-16 -16q-10 -6 -20 -10q-32 -32 -65 -62t-69 -58q-24 -22 -41 -30q-15 -7 -27 -22
q36 -4 80 10q34 2 67 0t57 -20q16 -15 20 -17l8 -3q4 -6 13 -14t19 -16q14 -12 27 -24t17 -28q2 -8 1 -13t-1 -15q7 -17 12 -46q4 -28 1 -55t-7 -55q-2 -14 -2 -19q0 -10 -4 -17q-5 -19 -16 -36q-13 -20 -20 -36q-10 -20 -20 -38t-26 -36q-10 -13 -12 -18q-1 -2 -2 -4.5
t-2 -5.5q-14 -16 -23 -30t-19 -30q-6 -7 -12 -13.5t-11 -13.5t-11 -12.5t-12 -10.5q-28 -19 -51 -27q-25 -8 -41 -23q-9 -5 -18 -8.5t-17 -5.5q-18 -5 -27 -14q-26 -5 -47 -19q-22 -15 -49 -21l-24 -6l-20 -9q-5 -2 -10 -4.5t-10 -4.5l-40 -16q-11 -5 -19 -10q-10 -7 -25 -8
q-46 -28 -112 -18q-7 2 -15 6q-8 5 -17 6q-19 4 -37 6q-16 1 -29 8q-4 2 -8 4.5t-8 6.5q-7 7 -16 7q-26 12 -49 32q-10 9 -21.5 18.5t-23.5 19.5q-10 5 -19 13l-19 19q0 13 -1 19t-1 19q1 5 2.5 10t2.5 10q2 5 3 10l2 10q10 22 26 43t32 39q15 17 28 25q14 9 26 29
q13 5 18 14t18 14q18 20 43 30q22 9 47 24q8 -2 14 3l12 9q8 2 14 2q9 0 14 4q12 -2 24 -3.5t24 -3.5q23 -3 46 -15q10 -6 14 -9t14 -9q6 -8 10 -11q7 -5 14 -15q10 -8 19 -18t-7 -18q-37 0 -54 10q-8 6 -19 14t-21 10t-18 -3q-10 -6 -18 -7q-40 -22 -77 -53t-71 -65
q-8 -10 -10 -12q-5 -5 -10 -14q-8 -10 -9 -27t1 -37q10 4 25 -9q15 -14 23 -9q28 -12 64 -11t64 13q15 10 33 13q15 3 35 11q11 5 18 9q8 5 18 9q25 12 38 20t21.5 13.5t12.5 7.5l18 11q19 16 44 30q12 7 23.5 14t22.5 14q19 16 37.5 31t37.5 28q19 14 37.5 28.5t37.5 30.5
q14 28 23 66t7 72q-2 8 -8 26t-10 26q-3 8 -5 20q-1 10 -7 20q-6 7 -11 14q-4 7 -13 12q-24 11 -39 18q-15 8 -33 6q-71 -8 -128 -28q-13 -8 -15 -7t-7 -1q-10 -2 -20 -4.5t-21 -5.5q-20 -6 -45 -4q-10 -16 -28 -22q-6 4 -13 6t-13 6q-7 16 -12.5 31t-9.5 29q-5 10 -10 32
q0 4 6 13l10 15q1 9 12 17l20 15l14 14t8 10q25 12 29 18q3 4 11 12q6 6 16 12l8 4l8 4q8 4 15 9l14 10l14 10t15 9l48 42q5 4 10 8.5t10 8.5q10 9 20 13q11 12 26 24q7 5 14 11t14 13q10 0 15 8q5 9 15 10q29 29 62 52t62 52q8 6 11 11t13 11q14 20 17 57q3 35 17 65l10 27
q6 14 4 31q-2 16 -16 33t-30 23q-12 6 -36 -3l-36 -13q-10 -6 -18 -10t-13 -6t-10.5 -4t-10.5 -4q-15 -7 -31.5 -13.5t-33.5 -11.5q-37 -11 -67 -27q-6 -8 -10 -12l-10 -10q-8 -22 -19 -35t-25 -27q-5 -5 -10 -13q-4 -7 -8 -11q-18 -18 -21 -25t-7 -11q-4 -6 -10 -10
q-8 -6 -10 -8q-8 -8 -11 -13t-9 -11q-7 -6 -16 -11q-7 -4 -12 -15q-21 -8 -44 -8q-16 5 -26.5 -11t-21.5 -11q-13 8 -21.5 13t-12.5 6q-6 2 -18 11q-16 20 -19 51t1 59q-8 22 10 37t32 25q13 17 20 22q5 4 10 7.5t10 6.5q11 6 18 16q16 5 23 11t19 11q40 28 68 45t64 27
l108 60l16 7l4 3q22 10 46 20t52 20q13 7 25 8t29 6q26 6 50 8t52 -2q8 -1 18 -7l18 -9q11 -4 21 -6q11 -1 21 -6q11 -5 21 -14l10 -8t11 -8q5 -13 15 -20q11 -7 15 -18z" />
    <glyph glyph-name="four" unicode="4" horiz-adv-x="938" 
d="M860 792q18 -4 51 -1t53 -1q24 -28 22 -50t-6 -44v-27q0 -10 -10 -17q-18 -22 -55 -35t-75.5 -19.5t-63.5 -9.5q-4 -6 -7 -18q-3 -10 -9 -18l-12 -41q-2 -7 -4.5 -15.5t-5.5 -17.5q-15 -27 -16 -33q-1 -8 -6 -19q-14 -30 -14 -37q0 -10 -4 -19q-1 -4 -5 -12t-5 -12
q-1 -17 -4 -20q-2 -2 -2 -6q-4 -11 -7.5 -21t-6.5 -20t-6.5 -19t-7.5 -18q-14 -37 -21 -47q-4 -5 -6.5 -11.5t-4.5 -13.5q-2 -8 -4.5 -15t-4.5 -14t-4.5 -14t-4.5 -15q-2 -6 -2 -13t-2 -17q-10 -12 -16 -33q-6 -19 -26 -21q-10 -18 -19 -18q-10 0 -15 -4q-25 4 -36 -7
t-34 -21q-37 -39 -88 -52q-12 -8 -17 -6q-6 2 -9 2q-9 7 -14 24q4 26 12 46t18 40q5 28 13 43q10 19 17 39q17 28 28 62q5 16 11.5 32t14.5 32q3 7 6 13.5t7 12.5t7.5 12.5t7.5 13.5q12 23 24 39q6 8 11.5 17.5t10.5 19.5q5 11 10.5 21t10.5 20t10.5 20t10.5 21q11 33 16 60
q5 25 16 52q-6 1 -13 1.5t-15 0.5q-17 0 -26 -4q-10 1 -20 1.5t-20 0.5q-22 0 -42 -4q-20 6 -44 3q-25 -3 -52 1q-48 -8 -76 14q-13 11 -21 25q-9 15 -25 19t-33 4q-7 0 -14.5 0.5t-14.5 1.5q-15 1 -27 13q-5 5 -11 10.5t-12 10.5q-12 45 -8 64q26 18 30 28q13 8 14 18
q18 13 38 46q10 6 13 10t13 12l140 140q5 7 10.5 13.5t11.5 11.5t11.5 11t10.5 12q7 13 15 25t16 23q19 25 29 50q16 10 25 27t25 27q12 16 29 27t29 27q68 56 133 123t133 123q24 26 38 39t40 5q16 -4 37 -17t37 -25q18 -12 40 -18q12 2 18 -2q7 -4 14 -4q16 -6 22 -18
q8 0 10 -5t10 -7q8 -22 7 -57t-7 -57q-11 -18 -13 -26q-1 -6 -11 -10q-14 -36 -27 -69t-29 -67q-6 -21 -15 -40q-8 -17 -13 -46q-33 -52 -47 -84q-7 -17 -16 -34t-19 -34q-10 -16 -20 -38t-16 -42q-14 -14 -20 -30zM944 1342h-4l-24 -20q-13 -11 -28 -18q-22 -22 -49 -37
t-51 -39q-13 -10 -26 -19.5t-27 -19.5q-27 -19 -37 -53l-57 -57q-14 -14 -29 -28.5t-30 -28.5q-28 -25 -44 -50q-20 -10 -31 -29t-21 -39q-8 -6 -17 -18q-7 -10 -19 -16q-22 -32 -56 -69q-31 -33 -54 -71q32 5 81 7q23 1 42 2t35 3q10 2 21 3t19 1q21 2 38.5 4t30.5 4
q24 4 59 4q10 16 19 32t17 34l21 40q9 18 19 28q7 22 19 36q11 12 15 28q41 60 67 126q13 32 26.5 63.5t28.5 62.5q5 10 7 20q1 4 2 8.5t3 9.5q10 22 21 47t13 49z" />
    <glyph glyph-name="five" unicode="5" horiz-adv-x="956" 
d="M400 780q8 0 12 3l12 7q15 7 30 8q13 1 32 8q8 2 14 6q6 5 16 6q5 4 13 4q5 0 13 2t15 4t13 4q13 2 18 1t18 1q26 8 48 8q20 -5 25 -3q3 1 9 1q22 0 38 -13q15 -13 34 -25q9 -5 18 -9t17 -8t16.5 -8t16.5 -9q11 -11 12 -13q2 -3 8 -3q22 -26 38 -51t22 -65q4 -20 6 -37
t2 -39q0 -15 -3 -32q-3 -16 -3 -32q0 -29 -8 -50q-8 -16 -13 -29t-11 -29q-10 -30 -23 -61t-29 -59q-12 -17 -11 -18t-1 -6l-18 -18q-10 -16 -20 -31t-24 -25q-6 -15 -23 -28q-16 -11 -27 -26q-11 -17 -22 -24q-3 -3 -10 -5t-10 -5q-1 -11 -10 -18t-14 -16q-43 -21 -68 -26
q-14 -3 -28 -6.5t-28 -7.5q-26 -8 -49 -17t-47 -19q-11 -4 -22 -6.5t-22 -3.5q-13 0 -19 1t-19 -1q-19 -6 -24 -4l-4 2l-4 2h-15.5t-14.5 -1q-14 -2 -28 9q-21 6 -42 5q-22 -1 -44 9q-4 2 -10 6t-14 10q-5 4 -10.5 7.5t-10.5 6.5q-11 6 -17 14q-19 29 -31 41q-11 12 -19 25
q-11 12 -19 32l-15 36q-5 6 -6 13q-1 8 -6 15q4 19 2 44q-2 24 8 44q17 6 27 19q11 14 27 21q21 -7 42 -28q9 -4 14 -12l12 -18q16 -25 27 -38q5 -5 9 -10.5t8 -11.5q18 -16 42 -30l10 -8t9 -9q10 -10 19 -15q22 -6 25 -9q4 -4 7 -5q20 0 21 -1q2 -2 5 -3q12 -4 33 -2t29 4
q36 -2 61 14q14 8 27 15t26 13q16 10 28 18l24 16q14 10 26 22l24 24q6 5 12 10.5t11 12.5t11 12.5t12 10.5l24 20t20 22q9 20 16 38q3 8 6 15t5 12q5 11 9 27q20 38 29 82t-1 94q-30 24 -64 42t-74 34q-22 2 -45 -3l-47 -9q-8 -1 -13.5 -2t-8.5 -2l-6 -2l-6 -2
q-6 -2 -11 -3l-13 -3q-41 -18 -71 -40q-32 -23 -67 -40q-12 -12 -32 -20q-21 -2 -36 8q-22 -18 -48 -6q-16 10 -15 19q1 8 -13 19q-16 18 -20 45t4 51q16 10 23 31t13 41q8 19 16 37.5t16 37.5q15 33 26 77q6 14 12 27.5t13 26.5q14 26 27 54q10 17 18 33t14 32q12 31 34 53
q4 3 14 9q8 5 14 11q14 13 13 23t11 21q11 21 25 44q13 22 25 50q2 5 4 11t4 13t4 13.5t4 12.5q5 13 9 25.5t7 24.5q6 25 22 42q9 6 28 10q42 24 90 25t96 1q4 0 12 2t14 2q30 -2 62 0t58 0q38 10 80 13q39 3 74 9q38 5 66 13q30 9 66 7h12t13 -1q11 -1 23 7h16.5t17.5 1
q17 1 30 -5l6 -8t7 -8q7 -7 5 -24q-31 -40 -66 -52q-31 -11 -62 -32q-19 -21 -33 -25q-7 -2 -15 -5.5t-16 -7.5q-10 -4 -17 -10q-8 -7 -15 -8l-40 -4q-30 -1 -44 -5q-12 -3 -24 -3q-10 -1 -21 0q-13 2 -25 -2q-21 -1 -28 -8q-14 -1 -27.5 -3t-26.5 -4l-54 -9q-22 -4 -44 -9
t-46 -11q-16 -4 -33 -8t-35 -8q-8 -12 -15 -24.5t-14 -25.5t-13.5 -25.5t-13.5 -24.5q-10 -22 -21 -39q-5 -8 -10.5 -17.5t-10.5 -19.5q-9 -19 -16 -42q-3 -10 -7 -20t-9 -20q-30 -56 -57 -111t-45 -117z" />
    <glyph glyph-name="six" unicode="6" horiz-adv-x="956" 
d="M1068 1380q-10 -10 -24 -13q-15 -3 -22 -13q-26 -8 -51 -15t-49 -11q-8 -3 -15.5 -5.5t-15.5 -4.5q-7 -2 -15 -4.5t-16 -5.5q-9 -4 -16.5 -8t-13.5 -8q-21 -12 -39 -34q-17 -20 -43 -34q-19 -14 -36 -26.5t-32 -23.5q-27 -20 -58 -48q-22 -12 -36 -29t-36 -29
q-10 -12 -19 -22t-21 -20q-9 -14 -18 -27.5t-19 -26.5t-19 -26.5t-18 -27.5q-3 -5 -7 -17q-3 -10 -9 -17q-12 -12 -22 -34q-6 -10 -13 -22t-11 -24q-4 -4 -7 -8t-5 -14q-7 -6 -12 -17q-5 -12 -12 -19q2 -11 -5 -18t-1 -18q11 7 19 21q7 13 23 17q32 27 76 50q2 4 8 10t14 4
q14 14 36 20q17 17 44 22q15 10 37 16l41 12q3 1 7 2.5t8 2.5q12 4 19 5q23 2 44 -4q11 -3 22 -5.5t22 -4.5q18 -11 28 -19q14 -11 28 -17q26 -28 50 -66t42 -78q4 -8 8 -19t-2 -21q5 -43 15 -80q11 -39 11 -76q2 -22 -3 -45l-9 -45q-2 -12 -4 -22t-4 -18l-12 -36
q-10 -20 -22 -46q-10 -24 -24 -42q-7 -11 -14 -18q-6 -8 -11 -16t-11 -18l-24 -24q-4 -5 -7.5 -10.5t-6.5 -10.5q-6 -11 -18 -17q-19 -31 -46 -50q-12 -12 -25 -21q-15 -10 -29 -23q-10 -10 -21 -20t-21 -16l-30 -17q-6 -3 -10 -3l-16 -9q-7 -4 -18 -9q-14 -20 -18 -16
q-5 -5 -18 -7t-20 -7q-8 2 -26 2q-8 0 -16 -3q-7 -3 -16 -3t-16 5l-12 9h-16q-7 0 -16 -4q-34 2 -60 18t-48 32q-13 2 -20 9q-4 4 -8 6.5t-8 4.5q-10 8 -16 13t-10 9l-8 9q-2 2 -4 4.5t-4 4.5q-26 30 -38 67q-13 42 -28 79q-5 14 -10.5 28t-12.5 28q-13 28 -9 62q2 32 -2 52
q-4 21 -4 58q1 73 22 144l40 136q10 34 26 64t32 58q8 13 13.5 24t9.5 21q7 19 19 35q5 14 12 23q10 12 14 19q10 11 16 25q5 11 20 23q30 42 57 79t67 65l26 28l26 28q26 29 54 54q35 47 89 80.5t89 79.5q23 13 38 28q71 45 164 76q15 -4 40 -4q12 0 22 0.5t18 1.5
q23 -12 40 -28q6 -11 4 -22q-1 -10 8 -20q5 -17 14 -29q10 -13 6 -35zM290 190q22 -24 31 -35t17 -25q11 -4 18 -3q8 2 18 -3q7 -2 13.5 -4.5t13.5 -5.5q14 -6 29 -6l6 2l6 2t6.5 2t7.5 2q13 4 25 6q5 1 10.5 2t10.5 2q11 5 19 6t19 6q8 2 10 2q5 0 12 4q9 4 25 7q17 3 23 7
q17 14 36 36q9 9 16 21q3 5 6.5 10.5t7.5 10.5q6 8 11 12t11 12q6 17 13 24q6 6 11 18l11 18q2 4 5 8.5t6 9.5q10 18 20 44t12 48q4 28 5 63t-1 65q0 12 -2 29t-6 27q-1 3 -6 8q-2 2 -8 10q-4 6 -7.5 12t-5.5 12q-4 11 -13 20q-7 7 -12 8q-6 2 -12 6q-22 16 -41 22t-43 8
q-25 -10 -44 -14q-12 -7 -24 -12l-12 -4l-12 -4l-18 -12q-4 -2 -8 -4.5t-8 -5.5q-12 -10 -25 -19t-29 -13q-10 -12 -22 -19q-13 -8 -22 -17q-6 -6 -8 -14q-2 -9 -6 -16q-5 -10 -10.5 -20t-12.5 -20q-13 -19 -7 -42q-8 -26 -10 -41t-2 -25q1 -17 12 -34q9 -14 14 -32
q9 -7 16 -12.5t12 -10.5q13 -11 20 -15q3 -2 11 -5q6 -2 7 -9q2 -16 -21 -20t-39 2q-15 11 -17 15t-3 5q-11 6 -18 16t-18 16q-30 40 -38 56l-6 10t-5 10q-4 11 -15 18q-8 -64 0 -126t34 -112z" />
    <glyph glyph-name="seven" unicode="7" horiz-adv-x="884" 
d="M1244 1508q4 -9 -2 -17q-6 -7 0 -13q-4 -18 -7.5 -37t-6.5 -39q-6 -40 -22 -68q-12 -19 -23 -31q-7 -7 -12.5 -14.5t-10.5 -14.5q-15 -15 -20 -28q-24 -24 -45 -58t-45 -58q-17 -32 -48 -66q-14 -22 -32 -42t-36 -38q-18 -32 -33 -53q-15 -20 -33 -55q-9 -6 -18 -20
l-39 -44q-18 -20 -33 -40q-10 -15 -13 -17q-4 -2 -5 -5q-8 -15 -17 -22t-15 -18q-11 -11 -23 -22.5t-25 -23.5t-24.5 -25t-21.5 -27q-5 -7 -8 -9q-2 -2 -8 -9q-16 -13 -27 -34t-29 -28q-28 -31 -51 -69q-20 -34 -51 -71q-6 -12 -11 -21.5t-9 -16.5l-16 -28
q-10 -19 -21 -37.5t-23 -37.5t-23.5 -37.5t-22.5 -37.5q-7 -11 -13.5 -22.5t-12.5 -24.5q-12 -25 -28 -47q-6 -10 -10 -13q-6 -4 -6 -15q-5 -6 -9 -12.5t-8 -13.5t-7.5 -13.5t-7.5 -12.5q-29 -14 -56 -8q-15 -5 -19 -9t-21 -3q-21 -5 -32 -14q-14 -11 -34 -6q-14 4 -17 22
t3 34q3 8 12 20t12 20q4 16 7 27t9 21q3 7 9 17t9 17q7 9 13.5 18t13.5 19t13.5 18.5t13.5 16.5q16 22 30 44t26 50q26 37 41 69q8 17 17.5 33.5t19.5 31.5q50 80 102 153t118 131q10 4 19 12t19 18l13.5 13.5t12.5 13.5t12.5 13.5l13.5 13.5q8 10 13 14q6 5 11 16l16 16
q13 17 19 25q6 7 11 23q22 34 46 66t48 62q15 25 30 51t31 52t32 50.5t33 46.5q44 53 78 114q-11 6 -30 1q-18 -5 -28 1q-42 -3 -59.5 -3t-34.5 -1t-60 -8q-20 -4 -33 -8t-33 -12q-12 -4 -19 0t-17 0q-23 -6 -34 -18l-30 -12q-22 -4 -42 -10t-42 -14q-20 -5 -46 -7
q-23 -1 -46 -9q-45 5 -82 38q-26 8 -30 8q-6 0 -10 4l-16 7q-8 4 -12 5q-10 1 -19 0q-11 -2 -21 2q-9 4 -16 9t-16 9q4 5 2 11t2 11q14 24 44 31t58 11q22 5 40 12l21 3q5 1 11 2t12 3q10 2 20 4.5t20 5.5t20.5 5.5t21.5 4.5q9 2 19.5 4.5t21.5 6.5q23 8 45 9q13 0 20 -1
q10 -1 20 3q15 7 22 14l9 9q3 3 11 9q22 -8 30 -5t18 7q14 2 19 2q10 0 21 4q17 5 40 7l40 3q25 5 40 10q17 6 42 4q29 -3 50.5 -4.5t49.5 -1.5q30 8 60 5q28 -3 64 -1q14 1 27 2t24 2q23 2 47 0q8 -1 13 -7q5 -4 15 -3z" />
    <glyph glyph-name="eight" unicode="8" horiz-adv-x="936" 
d="M1248 1624l14 -10q0 -1 2 -11q2 -7 -2 -11q-4 -14 -14 -27t-20 -23q-10 -16 -19 -34l-19 -38q-12 -28 -9 -39q3 -9 1 -21q-1 -8 -5 -16q-1 -3 -3 -6.5t-4 -7.5q-3 -7 -7 -21q-3 -10 -9 -21q-6 -10 -9 -22t-5 -22q-10 -10 -16 -22q-7 -13 -16 -20q-6 -18 -18 -31t-26 -25
q-5 -6 -10 -12.5t-10 -13.5q-10 -13 -24 -24q-38 -49 -84 -100q-4 -7 -9 -12q-4 -4 -9 -12q-29 -29 -59 -64l-57 -66q-40 -32 -75 -67t-63 -75q17 -36 38 -61q22 -26 34 -67q11 -12 19 -32q4 -9 8 -17t9 -15q8 -27 11 -41q3 -17 11 -31q5 -33 12 -58q8 -16 9 -30t1 -34
q0 -48 -5 -99t-25 -93q-1 -13 -10 -22q-8 -8 -8 -18q-28 -42 -57 -68t-59 -50q-24 -4 -47 -14t-45 -20q-25 2 -42 -10q-17 -11 -40 -16q-19 -7 -39 -12t-31 -10q-28 -4 -55 -3q-27 2 -53 -3q-37 -4 -55 7q-19 12 -37 19q-4 10 -10 14q-7 5 -8 12q-20 18 -37 30
q-18 13 -37 36q-14 9 -20 24q-13 23 -21 27q-6 4 -11 15q-16 42 -23 88t-11 96q7 29 20 50q6 10 11.5 21.5t10.5 24.5q7 24 28 48q8 12 16 23t16 21q16 10 25 22q7 10 23 22q20 26 39 49t41 45q15 11 33 31t33 31q32 42 66 80t72 74q-5 16 -13 26q-4 6 -8.5 12t-8.5 12
q-4 8 -7.5 15.5t-5.5 14.5q-4 13 -11 28q-5 15 -12 25q-4 5 -8 12t-8 15q-7 18 -8 36q-1 20 -6 42q-1 5 -2 11.5t-3 13.5q-3 14 5 27q5 11 6 21q2 11 6 21l6 12t7 12q7 12 9 26q12 39 34 67q20 26 30 53q14 6 18 22q5 4 9 8l8 8l8 8t9 8q16 16 38 32q9 6 18 19q8 11 22 17
q30 26 77 39t93 3q2 -1 4.5 -2t4.5 -2q5 -2 11 -6q31 -7 58.5 -12.5t50.5 -10.5q50 -10 89 -25q8 -2 17 -6q8 -4 19 -4q10 -6 14 -10t14 -12q24 18 33 31q4 5 8 10.5t9 10.5q4 10 10 14q8 6 14 12q11 13 18 25q7 13 20 21q5 5 10 6t10 6q22 16 37 34t31 42zM904 1360
q-9 2 -18 3l-18 2t-17.5 2t-16.5 3q-32 -4 -77 -1q-43 3 -71 -13q-10 1 -17 -3q-8 -5 -17 -5q-6 -8 -10 -12t-10 -12q-16 -13 -27 -30q-10 -16 -27 -28q-14 -20 -26 -38t-22 -40q-2 -6 -2 -10t-2 -12l-9 -48q-5 -25 5 -46l9 -20q2 -5 4.5 -10t4.5 -10q16 -30 29 -57t23 -57
q5 1 12 10q6 8 20 6q4 6 20 10q16 10 22 16q4 6 7 11t7 15q7 12 13 18q8 8 15 18q16 18 34 34q18 26 25 33l19 19q10 10 19 22q5 6 9.5 12t9.5 12l39 39q10 10 20 19.5t21 19.5q5 11 16 22q10 15 24 28t20 34q7 6 12 20q-18 5 -36 12q-18 8 -36 12zM428 104q12 0 27 2t27 8
q9 5 18 20q15 12 17 18q2 5 5 8q15 20 30 35q8 8 16 17.5t16 19.5l22 29q5 7 10 13.5t10 13.5q16 36 22 77t4 77l-3 40l-2 18t-3 18q-17 58 -43 105l-49 91q-60 -46 -112 -97t-100 -107q-42 -40 -77 -91t-39 -125l4 -12t3 -12q3 -14 7 -22q13 -27 28 -52q16 -28 35 -58
t43 -48q20 4 44 4q23 0 40 10z" />
    <glyph glyph-name="nine" unicode="9" horiz-adv-x="842" 
d="M888 802q-13 -19 -20 -42q-7 -24 -18 -48l-25 -51q-7 -13 -14 -27t-15 -28l-21 -36q-10 -18 -15 -42q-28 -50 -55 -97t-57 -93q-18 -28 -36 -55t-40 -51l-8 -8t-8 -9q-5 -6 -14 -15q-8 -7 -15.5 -13.5t-15.5 -13.5q-7 -7 -15 -14t-16 -15q-3 -3 -7 -9q-3 -4 -9 -9
q-21 -14 -28 -26q-7 -11 -22 -18q-13 -19 -35 -33t-37 -29q-3 -5 -5 -8.5t-3 -5.5q-1 -3 -6 -8q-21 -10 -38 -20q-8 -6 -17 -12t-17 -10q-8 -2 -14 0t-12 -6q-4 3 -14 5q-9 2 -14 7q-6 11 -6 19q0 5 0.5 11t1.5 14q1 15 13 45q11 28 15 49q5 6 3 12q-1 6 3 12q8 5 12 12
q2 4 4.5 8t5.5 8q19 22 38 35q21 14 38 37q23 17 39 37q18 23 39 41q12 23 30 36q18 14 30 36q30 34 48 55t34 47q7 5 8 11q1 7 6 13q5 9 10 18.5t10 19.5l22 42q11 15 22 39q5 11 10 22.5t10 22.5q6 10 10 20l8 20q-9 -5 -17 -10.5t-15 -12.5q-11 -11 -30 -23
q-3 -2 -6.5 -4t-7.5 -4q-10 -6 -12 -8q-13 -6 -22.5 -10.5t-14.5 -7.5q-11 -6 -25 -8q-22 -8 -35 -6t-29 6q-22 4 -44 9t-40 19q-9 5 -16 14q-6 8 -16 12q-17 23 -40 36q-25 14 -44 36q-7 14 -20 26q-13 13 -20 28q-4 5 -4 15t-4 17q-4 10 -6 23t-4 29q-2 48 6 93t18 89
q6 11 11 22.5t9 24.5q7 24 24 41q11 28 34 46q5 11 11 16q5 4 13 14q10 16 20 29t24 25q31 31 51 59q11 16 23.5 30.5t25.5 28.5q39 27 62 48q10 10 20 14t28 10q8 2 14 5l14 7q48 18 102 10h38q21 0 28 -10q44 -6 71 -27q14 -10 28 -21t29 -22q6 -10 20 -22q13 -11 20 -24
q10 -17 16 -43q3 -13 6.5 -24.5t7.5 -22.5q8 -24 8 -45q0 -11 0.5 -22t1.5 -21q2 -8 3 -15.5t2 -15.5l3 -29q0 -22 -5 -47t-9 -43q-7 -38 -22 -72q0 -25 -10 -48q-4 -26 -10 -42t-14 -32q-16 -22 -18 -30q-1 -7 -10 -12zM820 1212q-9 18 -16 31.5t-12 23.5q-10 19 -16 35
q-3 4 -5 14q-1 3 -2 7t-3 9q-4 12 -16 19q-12 8 -18 19q-19 8 -36 3q-18 -5 -34 -5q-10 -6 -14 -11q-6 -7 -18 -9q-18 -22 -43 -37q-24 -14 -47 -37q-28 -28 -58 -74q-15 -12 -22 -24q-7 -13 -22 -26q-14 -27 -33 -47q-18 -19 -35 -49q-3 -43 -15 -84.5t7 -75.5
q13 -81 62 -136q12 4 24 -8q18 -4 42 -1q11 2 22 3l22 2q35 5 60 6t50 14q20 23 42 42q21 18 42 44q8 10 10 12t8 12q5 20 8 23q4 4 4 5q6 15 7 17q4 5 5 11q5 15 14 20q4 14 9 25.5t10 21.5t10 19.5t9 19.5q9 16 10 28q2 11 0 18q-2 10 -2 18q1 17 6 37q2 10 4 19.5t4 19.5
q-4 8 -9 15t-15 11z" />
    <glyph glyph-name="colon" unicode=":" horiz-adv-x="370" 
d="M258 752q5 -4 12 -6q7 -1 12 -8q10 4 20 0l20 -8q11 -20 22 -30q4 -22 5 -42t-5 -40q-14 -12 -20 -29q-6 -16 -20 -27q-12 -9 -27 -16q-13 -6 -23 -16q-26 -8 -45 -1t-31 17q-27 22 -26.5 61.5t18 77.5t40.5 55q12 4 23 7t25 5zM2 176q5 -4 12 -6q7 -1 12 -8q10 4 21 0
t21 -8q4 -8 9 -15t11 -15q6 -22 7 -42t-7 -38q-14 -14 -20 -31q-6 -16 -20 -27q-11 -10 -25 -16t-25 -16q-26 -8 -44 -1t-32 19q-24 22 -23.5 62t16.5 78t39 52q7 2 13 4t11 3q13 4 24 5z" />
    <glyph glyph-name="semicolon" unicode=";" horiz-adv-x="374" 
d="M262 752q5 -4 12 -6q7 -1 12 -8q12 5 21 0q5 -2 9.5 -4t9.5 -4q11 -20 22 -30q4 -22 5 -42t-5 -40q-14 -12 -20 -29q-6 -16 -20 -27q-12 -9 -27 -16q-13 -6 -23 -16q-26 -8 -45 -1t-31 17q-28 23 -27 62.5t19.5 77t41.5 54.5q21 8 46 12zM-90 -80q28 17 52 46
q-20 2 -38 14t-24 38q-4 26 3 59t21 45q5 8 12 15l14 13q14 12 28 17t32 -1q14 -2 18 -2q9 0 16 4q4 -2 7.5 -4t6.5 -4l12 -8q5 -20 11 -30q7 -13 7 -32q0 -21 -9 -44q-8 -21 -13 -44q-12 -6 -16 -22q-5 -17 -14 -32q-32 -29 -54 -58q-17 -5 -32 -14q-7 -7 -8 -12
q-1 -6 -8 -6l-18 22q-11 24 -6 29t0 11z" />
    <glyph glyph-name="less" unicode="&#x3c;" horiz-adv-x="1016" 
d="M156 642q26 17 25 22q-2 6 15 8q20 8 20 10q0 3 4 4q34 14 60 26t48 28q16 5 31 10.5t28 12.5q27 13 65 21q6 4 13.5 8t16.5 8l81 45q40 22 83 39l34 15q9 4 17.5 7.5t16.5 7.5q6 4 13 8t17 6q18 10 37.5 19.5t41.5 17.5q44 17 81 39q26 5 38 14q19 5 37.5 10t36.5 10
t38.5 8.5t43.5 5.5q13 0 20 -1q10 -1 10 -5q27 -1 35 -11q10 -12 17 -17q6 -14 -13 -25t-41 -21q-38 -18 -74 -35t-68 -25q-22 -8 -41 -15.5t-35 -15.5q-29 -14 -72 -25q-7 -2 -13.5 -4.5t-11.5 -6.5t-11.5 -7.5t-13.5 -7.5q-19 -14 -47 -26l-57 -24q-18 -7 -35 -14t-33 -14
t-34 -14t-38 -14q-22 -6 -32 -10t-18 -8q-18 -4 -30 -9q-13 -5 -28 -9q-16 -11 -40 -19t-40 -19l-6 -15t-4 -13q11 -4 16 -4q4 0 6 -2q11 -26 44 -48q17 -11 33 -22t31 -22q8 -8 24 -12q31 -19 51 -40q21 -22 63 -36q15 -7 20 -18q15 -1 20 -10q31 -10 36 -32
q-1 -13 -6.5 -39t-12 -50t-11.5 -31q-7 2 -18 0t-12 4q-29 -12 -37 -7q-10 6 -17 9q-33 11 -41 15l-19 9q-16 8 -24 18q-7 11 -24 18l-20 12t-21 12q-10 6 -19.5 12.5t-17.5 13.5q-11 10 -21 19.5t-19 17.5l-36 33q-26 12 -38 26q-4 7 -14 17q-9 9 -12 13q-4 28 -19 31
t-27 9q-10 4 -13 10t-7 10q-24 16 -28 22q-6 8 -10 12q-9 9 -15 14q-9 7 -7 14q4 16 34 22z" />
    <glyph glyph-name="equal" unicode="=" horiz-adv-x="946" 
d="M672 824q14 4 30 2q7 -1 14.5 -1.5t15.5 -0.5q18 2 31.5 2.5t22.5 -0.5t19 -1.5t21 -0.5q22 1 28 0q3 -1 6.5 -2t7.5 -2q15 0 30 -4h15q7 0 11 -4q10 -10 -4 -34q-11 -17 -26 -24q-4 -3 -13 -5q-10 -2 -17 -5q-2 -1 -4.5 -2t-4.5 -2q-5 -2 -11 -6q-12 -4 -20 -9t-20 -13
q-8 0 -15 -4q-8 -5 -13 -6q-8 -2 -13 -1t-15 1h-20q-6 0 -20 2q-20 0 -43 1t-43 5q-12 5 -24 3q-8 -1 -24 1q-10 1 -19.5 2.5t-18.5 2.5q-18 3 -40 -7h-11t-13 1t-13 1h-11q-19 2 -34 -2q-18 -4 -36 -6q-13 0 -18 1t-18 -1q-18 -4 -18 -3t-4 1q-24 -4 -41 -2q-13 1 -19 6
q-12 4 -19 13t3 31q6 17 19 27q7 5 12.5 10.5l10.5 10.5q17 15 22 17q4 1 8 7q12 -2 21 1q11 3 25 3q29 6 39 4q5 -1 9.5 -2t9.5 -2q26 0 40 2q10 1 20 0q17 -2 20 -1q4 1 10 -1q17 -4 37 -2q8 1 16.5 1.5t16.5 0.5q8 -1 15 -1.5t14 -0.5h25q13 0 20 1q11 2 18 -3zM804 610
v2l2 -32q0 -4 -8 -12q-30 -38 -58 -54q-28 -13 -36 -19t-20 -11q-4 -4 -11 -5t-11 -1q-8 -1 -16.5 -1.5t-17.5 -0.5h-34h-20t-20 1t-19.5 1h-18.5h-16.5t-16.5 -1t-16.5 -1h-16.5q-13 0 -18 1t-18 -1h-94h-12.5t-13.5 -1t-13 -1h-11q-15 2 -16 1t-6 -1q-6 -1 -12.5 -1.5
t-13.5 0.5t-14 1h-14q-16 0 -31 1t-25 7q-4 4 -10 12t-6 14q0 7 4 14q5 8 6 18q16 22 19 29q3 8 7 13q24 11 35 13q6 1 19 1q18 2 36 6q18 5 34 6q18 2 29 -2q14 -5 29 -6q16 -4 34 -3q9 1 17.5 0.5t16.5 -1.5q14 -1 27 -0.5t26 2.5q26 5 51 6h20q8 0 18 2q12 2 28 3t26 -3
q9 4 22 4h26q17 0 24 1q10 1 20 -3q12 0 25.5 0.5t29.5 1.5q31 1 53 0z" />
    <glyph glyph-name="greater" unicode="&#x3e;" horiz-adv-x="974" 
d="M964 666q-26 -17 -25 -23q1 -7 -17 -9q-16 -7 -16 -10t-4 -4q-36 -14 -62 -25t-48 -27q-34 -10 -60 -24q-28 -15 -66 -22q-11 -8 -28 -16q-22 -11 -42.5 -22t-39.5 -22t-39 -21t-41 -19q-9 -4 -18 -7.5t-19 -6.5t-18.5 -6.5t-16.5 -7.5q-4 -4 -11 -9t-19 -7
q-37 -20 -79 -36q-45 -17 -77 -38q-6 -2 -12 -3.5t-11 -3.5q-11 -3 -17 -9q-36 -10 -73 -20t-85 -16l-19 3q-10 2 -11 5q-28 1 -34 11q-7 11 -16 17q-8 16 12 27t42 19q20 9 38.5 18t35.5 17q36 17 68 27q43 13 76 29q16 8 33.5 14t36.5 11q16 4 27 11t23 15q19 16 49 27
q14 5 28.5 11t28.5 12q17 7 34 14.5t33 14.5q34 15 73 27q20 6 30 10t18 8q16 4 31 9q7 2 14 4.5t15 4.5q18 13 40 20t40 20q1 5 2 8.5t2 5.5q2 5 6 12q-11 4 -16 4q-4 0 -6 2q-12 26 -45 48q-16 11 -31.5 22t-29.5 22q-8 8 -26 12q-29 19 -51 41t-63 35q-21 11 -22 18
q-30 17 -42 24q-13 8 -14 18q2 14 7 40t11 49.5t12 30.5q10 -1 20 0q11 2 12 -4q29 11 36 6q4 -2 8.5 -4t9.5 -4l60 -24q16 -7 24 -17t24 -17q21 -15 41 -26q11 -6 20 -12.5t17 -13.5q20 -18 39 -36t37 -36q24 -10 36 -24q4 -5 14 -15q8 -7 12 -15q4 -27 21 -32q8 -2 15 -4
t12 -4q9 -5 11 -10q3 -6 7 -10q13 -6 15 -8t5 -2q8 -8 18 -24q8 -6 16 -14t6 -14q0 -15 -32 -20z" />
    <glyph glyph-name="question" unicode="?" horiz-adv-x="908" 
d="M802 1360l-6 18q-86 -18 -163 -42t-147 -58q-9 -9 -24 -14q-14 -5 -18 -16q-8 -13 -12 -22q-4 -10 -14 -14q-6 -16 -9 -19q-4 -4 -5 -7q-6 -14 -10 -18q-5 -5 -6 -10q-6 -14 -13 -21q-5 -5 -11 -15q-4 -10 -6 -27t0 -27q5 -25 22 -38l28 -4q15 -2 28 -6q20 -6 31 -2t17 8
q15 8 31.5 16.5t33.5 17.5q33 17 57 38q4 8 8.5 16t8.5 15q10 16 11 37q1 7 1.5 13.5t-0.5 13.5q-1 14 3 27q19 8 20 4q2 -4 6 -6q14 -22 22 -56t6 -64q0 -14 -7 -33t-13 -29q-5 -7 -13 -12q-12 -8 -17 -12q-25 -18 -33 -21q-7 -3 -11 -13q-50 -28 -101 -53t-101 -47
q-16 2 -24 1t-22 -1q-38 5 -72 28q-14 6 -22 27t-14 37l-9 30q-5 15 -5 32v17t1 19t1 19v17q0 53 14 90q5 10 7.5 16.5t3.5 8.5l3 9q15 46 53 66.5t77 51.5l30 12q14 5 20 14q5 2 10.5 4t10.5 4t10.5 4t10.5 4q12 7 23.5 14.5t22.5 14.5q11 8 23.5 15t26.5 14q11 5 23.5 10
t25.5 10q14 5 26 10t23 10q7 10 21 13q7 2 14 3.5t15 3.5q14 4 24 6t20 -4q17 6 33 6q19 0 31 4q14 6 20 5q4 -1 12 1q2 0 10 2t12 2q10 0 19 -0.5t16 -1.5q8 -1 17 -2t20 -2q35 0 60 -6l13 -3q8 -1 11 -5q6 -6 10 -11t12 -11q6 -5 11.5 -9t9.5 -8q9 -7 19 -19l11 -19
q4 -6 7 -9q5 -8 10 -24q11 -21 27 -43q15 -22 11 -51q6 -19 1 -40q-5 -22 -5 -44q2 -28 -8 -40q-8 -11 -16 -26q-4 -11 -7.5 -19t-6.5 -13l-12 -20q-4 -20 -12 -35t-18 -29q-32 -43 -54 -58q-12 -16 -28 -27t-36 -21q-5 -3 -10.5 -6t-12.5 -5t-13 -5l-12 -6q-26 -18 -46 -38
q-6 -4 -12 -7.5t-13 -7.5t-13 -7.5t-12 -7.5q-15 -5 -27 -14q-13 -9 -25 -16l-29 -19q-11 -7 -31 -19l-30 -18t-31 -18q-30 -17 -59 -40q-18 -13 -35 -29q-15 -14 -35 -27q-17 -18 -18 -22q-1 -2 -2 -5t-2 -7q-31 -54 -48 -90q-9 -17 -16 -43q-3 -11 -6.5 -22.5t-7.5 -22.5
l-8 -20q-2 -5 -4.5 -10.5t-5.5 -11.5q-7 -24 -14 -38l-4.5 -13.5t-5.5 -17.5q-6 -19 -20 -19q-1 -7 -8 -12q-8 -6 -10 -8q-22 -5 -41 -16q-21 -12 -47 -6q-12 -10 -26 -12q-13 5 -16 7q-5 3 -14 -1q-18 11 -18 33q0 24 12 37q24 58 45 100t49 82l4 6t4 5t4 5l4 6q4 9 4 21
q0 11 8 19q14 43 36 74q20 28 38 72q4 4 7 10t7 10q2 14 5 17t3 7q29 22 68 28t72 22q32 23 51 33q18 10 37 27l76 60q19 17 39 34.5t40 35.5q41 36 75 78q8 10 16 24l16 28q10 21 16 56q4 28 6 57t-14 51q-14 10 -20 18q-4 6 -10 10q-11 7 -17.5 11.5t-8.5 5.5q-7 5 -8 5
q-3 3 -10 5q-8 2 -12 5q-6 6 -20 10zM202 168q4 4 11 1t11 -5q22 4 38 -6q14 -18 17 -22t9 -14q10 -12 17 -26t-3 -34q-13 -20 -14 -29q-2 -10 -6 -17q-7 -11 -24 -22q-8 -22 -28 -29t-48 -15l-6 -2l-6 -2q-8 -2 -10 -2q-22 -1 -37 12q-7 7 -14.5 13t-14.5 11q-16 37 -10 80
q4 24 14 44t20 38q47 6 84 26z" />
    <glyph glyph-name="at" unicode="@" horiz-adv-x="1590" 
d="M260 212l-8 12q-15 23 -20 56q-4 30 -24 54l-23 75q-10 35 -21 75q4 6 3 13t3 13q-8 48 -4 94q2 14 2 20v22q10 110 49 213t93 189q0 19 12 26q20 38 48 71t56 65q10 12 23 27t29 27q18 16 36.5 31t37.5 29q11 8 22.5 15t22.5 14l45 27q18 18 40 30t46 24q16 16 44 20
q29 5 54 12q8 4 23 10t19 -6q15 10 36 13q10 2 20.5 3.5t21.5 3.5q10 2 26 4t26 -4q18 4 36 3t34 -5q16 4 33 0t33 -8q8 -2 16.5 -3t16.5 -2l16 -2t15 -3l56 -20t54 -18q52 -26 94 -56t80 -70q0 -8 4 -12q5 -4 6 -12q24 -18 35 -47q5 -14 11.5 -28.5t13.5 -28.5
q18 -41 30 -88q10 -34 15 -68t9 -72q2 -10 1 -16q-1 -5 1 -16q0 -12 1 -17t1 -17q0 -24 -6 -53l-12 -59q-6 -28 -16 -58t-20 -52q-4 -20 -13 -36t-19 -32q-21 -33 -35 -76q-13 -40 -39 -70q-6 -23 -19 -33q-7 -5 -13.5 -11.5l-13.5 -13.5q-7 -8 -14 -14.5t-14 -11.5
t-14 -11.5t-14 -14.5q-13 -2 -20 -12t-18 -16q-18 -13 -36 -20q-22 -15 -43 -20q-19 -4 -33 -12q-24 2 -45 11t-39 19q-15 9 -28 21t-28 21q-51 60 -58 136q-12 -10 -19 -25q-8 -16 -19 -23q-6 -13 -19 -28q-5 -6 -10.5 -12.5t-10.5 -13.5q-7 -5 -13.5 -9t-13.5 -8
q-15 -8 -25 -17q-16 -5 -24 -10q-9 -5 -28 -10q-9 -1 -24 -8t-26 -8q-14 -2 -22 -2h-22q-12 0 -31 3t-29 9q-18 16 -26 18q-7 1 -12 8q-4 5 -6 9q-2 5 -6 11q-3 3 -7 9t-7 9q-18 28 -29 66t-15 78q2 43 7 86.5t13 87.5q4 24 12 52t18 56q5 20 11 30q4 7 6.5 13.5t4.5 12.5
q5 12 18 28q11 21 18 26q6 4 10 10l4 6t4 5t4 5l4 6q10 10 17 23q4 7 7.5 13t7.5 12q14 14 31 36t31 36q25 9 36 28q13 5 20 12q21 7 34 22q13 16 36 22q17 5 31 6q13 1 33 8q20 4 30 2q12 -2 23 -8t21 -12q12 -10 23.5 -19t22.5 -17q22 -16 32 -44q7 13 9 26t11 22
q10 10 20 13t20 13q14 0 28 2q12 -12 23 -30t15 -40q4 -8 6 -14t0 -14q0 -10 -4 -19t-8 -17q-8 -8 -14 -18q-2 -6 -4 -13t-4 -15l-15 -46q-4 -12 -7.5 -24t-7.5 -24q-7 -20 -15.5 -40.5t-18.5 -41.5q-20 -44 -26 -82q-12 -60 -18 -122q-8 -48 9 -83t49 -61q14 -8 32 0
q19 8 34 12q12 5 21 6q8 1 19 6t21 19t17 23q13 12 20 21q8 11 18 21q5 10 10.5 19.5t11.5 18.5q13 19 20 38q3 5 7 15q2 4 9 17l7 14l7 14q10 22 15 50t9 56q5 44 0 88q-4 44 0 84q-4 16 -3 34t-3 34q-14 98 -66 165t-110 127q2 20 -12 23q-7 2 -14.5 3.5t-15.5 3.5
q-7 2 -14.5 4.5t-15.5 5.5q-14 5 -32 10q-17 4 -38 4q-18 4 -39 7t-43 -3q-24 8 -50 3t-52 -13q-7 -2 -13.5 -3.5t-13.5 -3.5q-7 -1 -14 -3t-15 -4q-15 -5 -27 -13q-7 -4 -14 -8.5t-15 -8.5q-5 -2 -10.5 -4t-10.5 -4t-10.5 -4t-10.5 -4q-12 -7 -23 -17q-9 -8 -25 -15
q-10 -4 -20 -10t-20 -10q-9 -5 -15.5 -9t-11.5 -8q-4 -4 -8 -6.5t-7 -4.5q-6 -4 -11.5 -7.5t-10.5 -6.5q-9 -5 -20 -16q-22 -10 -40 -30t-40 -30l-9 -9q-3 -3 -11 -9q-16 -24 -31 -46t-33 -44q-22 -22 -28 -38t-16 -32l-10 -13q-4 -5 -10 -15q-10 -16 -15 -36
q-2 -10 -5.5 -20t-7.5 -20q-14 -28 -20 -55t-10 -57q-2 -8 -3 -15t-2 -13t-2 -12.5t-3 -13.5q-11 -73 -4 -140q1 -9 1.5 -17t-0.5 -16q-1 -14 5 -31q6 -10 10 -24q5 -12 6 -24q1 -11 6 -22q5 -12 9 -23t7 -21q21 -43 34 -63t50 -49q7 -6 13.5 -12t12.5 -13q12 -13 28 -25
q3 -2 6.5 -4t7.5 -4t8 -4.5t8 -5.5q16 -10 34 -20t38 -20q7 -4 19 -14q9 -7 21 -12q24 -7 51 -9l55 -3q4 -1 7.5 -2t6.5 -2t6.5 -2t7.5 -2q8 -2 14 -1t14 -1q20 -14 34 -14l16 -7q6 -3 16 -3q22 -14 56.5 -9t70.5 13.5t63 3.5q12 4 23 6t21 -2q1 -16 -6 -28
q-4 -6 -7.5 -11.5t-6.5 -10.5q-19 -11 -46 -20q-12 -4 -19.5 -7.5t-11.5 -5.5q-10 -6 -17 -7q-17 -1 -34.5 -4.5t-35.5 -8.5t-33 -9.5t-27 -7.5q-11 -4 -27 -2q-7 1 -14.5 1.5t-16.5 0.5h-26q-10 2 -22 4t-26 2q-16 1 -31 0q-15 -2 -29 0q-9 1 -20 3.5t-24 6.5
q-31 10 -50 12q-11 3 -22 7.5t-22 9.5t-22 9.5t-22 7.5q-16 4 -31 8t-27 8q-12 12 -18 12q-7 0 -12 4q-28 30 -46 46q-19 18 -26 38q-35 27 -66 72zM948 1020q-16 -6 -23 -9t-17 -13q-4 -4 -11 -7t-11 -7q-4 -5 -7.5 -10t-6.5 -10t-6.5 -10t-7.5 -10l-12 -8t-10 -10
q-9 -10 -14 -29q-5 -17 -20 -27q-6 -17 -12.5 -31.5t-13.5 -27.5q-13 -25 -24 -57q-12 -37 -34 -72q-8 -25 -11 -46q-3 -28 -7 -42q4 -14 -1 -37t-1 -37q5 -13 10 -22t10 -22q12 -16 33 -20t43 -8q10 4 18 7t20 5q26 20 50 40t40 50q26 22 46 54q2 16 11 32t17 30
q12 25 19 30q6 5 11 16q3 5 5 16q2 12 5 16q4 6 7 13t5 13q5 21 10 41.5t10 39.5q5 20 10 39.5t10 39.5q-18 -4 -31 -3q-7 1 -14 0.5t-15 -1.5q-24 12 -20.5 44t-1.5 62q-13 4 -30 -2z" />
    <glyph glyph-name="A" unicode="A" horiz-adv-x="1200" 
d="M1026 1458q-2 -10 -2 -14t-2 -10q22 -40 25 -94q2 -27 3.5 -53.5t3.5 -52.5q10 10 18 19t16 19q10 10 16 19q3 5 6.5 9.5t7.5 9.5q6 10 11 14t13 12q5 5 10 10.5t10 11.5t10 11.5t10 10.5q8 11 15 18q8 8 15 18q8 10 16 20.5t16 20.5q17 22 38 33q19 -5 20 -6q2 -2 6 -2
q26 -8 31 -24t5 -30q0 -10 -2 -24t-6 -24q-2 -6 -4.5 -12t-5.5 -11q-6 -10 -6 -21q-2 -12 -5 -25t-11 -19q4 -28 -11 -46q-14 -17 -25 -34q-9 -13 -14 -26q-9 -12 -10 -19q-1 -8 -12 -19q-5 -7 -17 -15q-14 -10 -19 -15q-16 -20 -24 -28l-10 -10q-10 -11 -16 -25
q-6 -13 -16 -23q-8 -10 -13 -13t-11 -11q-3 -4 -7 -14q-1 -4 -3 -8l-4 -8t-4 -7.5t-4 -6.5l-8 -12q-4 -7 -6 -16q-2 -8 -8 -16q-15 -25 -28 -52q-5 -10 -10 -25t-10 -25q-2 -6 -4.5 -12t-5.5 -11q-4 -7 -10 -21q-9 -18 -17 -47t-17 -47q-4 -9 -7.5 -18t-6.5 -18
q-6 -19 -16 -34q-10 -36 -18 -74q-4 -18 -9.5 -36.5t-12.5 -37.5q-14 -40 -27 -83t-25 -85q-10 -48 -15 -90t-1 -90q13 0 23 -6q11 -6 23 -2q8 1 20 10t24 14q7 3 17 5q6 1 11 9q27 8 40 24q23 6 40 19q9 7 18 12.5t18 10.5l40 24l20 8t18 12q5 5 16 12l18 12q20 6 32 15
t16 13q9 -2 25 8t27 10q5 -3 16 -5q10 -2 14 -5q-2 -10 -1 -15t1 -13q0 -4 -11 -18t-15 -18q-6 -8 -23 -22t-27 -18q-11 -24 -29 -39q-10 -8 -18.5 -16.5l-16.5 -16.5q-20 -10 -38 -26t-32 -30q-51 -31 -98 -63q-47 -33 -106 -63l-46 -21q-22 -10 -54 -15q-18 -1 -31 3
q-7 2 -14 4.5t-15 4.5q-12 35 -36 60t-24 64q-2 6 0 14l4 16q2 8 2 12t2 14l9 43q5 21 9 45q-2 32 3 56q2 12 4 25t3 27q-11 -5 -15 -11t-15 -11q-16 -18 -35 -34t-43 -28q-25 -17 -50 -38t-52 -36q-22 -20 -45 -38t-47 -35q-24 -16 -47.5 -33.5t-46.5 -35.5q-18 -7 -31 -13
q-15 -7 -35 -9q-22 -12 -41 -3t-35 19l-21 18q-9 8 -21 18q-23 37 -33 67q-9 28 -31 53q-3 15 -16 32q-5 23 -7 48l-3 46q1 43 17 82q8 19 14 36.5t11 33.5q2 8 2 12t2 12q2 6 5 14t7 16q5 19 10 30t10 30q5 11 6 16q2 6 6 12q11 18 15 36q2 9 5 18l6 18q16 52 35 103t47 97
q6 8 9 11t9 11l42 66q11 15 22.5 29.5t24.5 27.5q13 14 24.5 27.5t22.5 27.5q14 13 26.5 27t23.5 29q24 32 50 54q5 12 14 19t14 19q17 11 31 30q14 18 33 30q38 42 78 81q20 20 40 39.5t40 39.5q35 5 46 26q28 18 63 38t69 30q10 4 27 -2l29 -10q30 -6 40 -19
q11 -13 20 -23zM204 340q5 -19 9 -36t8 -32q8 -33 19 -64q9 -5 10 -11t12 -11q8 -4 24 -5t22 1q10 4 20 10q14 6 30 17t30 17l40 16q20 4 35 12t31 18q43 24 79 53q20 16 39 29t38 24q52 64 99 142t63 182q2 24 5 39t7 31q3 9 7 27q3 16 7 25q17 54 24 98q4 23 9.5 45.5
t12.5 44.5q6 16 11 33t9 31q12 14 11 20q-1 4 1 10q6 13 8 17q3 4 8 17q8 20 16 49t8 51q-6 34 -9 46t-9 28t-18 41t-28 29q-22 4 -42 -17q-10 -10 -17.5 -18t-12.5 -13q-4 -4 -11 -7q-6 -2 -11 -9q-6 -6 -9 -10t-11 -12q-11 -11 -18 -22l-36 -44q-10 -10 -16 -22t-16 -22
q-6 -7 -12 -13.5t-12 -12.5q-12 -12 -18 -28q-24 -17 -42 -40q-10 -12 -18 -24t-14 -26q-16 -7 -25 -24q-8 -15 -21 -26q-19 -17 -21 -23q-3 -7 -7 -11q-30 -36 -55 -76t-47 -82q2 -7 -2 -11t-4 -15q-12 -16 -22 -38q-4 -8 -7.5 -15.5t-5.5 -15.5q-2 -7 -5 -15l-6 -16
q-2 -4 -3.5 -7.5t-3.5 -6.5q-4 -8 -7 -12q-4 -12 -8 -23t-8 -21q-8 -21 -24 -40q-3 -5 -5 -17t-5 -17q-4 -10 -9 -18q-4 -7 -9 -18q-3 -7 -7 -21t-7 -21q-7 -11 -14 -18q-5 -6 -6 -13t-6 -13q-13 -13 -20 -18q-9 -7 -16 -22q4 -4 7 -14q3 -11 7 -16z" />
    <glyph glyph-name="B" unicode="B" horiz-adv-x="1106" 
d="M798 708l-18 -4q8 -12 24 -15q14 -3 26 -11q8 -2 14.5 -3t10.5 -2l19 -3q14 -14 16 -14q1 0 0 -4q26 -24 48 -54q4 -6 7 -21q3 -16 7 -25q3 -7 5 -20l3 -20q4 -31 -4 -62q-8 -30 -12 -56q-10 -13 -10 -28q0 -16 -4 -28q-1 -4 -5 -12q-4 -7 -5 -14q-6 -29 -19 -49
q-7 -10 -12.5 -21t-10.5 -22q-2 -14 -6 -26q-5 -12 -6 -22q-2 -8 -9 -14q-8 -6 -3 -14q-16 -7 -16 -24q-6 -6 -11 -9q-6 -4 -11 -15q-25 -17 -37 -29q-4 -4 -9 -8.5t-10 -8.5q-7 -4 -15 -12q-7 -7 -15 -12l-6 -4t-7 -4t-7 -4l-6 -4q-14 -10 -28 -19t-30 -19q-12 -6 -21 -12
q-8 -5 -19 -10t-23 -6t-23 -6q-40 -6 -78 6t-66 26q-23 11 -49 18q-28 8 -47 24q-32 26 -46 67q-14 42 -36 77q2 15 -5 22q-6 6 -13 18q-3 7 -9 17q-3 5 -9 13q-4 15 -6.5 23.5t-3.5 10.5q-25 -5 -32 -27q-8 -23 -20 -43q-2 -12 -7 -21t-11 -19q-4 -9 -4 -18q0 -7 -8 -12
q-25 -2 -26 -12t-12 -8q2 -14 -6 -25q-8 -12 -4 -25q-1 -8 -7 -16q-5 -7 -9 -16q-14 -6 -37 -10t-33 10q-38 8 -38 28q0 7 5 12t1 14q12 29 34 57q20 27 32 57q8 14 16 28.5t15 28.5q8 14 15.5 28.5t15.5 28.5q16 34 34 62q9 14 17 29.5t15 32.5q7 15 2 26q20 59 48 108
q29 50 54 102q11 38 28 69q20 36 32 69l39 74q8 16 17 32.5t18 33.5q15 19 19 35q4 18 17 29q5 11 9 18q5 8 9 18q16 38 30 59q14 20 18 41q10 10 19 27t17 33q2 5 4.5 11t6.5 13q6 11 13 30q7 11 10 22q10 10 14 23q4 12 12 23q-14 14 -34 6t-38 -18q-34 -14 -64 -30
t-58 -32t-59 -22l-57 -12q-16 11 -21 3q-4 -7 -15 -1q-4 0 -9 -3q-4 -3 -15 -3q-6 11 3 15q9 5 11 13q47 29 96 51q50 23 96 51q25 15 47 27t41 21q42 20 76 42q23 8 44.5 16.5t40.5 18.5q37 18 91 23q23 14 50 11q29 -3 52 7h18t21 1t22 0.5t21 -1.5q46 -2 71 -4t47 -8
q4 -1 8.5 -2t8.5 -2q5 -1 9 -2l8 -2q11 -4 22.5 -7.5t22.5 -5.5q23 -4 39 -15q30 -26 45 -43t21 -41q12 -29 22 -50q11 -22 12 -48q2 -14 1 -22q-1 -6 -1 -12.5v-13.5q-1 -18 0 -37t0 -41q-4 -46 -26 -94q-10 -21 -13 -44q-3 -21 -17 -40l-19 -35q-4 -7 -7.5 -13.5
t-7.5 -13.5l-9 -8q-6 -6 -7 -12q-25 -20 -42 -37q-19 -19 -48 -31q-20 -20 -45 -37t-49 -33q-8 -6 -13 -9q-10 -6 -19 -7q-16 -4 -27 -6q-12 -2 -29 -6q-24 -2 -48 -6t-46 -8zM662 778v6q29 12 56 25q14 7 28 12.5t28 10.5q16 4 30 8t26 10l30 18q4 2 8 4.5t8 5.5
q14 7 23 16t21 16q6 5 12 9t11 8t11 8t12 9q8 7 17 11t17 11q15 15 23 30t23 28q10 20 18 40t14 42l12 35q3 8 5.5 16.5t4.5 16.5q1 19 5 28q3 7 1 16q0 8 -4 16t-8 14q-10 23 -24 42q-12 18 -26 40q-18 14 -43 27t-55 3q-4 4 -14 5t-14 -3q-22 3 -57.5 -2t-52.5 -10
q-3 -3 -8 -11q-2 -4 -4 -7l-4 -6q-10 -18 -19 -25q-9 -8 -19 -23q-8 -10 -14 -18t-10 -18q-10 -4 -13 -10q-4 -8 -7 -12q-11 -5 -12 -16t-10 -16q-16 -24 -23 -41t-17 -45q-8 -15 -15 -29l-14 -28l-27 -55q-2 -6 -4 -11.5t-4 -10.5l-8 -20q-4 -7 -14 -19q-4 -4 -8 -9l-8 -10
q-22 -34 -37 -68q-14 -32 -35 -66q-22 -33 -42 -66t-38 -66q-10 -7 -9 -18q1 -9 -11 -14q-8 -11 -14.5 -19.5t-11.5 -14.5l-8 -16t-8 -18q-3 -5 -6 -10.5t-7 -10.5q-5 -7 -11 -21q-11 -25 -22 -43l-22 -39q-2 -4 -4 -7.5t-4 -6.5l-8 -12q-4 -15 -6 -17q-3 -3 -4 -5
q-2 -11 2 -17l8 -15q2 -8 2 -11t2 -11q4 -11 7.5 -18.5t5.5 -12.5l5.5 -11t7.5 -16q4 -7 6 -14q2 -6 6 -12q2 -4 4 -7.5t3 -6.5l7 -16q12 -24 30 -42q18 -17 34 -40q17 -12 41 -10q23 2 45 0q20 8 41 3q23 -5 41 -5q6 1 11 5q5 3 11 -1l25 12q7 3 13 6l12 6q9 8 18 15l18 14
q18 14 30 33q3 3 7 9q2 2 3.5 5t3.5 6q8 10 13 21t9 23q22 22 34 43q13 22 28 39q5 17 16 28q13 13 14 32q0 38 -6 57t-12 37q-4 7 -4 17t-4 17q-8 12 -14 22.5t-11 18.5q-9 17 -21 27q-7 4 -17 4t-17 4l-44 16t-48 12q-10 6 -18 12q-6 5 -18 10q-8 13 -18 14q0 12 -10 16
t-14 14q-4 9 -4 22q0 12 -6 22q11 6 24 5q14 -1 24 9q15 0 28 5t28 9q13 2 22 -1q10 -3 20 3z" />
    <glyph glyph-name="C" unicode="C" horiz-adv-x="1056" 
d="M1208 1468q4 -18 20 -28l3 -33q1 -8 2 -16.5t3 -16.5v-17q0 -9 6 -15q-6 -72 -19 -115q-7 -22 -12.5 -47t-10.5 -52q-1 -7 -5 -19q-3 -9 -3 -19q-2 -10 -1 -14t-1 -14q-5 -14 -12 -26q-4 -7 -8 -14.5t-8 -15.5q-32 -58 -71 -110t-97 -80q-24 -11 -37 -19q-14 -8 -37 -13
q-14 -8 -33 -17t-37 -13q-7 -4 -16 -4q-6 0 -16 -2l-17 -7q-4 -1 -7 -2.5t-6 -2.5q-15 -4 -24 -4q-14 2 -20 17t-6 31q-9 9 -18 14t-14 22q-6 22 -8 24q-3 3 -4 6q-10 28 -7 63t15 57q5 11 12 15q9 5 10 15q15 9 28 21t28 21q18 32 46 52q25 17 50 38q9 7 13 14q6 9 15 16
q7 7 14 11q10 6 14 9l16 16q7 4 16 4t16 4q28 4 28 -3v-15q-18 -11 -52 -20q-5 -17 -17 -24q-10 -6 -23 -22q-4 -5 -7.5 -9.5t-5.5 -9.5q-4 -8 -19 -13q-11 -26 -25 -41q-16 -17 -29 -35q0 -22 -9 -37t-19 -31l-8 -16t-4 -12q1 -2 2.5 -4.5t2.5 -6.5q3 -8 7 -13q3 -4 9 -10
t7 -10q48 30 95 60t81 72q10 18 19 35t19 37q4 20 12 38t18 36q10 20 18 40t10 42q1 8 1.5 16.5t-0.5 18.5q-1 18 5 29q-4 11 0 27q4 14 2 33q-14 30 -28 35t-30 9q-16 -10 -34 -22t-34 -26l-12 -12t-13 -12q-14 -12 -21 -28q-26 -28 -42 -49t-32 -43q-31 -20 -62 -48
t-62 -48q-26 -20 -51 -41t-47 -43q-10 -11 -20.5 -21t-21.5 -20q-23 -20 -40 -41q-31 -43 -70 -90q-11 -11 -18 -22q-7 -12 -18 -24q-10 -10 -19 -22q-4 -6 -8.5 -11.5t-8.5 -10.5q-4 -7 -10 -21t-10 -21q-20 -24 -39 -49t-33 -57q-23 -30 -37 -63q-7 -16 -14 -31t-15 -30
q-4 -27 -15 -50t-15 -50q-1 -7 -3 -13.5t-4 -13.5l-4 -14t-3 -15q-4 -12 -4 -29q0 -16 -4 -27q-12 -25 -12 -37q0 -11 -10 -17q6 -16 11 -28t15 -24q5 -8 12 -14t12 -14q8 -20 13 -24t13 -10l15 -10t17 -8q11 -4 21 -3q7 1 21 -1q13 0 18 -1t18 1q16 4 38 9t40 9q28 8 55 16
t51 18q26 11 42 28t36 28q32 24 45 39q14 15 29 25q14 18 16 18t4 2q7 8 13.5 15t13.5 14t13.5 14t13.5 15q24 11 36 26q17 6 27 16q5 5 11 10l12 10q15 11 22 18q8 8 15 16t15 18q5 5 12 9q9 6 16 15q3 4 8 16q4 10 14 10q12 2 26 -11t14 -27q-19 -30 -20 -34
q-15 -22 -30 -38q-8 -9 -16 -19t-16 -21q-16 -18 -32 -37t-30 -41q-12 -20 -31 -39q-8 -8 -17 -17.5t-18 -19.5q-23 -25 -51 -52q-24 -22 -47 -58q-13 -13 -20 -19t-20 -19q-11 -6 -19 -13t-19 -13q-20 -7 -40.5 -16.5t-40.5 -20.5q-43 -24 -91 -37q-11 -3 -22.5 -6.5
t-22.5 -7.5q-22 -7 -51 -6q-6 2 -10 2t-12 2q-10 1 -25 8t-29 8q-10 0 -18 -3q-7 -3 -18 -3q-44 28 -71 47t-49 45q-19 29 -22 33t-6.5 8t-7.5 9q-16 23 -32 54q0 7 -5 14q-3 4 -9 14q-10 33 -10 71q0 19 0.5 37t1.5 36q1 10 0 19q-2 12 -2 19q0 16 6 34q3 9 5.5 17.5
t4.5 16.5q12 44 27 83t35 73q18 25 27 46q5 11 9.5 22.5t9.5 23.5q10 22 20 43t22 43q10 20 21 40t29 36q6 22 18 37q6 8 12 15.5t12 15.5q10 14 20.5 27t20.5 25q20 22 37 54q16 12 29 26t25 28q7 8 13.5 15t13.5 14t13.5 14t13.5 15q8 6 15 13l13 13q14 16 28 28t30 24
q14 6 34 22l18 18t17 19t17 18.5t18 16.5q28 28 58 55t64 49q20 22 48 37t56 29q16 6 27 11t25 13q23 14 32 15q10 1 16 9q25 0 42 7t40 1q7 -1 14 -5q8 -4 12 -5q38 -4 54 -12t31 -15t35 -9z" />
    <glyph glyph-name="D" unicode="D" horiz-adv-x="1128" 
d="M548 1168q-54 -18 -102 -39t-92 -49q-15 -12 -24 -23t-24 -23q-40 -30 -84 -30q-18 10 -22 20q16 40 39 67t47 55q39 25 76 58l36 32q9 8 18.5 14.5t19.5 11.5q28 14 53 27t49 29q36 28 81 50t87 42q22 10 43 18t43 12q11 3 22.5 5.5t23.5 4.5q23 4 46 12q16 2 31.5 5.5
t29.5 8.5q26 10 63 8q6 0 12 -2q2 -1 5 -2t7 -2q26 0 37 -4t21 -8q16 -6 36 -17l34 -19q9 -5 16 -12q4 -4 14 -12q17 -10 21 -15l11 -11q11 -11 19 -15q9 -4 7 -19q4 -11 8 -21.5t8 -21.5q8 -22 8 -45q0 -10 -3 -20t-7 -20q-2 -7 -3 -13.5t-2 -12.5q-2 -12 -7 -22l-9 -55
q-4 -27 -9 -57q-2 -14 -2 -22t-2 -22q-2 -13 -5.5 -25.5t-8.5 -23.5q-10 -21 -10 -45q-12 -42 -26 -67t-30 -51q-22 -32 -34 -63q-13 -34 -30 -69q-3 -4 -5 -14t-5 -14q-19 -23 -20 -30t-6 -18q-6 -14 -13 -31t-13 -33q-5 -7 -12 -22q-6 -12 -15 -24q-4 -6 -9 -12.5
t-10 -13.5q-64 -100 -140 -180q-52 -52 -105 -92q-56 -43 -109 -88l-40 -33q-17 -15 -44 -33q-5 -4 -10.5 -7.5t-10.5 -6.5q-12 -7 -21 -16q-30 -29 -80 -52q-24 -6 -30 -9t-10 -3q-11 -4 -24 -4q-8 0 -24 -2q-4 0 -12 -2t-14 -2q-15 1 -33 8q-8 3 -16.5 5.5t-16.5 4.5
q-4 1 -7.5 2t-6.5 2t-6.5 2t-7.5 2l-26 14q-6 3 -12 6.5t-12 7.5q-29 7 -36 22q-7 16 -16 26q-6 19 -10.5 36t-8.5 32t-8 32t-9 36q-4 14 -7 25t-1 25q1 8 8 22l12 24q15 27 25 57t25 57q4 4 7 10t7 10q6 12 11 24t9 22q16 34 33 67t37 65q22 38 37 63t37 47q12 33 30 61
t30 61q13 18 21 38q10 26 19 42q18 43 32 68l8 12t6 14q12 35 30 70q18 37 31 61zM988 1332q-28 -2 -53 -11t-51 -19q-18 -6 -34 -14l-32 -16q-18 -10 -33 -20t-31 -22q-1 -6 -5 -11t-5 -11q-23 -23 -33 -49q-5 -13 -11.5 -26t-13.5 -25q-8 -13 -15 -25.5t-14 -25.5l-27 -51
q-10 -22 -21 -39q-12 -19 -19 -37q-28 -45 -34 -66q-6 -13 -15 -27q-9 -13 -13 -29q-3 -7 -6 -13.5t-7 -13.5t-6.5 -13.5t-4.5 -13.5q-3 -7 -5 -22t-5 -22l-6 -18t-7 -18q-6 -16 -13 -40q-9 -15 -21 -28q-12 -14 -19 -26q-7 -22 -15 -31q-6 -7 -11 -19q-11 -17 -18 -34
q-7 -18 -18 -36l-9 -12q-3 -4 -9 -14q-5 -10 -10 -25l-10 -29q-3 -7 -6 -13.5t-7 -12.5t-6.5 -12t-4.5 -12q-15 -27 -24 -54q-3 -7 -5.5 -14t-4.5 -14t-4.5 -14t-5.5 -14q-11 -22 -16 -37q-2 -7 -4 -13l-4 -12l-9 -25q-5 -15 -5 -25q-16 -13 -10 -31.5t-8 -32.5q33 5 51 16
q19 12 47 16q22 12 35 25q16 16 43 17q16 10 30 21t27 22q27 24 63 37q15 13 30.5 25.5t31.5 23.5q32 23 56 57q9 4 28 18q12 14 23 28t21 30q22 19 34 36q15 21 36 34q7 18 22 33q7 7 13.5 14t12.5 15q8 10 15 20.5t14 21.5q15 24 29 40q14 26 28.5 51t30.5 49
q30 45 53 106q20 26 35 55t25 57q15 15 19 37t25 27q15 22 17 56q1 16 2 31.5t3 30.5q2 11 0 18q-2 10 -2 16q1 8 2.5 16.5t2.5 16.5q3 18 -1 29q-8 13 -11 21l-3 9q-4 11 -4 22q-2 8 -3 13.5t-2 9.5q-1 7 -7 17q-10 13 -15 26q-4 11 -15 22q-8 1 -15 1.5t-14 0.5h-29z" />
    <glyph glyph-name="E" unicode="E" horiz-adv-x="882" 
d="M996 1430h8q13 -17 33 -28q20 -10 35 -26l16 -18q0 -22 -9 -42q-10 -21 -11 -44q-5 -54 -16 -81q-12 -28 -10 -53q0 -19 10 -38q11 -19 -6 -36q-10 -10 -21 -13t-27 -7l-31 -9q-17 -5 -31 -5q-10 2 -21 4t-23 4q-10 10 -16 26q4 10 3 19q-1 6 1 19q2 29 15 51
q12 21 19 47q0 18 6 30q0 16 6 28q6 11 4 24q9 12 10 23q1 12 6 29q-18 8 -40 9t-38 -9q-76 -2 -124 -41t-78 -91q-8 -9 -15.5 -19.5t-15.5 -21.5q-7 -11 -15 -22.5t-16 -22.5q-10 -15 -18 -26.5t-14 -19.5q-13 -18 -22 -32q-4 -6 -7.5 -12t-6.5 -13t-6.5 -13.5t-7.5 -13.5
q-3 -7 -6.5 -13.5t-7.5 -13.5t-7.5 -14t-6.5 -15l-2 -6l-2 -6t-2 -5.5t-2 -4.5q-2 -6 0 -13t4 -11q2 -14 2 -18q0 -9 4 -18q6 -10 10 -18t6 -13q6 -14 10 -21q5 -9 13 -17q5 -5 13 -15q11 -2 21 -4l20 -4q20 -5 37 -6q24 -2 43 4q22 6 41 2q18 12 34 -2t20 -26
q5 -35 -10 -60q-8 -14 -21 -23t-23 -15q-11 -1 -21 -3t-19 -4q-18 -5 -38 -3q-24 -6 -49.5 -12t-51.5 -12t-52.5 -13t-52.5 -15q-21 -5 -24 -8q-4 -4 -14 -4q-56 -20 -98 -50q-17 -16 -28 -22q-9 -5 -14 -20q-25 -29 -58 -56l-54 -68q-10 -10 -11 -14t-3 -14q0 -17 -5 -42
q-2 -11 -4 -21t-3 -19q-2 -24 0 -44t12 -36q4 -4 9 -11t9 -17q8 -14 14 -23t22 -19q6 -4 14 -8t12 -4t11 3q4 2 7 3l6 2q8 2 12 2q6 0 10 4q34 10 59 28q27 19 57 32q5 3 17 9l19 9q24 18 49 36t57 34q22 10 42 24t36 28q11 18 21 30q11 13 17 30q8 2 11 9t9 13q-4 7 -6 17
q-1 8 -8 13q-19 -2 -36 4q-19 6 -40 2q-6 0 -22 -6q-32 -6 -61 -20t-47 -34q-1 -8 -7 -14t-9 -10q-5 -10 -9 -20t-8 -21q-7 -21 -21 -39q-13 0 -20 18q0 1 2 13t2 15q2 6 0 11q-1 5 0 15q1 6 2 13t2 15q1 15 6 26q8 28 16 39t20 15q4 6 11 11t17 11q14 9 20 15t10 9
q10 4 23 9t23 7q7 1 14.5 3t14.5 4q17 5 33 5l28 -6q5 0 15 2q8 2 15 0q8 0 11 -1t11 -1l12 2t11 2q12 2 19 -8q18 -4 31 -15t23 -23q6 -8 8 -10t8 -12q10 -24 5 -52t-19 -48q-2 -9 -6 -13q-2 -2 -4 -5l-4 -6q-44 -44 -62 -84q-27 -19 -45 -40q-18 -20 -45 -38
q-13 -16 -33 -25q-17 -8 -35 -21q-18 -14 -39 -28t-43 -24q-18 -12 -38 -18q-21 -14 -51 -26t-51 -26q-37 -11 -69 -28q-17 -9 -34 -16t-33 -12q-14 -2 -32 4q-16 4 -38 19t-30 31q-14 5 -21 20q-8 18 -17 28q-3 5 -6 10.5t-7 10.5t-7 11.5t-6 13.5q-19 25 -26 44l-13 38
q-1 4 -3 8.5t-4 9.5q-4 10 -9 18t-11 16q-8 40 7 80t29 68q8 10 12 19t8 19q5 9 10 17.5t10 15.5q5 8 10 15.5t10 15.5q8 13 17 34q8 18 19 34q6 22 20 33q16 13 28 27q10 4 17 10l15 12q23 10 43.5 20t39.5 20t38 19t39 17q59 12 122 38q-15 17 -25 47q-4 14 -9 29.5
t-10 31.5q-1 8 -6 15q-4 8 -6 15q-2 10 -3 16t-2 8l-3 8q-1 7 -1.5 14.5t-0.5 14.5v53q0 13 4 22q8 21 7 26q-1 4 1 12q1 6 5 12q3 5 3 14q10 14 21 30t21 32q7 11 13.5 20.5t12.5 17.5q14 19 20 34q18 11 27 26q8 13 25 28q13 15 25.5 30t25.5 29q26 29 57 51q21 10 40 24
q9 7 18 13.5t18 12.5q17 16 39 25q20 9 41 23q10 1 16 6q3 2 6.5 4t7.5 4q15 8 38 14q7 2 13.5 4t11.5 4q9 4 27 2q20 -2 34 -5t24 -13q16 -2 26 -11t20 -19z" />
    <glyph glyph-name="F" unicode="F" horiz-adv-x="860" 
d="M1090 1434q6 -18 6 -24q4 -6 15 -17t17 -11q23 0 27 -2q2 -1 3.5 -2t3.5 -2q0 -22 2 -24q3 -3 4 -6q0 -11 -4 -28q-5 -17 -14 -32l-20 -32q-10 -16 -21 -30l-21 -28q-9 -11 -14 -27q-5 -14 -20 -25l-28 -20t-26 -22l-24 -30q-4 -10 -11 -17q-5 -5 -11 -15
q-11 -16 -19 -36q-8 -19 -27 -32q-30 -53 -64 -92q-38 -44 -68 -90q25 -2 45 1q11 2 24 3t27 2q60 4 112 6t104 2q16 -12 10 -30q-10 0 -15 -5t-15 -1q-9 -5 -10 -10t-6 -10q-12 -35 -53 -37q-20 -1 -39 -2t-36 -3q-21 -1 -23 -3q-1 -1 -3 -1l-73 -9q-19 -2 -37 -4.5
t-36 -4.5q-11 -8 -23 -5q-14 3 -23 -1q-7 -5 -8 -10q-1 -6 -6 -12q-9 -11 -18 -26t-18 -26q-19 -19 -36 -48q-9 -7 -13 -14q-5 -9 -11 -16q-31 -43 -70 -90q-5 -9 -10.5 -18t-10.5 -17l-23 -37q-12 -23 -20 -50q-7 -18 -13 -27q-4 -5 -6.5 -11.5t-4.5 -13.5q-10 -16 -20 -34
t-20 -38q-26 -40 -55 -85t-55 -93q-4 -6 -7.5 -12t-6.5 -13q-6 -13 -16 -23q-6 -8 -13 -12q-4 -2 -7 -4l-6 -4q-16 -12 -38 -26t-38 -24q-22 -8 -30 -20t-12 -26q-30 -14 -42 0t-10 26q0 8 11 22q5 7 9 12.5t6 9.5l20 30q6 16 9 22t7 12l7 12q3 5 3 12q10 11 16 25
q3 7 6.5 13.5t7.5 13.5q17 17 28 38t30 40q4 12 10 20t14 16q11 22 26 47q13 22 18 55q7 30 20 48q11 15 22 34q4 14 8 26t14 22q12 20 20 36l18 36q10 26 30 56l4 6t4 5t4 5.5t4 7.5q9 15 13 26t13 26q5 9 13 17q7 7 7 23q-17 4 -32 -4q-12 -1 -25.5 -3t-29.5 -4
q-35 -5 -63 -5q-10 0 -23 -1t-25 -3l-20 -9q-10 -4 -20 5q-7 11 -11 13t-5 5q-12 22 -22 32q-2 3 -5 11q-1 5 -9 9q-6 6 -12 22q20 26 54 26q44 10 87.5 17t86.5 11t85.5 9t84.5 11q7 5 9 11q3 8 7 13q5 6 10.5 12t10.5 11q11 11 17 27q9 5 10 10t8 10q8 11 9 18q2 9 5 12
q24 31 30 43q8 14 18 27q5 7 10 13.5t10 11.5t10 11l10 12q4 5 7.5 9t6.5 8l12 15q16 27 42 58q22 25 36 56q12 1 15 11q3 8 11 15q10 23 24 43t24 43q-11 2 -24 -4t-30 -6q-10 -2 -18 -4t-14 -4t-13 -4t-15 -4q-30 -4 -63 -18q-16 -7 -32 -12.5t-31 -9.5q-38 -4 -74 -8
t-70 -8t-68.5 -7.5t-69.5 -6.5l-16 -2l-16 -2t-16 -1.5t-16 -0.5q-32 0 -64 -6q-10 2 -18 0q-7 -1 -18 0q-24 8 -30 12q-5 4 -16 4q-10 6 -12 8q-4 4 -8 4q-14 18 -16 23t12 13q8 20 33 24q24 4 41 12l28 6t27 5q14 2 28 5t29 6q16 5 28.5 7.5t21.5 3.5q17 1 34 9q30 2 57 9
q14 4 27.5 7t27.5 6q5 3 17 5q10 2 15 7q22 0 22 4q51 10 100.5 21.5t97.5 24.5q96 26 202 36q44 5 78 -10z" />
    <glyph glyph-name="G" unicode="G" horiz-adv-x="1210" 
d="M1520 1540l-6 -10q22 -16 9 -41t-27 -49q-4 -5 -7.5 -10.5t-6.5 -10.5q-6 -10 -12 -15q-16 -30 -27 -42q-5 -6 -10.5 -12.5t-10.5 -13.5q-5 -8 -9 -15.5t-8 -14.5t-8.5 -14t-10.5 -14q-5 -13 -12 -23q-8 -12 -14 -23q-7 -15 -11 -19t-5 -7q-3 -4 -7 -14t-7 -14
q-12 -17 -21.5 -30t-16.5 -22q-4 -6 -6 -12q-1 -5 -8 -10q-13 -27 -30 -52t-30 -52l-7 -18q-1 -4 -3 -8.5t-4 -9.5l-7 -17q-4 -10 -7 -17q-4 -10 -13 -20t-9 -26q-11 -21 -21 -42.5t-20 -44.5q-10 -22 -20 -44.5t-21 -44.5q17 -4 30 0t28 6q29 5 55 6q14 1 28 3.5t29 6.5
q18 -4 42 2q10 6 22 6q11 2 18 -1t18 -1q12 -1 18 0q6 2 10 -2q-4 -4 -8 -12t4 -10q-19 -18 -39 -21q-10 -1 -19.5 -3t-19.5 -4q-4 -10 -15 -16t-25 -12q-12 -4 -23 -7t-23 3q-15 -4 -26 -4t-26 -4l-16 -4t-12 -4h-22q-33 0 -54 -10q-10 -6 -13 -16q-2 -8 -9 -20
q-14 -62 -44 -121q-15 -29 -29 -57.5t-27 -55.5q-14 -28 -27.5 -55.5t-26.5 -54.5q-25 -53 -60 -100q-23 -45 -57 -70q-17 -13 -35 -26.5t-36 -27.5q-12 -14 -26 -20t-26 -20q-18 -1 -23 -4q-3 -1 -7 0q-15 6 -32 -2q-11 -4 -22.5 -7.5t-24.5 -7.5q-27 -8 -41 -17
q-32 -5 -36 -8q-6 -4 -12 -6q-14 2 -16 0t-6 -2q-12 -4 -29 -7t-27 -1q-9 3 -26 8q-16 6 -19 8q-2 2 -5 2q-8 5 -19 3q-7 -1 -21 1q-13 4 -37 7q-10 2 -20.5 3.5t-20.5 3.5q-9 5 -17 10l-16 10q-13 9 -35 16q-9 7 -17.5 13.5t-16.5 11.5q-14 9 -32 27q-28 18 -48 48
q-4 8 -9 17t-13 15q-6 17 -13 25q-6 7 -11 25q-10 11 -13 31q-3 18 -17 29q-4 24 -3 53t3 57q0 7 -2 19t-2 19q0 18 2 40t22 26q33 40 52 78q18 36 58 46q62 33 150 40q21 -6 42 -1q10 2 20.5 4t21.5 3q12 0 24 3t22 7q10 13 13 32t13 32q5 21 13 36q9 16 13 32q2 6 4.5 12
t5.5 12q7 13 12 28q38 60 69 131t61 141q3 5 9 17q5 9 3 17q0 4 -4 13t-8 15q-20 37 -24 74q-4 22 -3 40q1 9 1 18.5v19.5q5 45 12 86q13 8 25.5 16t24.5 16q23 16 52 28q19 0 30 -8q10 -1 16.5 -1.5t10.5 -0.5q8 0 15 -4q34 -8 50.5 -40t23 -72.5t8.5 -75.5q2 -16 12 -25
t20 -17q18 6 37 12t43 10q14 2 24 6t20 0q82 22 158 48t136 70q14 11 28.5 21t29.5 20q30 20 54 45q8 8 15.5 16t14.5 16t14.5 16.5t15.5 17.5q6 19 10 24q7 12 14 15t8 13q17 6 24 4l34 12q10 -10 10 -26zM1010 1078q-30 -16 -65 -30t-79 -14q-14 -4 -28 -2
q-11 2 -22.5 4.5t-23.5 6.5t-23 6.5t-21 4.5q-6 15 -26 20q-23 5 -36 10q-7 -14 -14 -27l-14 -26t-13.5 -26t-12.5 -27q-26 -64 -51 -122t-57 -116q-12 -22 -22 -44t-16 -44q17 2 34 4.5t34 5.5t34.5 5.5t35.5 4.5q72 -4 153 6q41 5 80 8.5t77 5.5q7 12 9 20q3 10 11 18
q11 17 13 25q2 9 5 13q5 8 10 16.5t9 16.5q5 8 9.5 16.5t9.5 16.5l15 35q4 8 8 17.5t9 19.5q5 9 10.5 18t10.5 17t10.5 17t10.5 18l12 22t11 21q10 19 23 41q11 29 24 36q0 10 5 13t5 13q7 5 9 11q3 7 7 11q2 9 9 13t7 11q-51 -23 -92 -48q-43 -26 -94 -42zM864 594
q-30 -5 -61 -6q-30 -1 -53 -12l-98 -14q-22 -3 -43.5 -7t-42.5 -9q-28 -8 -34 -7q-5 1 -16 -1q-25 -4 -51 -12q-25 -7 -51 -12q-13 -16 -24 -36t-32 -30q-23 -35 -43 -71q-10 -19 -21 -37.5t-22 -37.5q-17 4 -30 2q-4 32 1 50t13 40l4 10t4 9q4 9 6 17q2 23 6 30q2 4 4 8.5
t4 9.5q-22 -4 -46 -12t-42 -24q-16 -4 -25 -15q-4 -5 -9 -10.5t-10 -10.5t-11 -9q-5 -3 -5 -11q4 -30 -3.5 -44.5t-15 -30t-3.5 -49.5q6 -44 26 -74q10 -14 19.5 -28t18.5 -28l10 -18q5 -8 10 -12q15 -5 16 -6q3 -3 6 -4q28 -16 64 -27t72 -7q9 -4 36 -4q71 0 140 8
q7 5 14.5 10t14.5 10q14 10 25 24q19 12 30 23t30 23l20 12q16 10 25 20t21 26l34 46q19 25 26 56q14 24 24 54q15 21 26 50q10 26 24 50q11 32 18 51l8 20t8 21q6 8 13 19t7 23q-19 4 -36 -6z" />
    <glyph glyph-name="H" unicode="H" horiz-adv-x="1276" 
d="M1478 1472q18 -10 24 -26t8 -40q0 -20 -1 -29q-1 -13 3 -29q-7 -14 -16 -23t-14 -27q-19 -45 -43 -78q-26 -35 -49 -74q-22 -20 -35 -49t-25 -61q-40 -66 -77 -134t-71 -138l57 -12q29 -6 53 -18q10 -15 15 -17t1 -7q8 -59 -28 -40q-14 -5 -22 0q-32 -8 -60 -12t-64 -8
l-24 -50q-6 -12 -12 -24.5t-12 -25.5q-60 -106 -109 -213t-91 -221q-4 -18 -8 -34t-12 -30q-4 -24 -12 -42q-5 -11 -6 -19t-6 -19q-6 -16 -17 -24t-17 -22q-12 12 -19 1t-11 -21q-22 -4 -31 10t-9 30q-8 11 -19 9q-10 -1 -21 9q-16 58 -30 94t-30 68q-2 8 -4 15l-4 14
t-4 13.5t-4 13.5l-9 20q-2 5 -4.5 10t-4.5 10q-4 5 -4 12t-4 12q-5 11 -11 22t-13 22l-26 42q-14 17 -20 30q-5 12 -14 18q-12 24 -12 29t-4 9l-20 24q-6 7 -14 12q-9 5 -22 10t-22 10l-21 9q-5 2 -11.5 4.5t-13.5 4.5q-18 -37 -30 -76q-12 -40 -36 -72q-11 -26 -27 -55
t-27 -55q-9 -11 -14 -31q-4 -16 -12 -33q-3 -6 -6.5 -12t-7.5 -12l-16 -24q-24 -38 -55 -62q-16 -13 -31.5 -27.5t-29.5 -30.5q-42 -34 -68 -18q-7 8 -11 1q-3 -5 -9 -11q-14 0 -19 5l-13 13q5 20 13 32q11 16 17 30q11 5 12 16t10 18q12 56 40 92q2 5 4 10.5t4 10.5t4.5 11
t5.5 12q6 11 15 18q8 7 13 18q7 22 14 39t14 30l28 51q14 42 32 79t38 75q-10 4 -10 19t-10 21q-5 45 -30 64q10 13 10 26q9 9 28 16q4 2 7.5 4t6.5 3q8 4 16 5l31 3q8 1 15.5 2t15.5 3q7 11 12.5 22.5t9.5 23.5q8 24 24 42q2 6 6 12q4 5 2 12q15 17 28 44q12 25 28 46
q14 33 33 59q17 24 35 61q18 22 31 58t23 66q4 9 4 17t4 15q4 9 12 22q4 6 7.5 12t6.5 12q8 14 14 26t10 28q-6 12 -19 5q-7 -4 -14 -7.5l-15 -7.5q-27 -14 -56 -34q-44 -22 -82.5 -47t-71.5 -53q-9 -1 -20 -6q-10 -4 -24 -6l-15 12l-3 6q6 6 20 12t14 16q-2 38 21 59t45 41
q15 9 28 16.5t24 12.5q23 11 42 27q13 5 25.5 10.5t25.5 12.5t25.5 13t25.5 12q9 4 19 12q5 4 9.5 8t9.5 8q24 16 51 32t55 32q15 4 17 6q4 4 5 4q31 10 50 22q8 3 16 6.5t15 7.5q15 8 33 6q16 0 30 -14t-2 -28q16 -16 16 -44q0 -31 4 -56q0 -7 2 -19q2 -9 0 -17
q-1 -7 -7 -19q-5 -10 -5 -17q-7 -10 -12 -21q-4 -10 -12 -21q-5 -19 -14 -28q-10 -10 -16 -22q-15 -11 -28 -26q-8 0 -9 -7t-5 -11q-40 -10 -67 -45t-53 -73q-32 -21 -56 -48q-4 -5 -7.5 -10.5t-5.5 -12.5t-5.5 -13t-7.5 -12q-8 -13 -16.5 -27.5t-17.5 -31.5
q-9 -16 -17.5 -31.5t-16.5 -29.5q-5 -13 -10 -22q-5 -8 -10 -24l-16 -30q-6 -10 -10 -26q34 0 68 4l68 8q51 -4 97 11q47 16 93 17q8 5 14 3q4 -1 14 1q44 2 89 3t93 -3q8 4 13 12t9 16q5 12 11 18q4 4 6.5 8t4.5 8q6 16 12 22t10 16q13 26 15 29q2 2 3.5 5.5t3.5 7.5l58 98
q4 5 7 13q4 10 7 15t5 18q2 11 11 18q4 10 9 20.5t10 21.5l21 44q5 10 10 19.5t10 19.5l20 39l4 10t4 9q2 5 4 9.5t4 9.5q15 21 26 44l16 24t16 26q5 13 10.5 24.5t11.5 21.5l8 15q5 9 6 11q4 5 2 13q-1 7 0 13l10 13q4 5 10 13q6 6 10 11q6 7 16 1q10 10 28 18q8 -1 14 -7
q5 -4 12 -9q4 -10 6 -22t-8 -18zM884 634q-8 2 -13 1t-13 1q-14 0 -28 6q-45 2 -83 -4q-43 -6 -73 -2q-27 -4 -54 -7.5t-55 -5.5q-54 -4 -107 -15q-25 -5 -44 -12q-4 -7 -6 -15q-1 -6 -6 -17q14 -16 30 -30.5t34 -27.5q26 -32 53 -60t55 -56q16 -10 22 -30q11 -10 19 -24
l8 -14t9 -14q20 -2 26 -16q7 -16 16 -26q8 -13 17.5 -26t19.5 -26q21 -25 33 -54q7 -5 8 -9t8 -9l35 116q8 25 17 49.5t20 48.5q2 14 11 28q9 13 7 30q11 26 22.5 51.5t23.5 50.5t23.5 51t22.5 53q-15 1 -29 6l-14 4t-15 4z" />
    <glyph glyph-name="I" unicode="I" horiz-adv-x="566" 
d="M986 1464l10 -6q-11 -24 -13 -36t-5 -20q-2 -5 -3 -8.5t-2 -5.5t-2 -5t-3 -7q-6 -10 -12 -10t-16 -10q-6 -8 -10 -12l-10 -10q-7 -12 -8 -18q-1 -7 -14 -12q-8 -2 -13 -1q-7 1 -11 -3q-22 -8 -36 -10t-30 -4q-23 -10 -32 -10q-6 0 -16 -2q-8 -2 -17 -5l-21 -7
q-11 -35 -28 -58q-18 -24 -30 -58q-36 -58 -63 -108t-49 -96q-10 -10 -17 -24l-15 -30l-12 -22q-3 -3 -4 -6q-4 -8 -8 -17t-8 -19q-12 -16 -17 -27t-9 -21l-12 -20t-12 -22q-10 -24 -18.5 -45t-16.5 -38q-14 -32 -25 -75q-4 -12 -9 -32q-4 -16 -11 -28q-19 -49 -38.5 -99
t-39.5 -101t-39 -102.5t-37 -103.5q32 0 52 11t54 11q22 -30 4 -60q-16 -19 -18 -30q-1 -10 -6 -18q-11 -13 -15 -20q-3 -6 -9 -12q-17 -16 -62 -22q-25 -5 -37 -11q-7 -4 -15.5 -6.5t-17.5 -4.5q-12 -2 -22 -4t-18 -4q-10 0 -15 1q-7 1 -13 -3q-34 0 -57 -4t-45 -10
q-19 -5 -31 -10q-15 -6 -33 -6q-6 0 -12 3t-14 3q-6 6 -12 15t-6 19t3 19q3 8 1 19q0 23 17 37q18 15 27 29q34 5 53 14q11 5 25 8.5t30 5.5q14 41 29.5 83t32.5 85q35 86 66 168q7 18 13 31t13 31q20 54 42 102q12 13 18 34q3 7 5 17t5 17q6 13 18 32l20 32q7 10 14.5 19.5
t14.5 19.5q8 10 15 19.5t14 19.5q7 20 15 39l16 38l33 75q4 26 17 57t23 53q6 11 11 22.5t9 24.5t9.5 24.5t12.5 22.5q2 7 4.5 13.5t5.5 11.5t5.5 11.5t4.5 13.5q9 15 13 27q2 8 5 15.5t6 15.5q-5 -3 -15 -5l-15 -3q-7 -2 -14 -6t-18 -6q-32 -5 -56 0q-27 5 -34 36
q-1 16 7 17t13 15q-2 46 12 69t36 27q9 4 18 4q8 0 16 8q17 5 41 7q11 1 21.5 2t21.5 3q22 4 42 7t38 3l40 11q18 5 44 3q14 0 26 -3t26 -3q7 0 13.5 -0.5t13.5 -1.5q15 -2 29 2q12 1 23 8q11 6 23 2q20 4 41 8t43 4q22 -1 22 1q0 3 6 1z" />
    <glyph glyph-name="J" unicode="J" horiz-adv-x="734" 
d="M-22 506q4 -16 2 -41t-4 -47q0 -26 -2 -37t-6 -21q-2 -10 -4.5 -21t-5.5 -22t-5.5 -23t-4.5 -24v-13.5t-1 -13.5t-1 -13.5v-13.5q0 -8 -0.5 -17t-1.5 -19q-1 -19 6 -36q5 -12 16 -27q10 -14 16 -31q16 -10 15 -13q-1 -2 1 -7q7 -15 22 -20q19 -12 49 -10q31 2 53 -4
q37 6 64 22q4 2 8.5 4t8.5 4q9 5 15 12q7 13 11 24q4 13 11 28q6 14 12 38t8 38q11 19 19.5 39t15.5 41l27 82q8 24 16 45t18 43q8 22 16 43t22 39q6 32 18 56l24 48q14 32 30 60q9 15 17.5 29.5t15.5 28.5l16 28t17 28q12 32 33 65q19 31 31 65q11 29 18 54q8 26 24 48
q8 16 14.5 31t11.5 28q5 14 11.5 27t14.5 26q2 10 5 18t7 18q-17 -5 -30 -16q-13 -12 -34 -18q-16 -10 -34 -23t-30 -27q-6 -24 -12 -30q-4 -4 -12 -14q-8 -1 -22 -5t-22 -5q-12 5 -15 12q-3 8 -9 18q-10 17 -5 28t9 18q3 4 9 10t7 10q27 26 54 44q29 20 54 42l12 12t12 13
t12 12.5t12 10.5l54 42q37 26 53.5 47.5t36.5 36.5t66 20q4 1 7.5 2t6.5 2q8 2 16 2q12 2 12 0q0 -3 14 2q7 1 17 5l17 7q8 3 20 5q13 2 18 5q6 1 13 0q4 -1 7.5 -2t7.5 -2q24 -19 14.5 -51.5t-24.5 -58.5q-6 -12 -15 -24t-19 -18l-33 -44q-8 -11 -16.5 -22.5t-16.5 -23.5
q-8 -11 -15 -23t-14 -25t-14 -25t-15 -23q-16 -24 -30 -48t-28 -50q-16 -34 -37 -65q-20 -29 -37 -69q-5 -12 -9 -24l-8 -24t-8 -24.5t-9 -25.5q-4 -5 -7 -13t-7 -13q-3 -4 -5 -14q-1 -6 -7 -10q-7 -19 -15 -36.5t-16 -34.5q-17 -34 -27 -73q-5 -5 -6 -11t-6 -11q2 -2 0 -19
t-6 -25q-13 -25 -19 -34q-4 -6 -7 -12.5t-6 -13.5q-21 -40 -40 -88q-18 -47 -40 -92q-12 -20 -21 -41t-19 -45q0 -13 -6 -24q-5 -9 -10 -22q-9 -21 -11 -34q-3 -16 -13 -32l-12 -15q-4 -5 -10 -15q-3 -5 -5 -17t-5 -17q-4 -12 -14 -24t-20 -22q-11 -11 -15 -20t-15 -20
q-13 -6 -22 -13q-8 -6 -22 -11q-27 -14 -50 -20q-20 -5 -25 -7q-7 -3 -17 -3q-12 0 -22 2t-22 2q-17 -6 -32 -2l-32 8h-17q-7 0 -17 2q-31 6 -56 27q-25 20 -56 25q-46 30 -77 80t-53 112q-10 35 -4 75q3 20 5 39.5t3 39.5q5 26 6 48q1 19 8 44q4 14 9 27t9 23q7 11 18 22
t18 24q13 8 32 7q20 -2 40 3q7 2 14 4.5t14 6.5q13 7 26 1z" />
    <glyph glyph-name="K" unicode="K" horiz-adv-x="1058" 
d="M496 732q22 12 37 28t37 28q9 13 29 29l16 14t15 15q22 12 39 25t31 33q12 10 25 18q5 3 10.5 6.5t10.5 7.5q20 18 39 37.5t38 39.5q39 43 81 77q5 6 10.5 12t10.5 11l21 21q21 17 48 44q9 9 16 21q8 14 16 23q17 20 30 46q16 24 31 48t25 50q7 28 13 38q5 8 9 18
q6 12 9 25q2 11 11 23q8 8 22 11t24 -7q30 10 42 -26q4 -8 2 -20q-2 -14 -2 -24q-5 -26 -3 -52q1 -23 -7 -50q-4 -14 -12 -32q-7 -15 -12 -22q-5 -6 -6 -13t-6 -13q-5 -8 -13 -15q-12 -10 -17 -17q-28 -28 -52 -57t-46 -59q-21 -25 -24 -31q-6 -10 -10 -15q-6 -10 -15 -18
q-10 -9 -17 -18q-5 -5 -6 -10t-6 -10q-12 -13 -24.5 -26t-25.5 -26q-25 -25 -48 -54l-12 -20q-3 -5 -6.5 -10t-7.5 -10q-4 -3 -14 -9q-7 -4 -18 -15q-4 -4 -10 -7q-8 -4 -12 -7l-90 -54q-9 -7 -18 -13.5t-19 -12.5t-18.5 -12t-16.5 -12q-32 -24 -47 -47q-16 -24 -57 -35
q-6 -28 3 -48q8 -17 13 -36q4 -9 7 -23q2 -7 3.5 -13.5t3.5 -13.5q3 -9 5.5 -18t4.5 -17q5 -20 12 -37q4 -7 6 -16t6 -16q2 -8 4 -15.5t3 -14.5q2 -7 3.5 -14.5t3.5 -15.5q8 -33 24 -64q6 -22 18 -39q13 -18 20 -33q9 -5 17 -16q8 -10 15 -18q19 -18 29 -38q10 -19 29 -36
q14 -2 28 -3t28 5q10 6 15 11t15 11q9 9 16 13t12 11q42 23 66 50q13 14 26.5 28.5t27.5 29.5q7 5 13.5 10.5t11.5 10.5t11 10.5t12 10.5q28 7 42 14q13 7 24 8q14 4 27 5t23 -5q-4 -6 -2 -17t-2 -17q-5 -16 -11 -24q-4 -5 -7.5 -10.5t-7.5 -11.5q-18 -18 -34 -30
q-19 -14 -32 -30q-17 -12 -35 -28q-7 -7 -15 -14l-16 -14q-15 -15 -33 -28t-33 -28q-15 -14 -30 -29t-29 -31q-30 -33 -63 -56q-24 -26 -50 -26q-11 5 -20 6t-20 6q-29 22 -62 39q-32 17 -50 53q-16 12 -27 30t-21 40l-13 13q-6 7 -11 17q-10 6 -13 11t-11 13q-18 36 -35 83
t-29 81l-2 6l-2 6t-2 7t-2 9q-4 6 -6 11t-4 11q-6 12 -9 27q-1 8 -3 15.5t-4 15.5q-4 14 -12 32q-4 8 -7.5 16t-6.5 16l-12 36t-16 34q-28 -36 -34 -62q-6 -25 -16 -46q-15 -25 -16 -31q-1 -8 -6 -19q-10 -16 -20 -33t-18 -37q-3 -7 -7 -19t-7 -19t-5 -21t-5 -21l-4 -6
t-4 -5t-4 -5l-4 -6q-10 -16 -17 -35t-15 -41q-4 -27 -4 -53t-4 -47q-16 -15 -19 -18q-3 -4 -11 -10q-7 -4 -15 -6q-6 -1 -17 -6q-17 -23 -26 -28q-4 -2 -8 -4.5t-8 -5.5q-8 -6 -12 -10t-12 -10q-22 -10 -50 -8t-50 12q-5 13 -8 26q8 21 8 34q10 17 18 34.5t13 35.5
q10 35 33 64q4 5 7.5 9.5t5.5 8.5t5.5 8.5t7.5 9.5q6 13 13 26.5t15 26.5q8 14 14.5 28t11.5 29q18 24 27 56t21 60q8 17 15 35t14 37q14 40 35 66q5 11 10.5 22.5t11.5 22.5t11.5 22.5t10.5 22.5l4 14l4 14t4.5 14t5.5 14l12 24q3 6 6.5 12.5t7.5 13.5q11 18 19 42l8 22
t9 22q29 66 58 128t58 128q9 25 18.5 49t19.5 47q20 49 36 94q-6 0 -12 -7q-4 -5 -10 -11q-10 -4 -18 -10t-18 -14q-27 -19 -58 -50q-10 -8 -23 -17t-25 -17q-36 -19 -60 -20q-14 19 -13 21t-1 7q-6 12 -13 11t-9 13q-2 18 -2 28q0 15 4 24q4 8 13 17t19 17q8 10 16.5 18.5
t17.5 15.5q33 27 70 46q12 10 29 20t31 18q17 8 34 12q20 5 30 10q9 5 23 25t21 27q18 21 34 28q15 7 22 16q6 7 9 19q3 11 11 19q14 16 25 19t33 -7h28q12 0 16 -4q12 -8 27 -26t15 -40q0 -20 -6 -40q-3 -10 -5.5 -20t-4.5 -20q-24 -50 -48 -102t-46 -104q-8 -16 -14 -32
l-12 -32q-4 -9 -4 -20q0 -10 -10 -16q-15 -17 -22 -34q-6 -14 -16 -24l-12 -26q-3 -6 -6 -12.5t-6 -13.5q-7 -20 -8 -35q-1 -14 -8 -39q-4 -17 -15 -37q-5 -10 -10 -19.5t-9 -19.5q-5 -9 -9 -18l-8 -18l-8 -18t-9 -18z" />
    <glyph glyph-name="L" unicode="L" horiz-adv-x="794" 
d="M174 112q37 11 65 26q16 8 33 14.5t36 11.5q50 6 101 6q52 0 95 12q48 8 87 12t73 -14q4 -16 0 -39t-10 -39q-6 -18 -10 -28t-14 -26q-10 -7 -21 -12q-14 -6 -21 -10q-17 4 -38 -4q-7 8 -26 4q-30 2 -51 -8q-23 -11 -49 -6q-8 -2 -16.5 -3t-18.5 -2l-20 -2t-21 -3
q-24 -5 -40 -14q-18 -10 -40 -6q-19 -9 -46 -19q-12 -4 -24.5 -9t-25.5 -10q-22 -12 -25 -12q-1 0 -7 -2q-19 -10 -29 -12q-8 -1 -19 -6q-14 0 -29 5q-7 2 -14 5t-15 6q-9 5 -14 13l-12 19q-23 23 -34 50q-6 6 -22 16q-10 33 1 59l21 51q13 33 20 63q7 31 28 55q6 19 22 42
q11 18 19 42t19 42q6 11 13 19q4 5 7 9l6 8q1 8 7 14t7 14q21 19 31 44q11 26 29 46q16 21 25 48t25 48q4 10 7.5 17.5t5.5 12.5t5 10.5t6 11.5q8 18 15 42q8 26 17 40q5 18 12 30q8 12 12 34q10 13 15 34q2 10 5.5 19t7.5 17q0 7 5 15t1 13q9 9 11 24t11 24q-2 14 10 30
q1 7 7 17q6 11 7 13q20 37 23 49q4 13 11 27q4 4 8 9t6 13q2 5 4 10.5t4 11.5t4 11.5t4 10.5q5 11 6 18q2 8 6 14q14 21 13 22q-1 2 1 4q2 5 4 9.5t4 8.5l4 8l4 8q22 54 37 88t35 68q0 18 -4 33q-4 16 4 31q8 4 16 9t15 10q15 11 33 15q8 2 15 -7t13 -13q38 -33 56 -86
q4 -16 3 -37t-7 -35q-6 -23 -16 -34q4 -26 -1 -44t-11 -34q-20 -20 -32 -48q-12 -14 -20 -31q-7 -16 -18 -33q-6 -13 -18 -32q-10 -15 -16 -36q-18 -22 -21 -33q-3 -12 -13 -19q-26 -56 -42 -97q-19 -49 -40 -87q2 -11 -4 -15t-4 -15q-20 -38 -29 -82q-9 -47 -31 -82
q-18 -58 -45 -105q-13 -23 -25.5 -48.5t-23.5 -52.5q-9 -4 -14 -24q-21 -32 -35 -76q-13 -42 -33 -78q-5 -15 -11.5 -30.5t-14.5 -31.5q-15 -29 -22 -64z" />
    <glyph glyph-name="M" unicode="M" horiz-adv-x="1808" 
d="M30 -80q4 22 13 38q8 15 13 34q19 45 40 74q4 16 11 28t15 22q11 27 19 53t21 51q24 46 49 95t49 97q6 11 12 22.5t11 22.5t11.5 22.5t13.5 22.5l8 32q5 18 10 32q-2 13 2 19l8 15l6 24q6 24 16 39q9 14 16 37q6 4 10 12l8 16q8 22 16 43.5t16 42.5t16 43t16 45
q11 26 18 39q8 14 12 33q20 46 40 91t42 91q7 17 14 32t14 28q7 15 18 31q8 12 14 29q5 12 0 26q-22 -1 -39 -14q-16 -12 -39 -24q-5 -3 -10.5 -6.5t-11.5 -7.5q-6 -9 -11 -11q-4 -2 -7 -5q-19 -11 -37 -25q-17 -13 -39 -25q-9 -8 -18.5 -16.5t-19.5 -16.5t-19.5 -16.5
t-18.5 -16.5q-7 -13 -26 -24q-10 -10 -19 -22t-19 -22q-2 -26 -12 -49t-20 -45q-6 -16 -10 -30q8 -4 15 3t15 5q29 12 48 30q17 16 42 34q20 16 37 37t33 43q9 9 14.5 15t7.5 8q5 5 14 5q10 -9 11 -14q1 -2 -1 -8q-19 -46 -38 -75q-9 -13 -17.5 -27.5t-16.5 -29.5
q-21 -21 -32 -41q-9 -17 -24 -35q-10 -18 -20 -35t-26 -27q-36 -8 -55 1l-33 15q-4 3 -16 5q-10 2 -16 7q-10 12 -14 17t-2 13q-12 12 -12 40q8 21 7 23t1 7q1 4 5 12t5 12q3 5 5 17t5 19q6 18 22 40l9 22q3 8 9 22l10 24l5 17q2 2 3 5q7 22 13 32q5 8 5 18q49 72 124 126
q28 22 59 44t63 42q16 16 38 31t44 29q8 4 16 9t15 10q15 11 33 15q13 4 26 -2q20 -12 26 -11q4 1 10 -1q12 -4 20 -18t12 -24q6 -12 13 -28t11 -38l3 -20q1 -5 1.5 -10t1.5 -10q0 -7 2 -21t2 -19q-2 -18 -12 -36t-18 -32q-7 -14 -13.5 -28.5t-11.5 -28.5q-10 -28 -27 -57
q-12 -16 -12 -19t-2 -5q-8 -22 -12 -29q-2 -4 -4 -9l-4 -10l-21 -49q-5 -13 -10.5 -26t-10.5 -27q11 2 18 18q11 7 20 26q10 10 16 18q4 5 7.5 10t5.5 9q4 8 13 17q22 22 43 48t41 52q26 24 46 57t36 67q12 10 23 20t21 24q25 20 53.5 51.5t47.5 47.5q25 21 55 33t68 8
q10 -11 18 -26q7 -13 20 -24q16 -40 27 -85t9 -103q-5 -18 -13 -33q-8 -14 -13 -37l-7 -18q-1 -4 -3 -8.5t-4 -9.5q-4 -12 -10.5 -25.5t-14.5 -29.5q-18 -34 -23 -59q-5 -5 -7 -15l-3 -19q-12 -25 -12 -41q0 -17 -4 -29q-10 -36 -18 -72t-16 -74q-4 -12 -6 -22l-4 -20
q-4 -9 -7 -25t-7 -25q6 1 12 11q8 12 12 17l21 32q5 8 10.5 16t10.5 16q8 11 15.5 22t14.5 21q15 23 30 41q20 30 31 48t21 38q16 16 26 32q5 8 11 16t13 16q12 25 26 48q10 17 16 32q18 24 36 46t38 44q9 9 16.5 16t12.5 11q5 5 11 9.5t12 9.5q25 32 60 62q28 39 67 71
q20 16 38 31.5t35 31.5q22 7 34 21t24 3q20 16 36 11t22 -9q25 -23 30 -32q4 -6 6 -14t6 -14l12 -30q2 -4 4 -8.5t4 -9.5l8 -20q8 -16 15 -38t5 -44q-1 -5 -2 -10.5t-2 -11.5q-2 -13 -6 -26q-3 -8 -6 -15t-5 -14l-9 -25q-2 -5 -3 -9.5t-2 -8.5q-2 -11 -5 -16
q-12 -31 -32 -73q-10 -20 -17.5 -37t-12.5 -30q-1 -18 -14 -32q-5 -22 -10 -32q-6 -13 -12 -30q-3 -7 -5 -19t-5 -19q-6 -14 -10 -21t-10 -21q-4 -16 -8 -31t-12 -29q-8 -22 -16 -42t-20 -36q-40 -65 -66 -143q-25 -76 -60 -147q-1 -11 -8 -24q-3 -6 -5.5 -12t-4.5 -12
q-10 -12 -15 -32q-4 -16 -11 -38q-6 -20 2 -33t14 -17q10 -6 29 -4t29 6q6 2 13 4t15 4t15 4t13 4q17 6 27 12q5 3 11 6l12 6q11 8 26 12q7 7 12 8t10 6q22 18 45 44q21 24 47 44q35 54 92 94q22 -12 29 -22t13 -20q2 -20 -6 -31t-14 -25q-16 -16 -31.5 -33t-30.5 -34
q-30 -35 -62 -65q-5 -11 -10 -22.5t-10 -22.5q-11 -23 -30 -35q-17 -12 -31.5 -23t-26.5 -21q-24 -20 -52 -30q-52 -31 -104 -72q-21 -14 -50 -26l-16 9l-4 3q-32 5 -47 25q-14 20 -35 39q-27 27 -40 74q-8 26 -15 50t-3 58q2 22 10 42t16 38q17 38 35.5 77.5t38.5 80.5
q42 85 66 158q6 10 7 17l3 13q8 20 19 41t21 39q6 27 17 51q5 11 10.5 23.5t10.5 25.5q12 18 18 42q6 23 20 42l24 76q13 42 18 80q2 17 0 30q-2 14 0 32q1 23 6 52q4 28 0 58q-5 -4 -10 -7.5t-10 -6.5t-10 -6.5t-10 -7.5q-11 -10 -25 -19q-12 -8 -23 -19q-6 -6 -9.5 -9
t-4.5 -4t-2.5 -2t-3.5 -3q-11 -19 -18 -23t-14 -13q-18 -28 -27 -37q-5 -5 -10.5 -11t-10.5 -12q0 -3 -5 -18t-5 -18q-31 -53 -60 -82q-11 -17 -22.5 -33t-22.5 -31t-22 -31t-21 -33q-20 -33 -39 -50q-17 -15 -35 -42q-18 -18 -36 -44q-8 -12 -17.5 -23t-20.5 -21
q-16 -22 -31 -43t-29 -45q-4 -8 -18 -34t-18 -34q-9 -16 -16 -38q-6 -21 -16 -36q-8 -14 -16.5 -27.5t-17.5 -26.5t-17.5 -26.5t-16.5 -27.5q-9 -21 -11 -34q-3 -16 -13 -22q-12 -27 -23 -43t-23 -45q-6 -14 -19 -20t-25 0q-15 6 -26 24q-5 9 -10 16.5t-10 13.5
q-5 18 -11 28q-7 11 -7 28q-2 9 1 18t1 18q-6 24 0 39l10 27q7 21 14 26q2 7 4 13.5t3 12.5q2 6 3.5 12.5t3.5 13.5l4 10t4 9q2 5 4 9.5t4 9.5l7 18q2 4 3.5 8.5t3.5 9.5q2 10 2 12q0 5 4 12q2 9 4.5 18t6.5 17t7.5 17.5t7.5 19.5q5 14 16.5 42t22.5 54t15 32q4 10 10 24
t12 26q11 20 13 27q1 3 1 9q-8 14 1 37t19 47q5 12 8.5 24.5t5.5 25.5q5 27 12 50q5 17 11.5 36.5t13.5 41.5q14 41 19 86q0 8 0.5 15.5t1.5 14.5q2 14 -12 16l-8 20t-12 16q-21 0 -31 -13q-5 -7 -11 -13l-12 -12q-11 -15 -22.5 -28.5t-24.5 -25.5t-24.5 -26t-22.5 -30
q-22 -22 -48 -54t-42 -54q-5 -15 -16 -22q-13 -8 -20 -18q-5 -6 -11 -13t-13 -15t-13 -16t-11 -16q-8 -10 -17 -20t-19 -20q-4 -5 -12 -17q-3 -4 -6.5 -9t-7.5 -10q-19 -19 -24 -28q-6 -11 -16 -18q-14 -27 -29 -52l-31 -54q-8 -5 -12 -14q-5 -12 -10 -18q-5 -24 -13 -36
q-9 -13 -15 -30q-30 -46 -50 -83t-40 -77q-10 -19 -12 -24q-1 -3 -6 -8q-3 -7 -6 -13.5t-7 -12.5t-7 -12l-6 -12q-3 -4 -5 -12q-1 -6 -7 -10q-23 -66 -53 -119q-31 -55 -55 -119q-5 -5 -6 -11q-1 -7 -6 -13q-22 -22 -29 -18t-17 4q-8 0 -13 -6q-4 -6 -19 -6q-18 0 -22 -4
t-16 -10q-16 -10 -21 -12t-9 2q-1 -6 -8 -6q-5 0 -10 -8q-4 5 -10 4q-6 -2 -12 4z" />
    <glyph glyph-name="N" unicode="N" horiz-adv-x="1216" 
d="M616 1094q35 25 46 50q11 24 28 46q24 19 42 46q26 34 53 67t55 67q4 5 8 10.5t8 11.5q8 13 18 20q12 9 21 10q11 2 21 12q41 15 70 30q30 16 72 22q10 -6 19 -17q10 -12 17 -17q18 -6 27 -22t17 -36q7 -15 13 -21q3 -3 9 -13q8 -25 11 -47q3 -27 13 -45q6 -4 9 -9
q3 -4 9 -9q8 -12 3 -27q-5 -17 -1 -31q4 -7 6 -17l2 -8t2 -7q2 -34 -1 -62q-1 -16 -2.5 -32t-2.5 -32q-1 -8 -1.5 -15.5t0.5 -14.5t0.5 -14.5t-1.5 -15.5l-9 -38q-2 -9 -4.5 -18t-4.5 -18q-2 -12 -4 -21.5t-4 -16.5l-7 -17q-4 -10 -5 -17q-37 -67 -78 -132q-39 -62 -68 -140
q-10 -18 -12 -27q-1 -8 -10 -15q-6 -22 -22 -50q-8 -14 -15.5 -29l-15.5 -31q-7 -16 -15 -31.5t-16 -30.5q-10 -20 -19 -39t-19 -41q-8 -18 -15 -35t-15 -39q-2 -6 -5 -16t-3 -14q0 -5 6 -13l10 -13q8 -10 15 -18t17 -12q19 -2 31 2q15 5 29 0q8 4 15 7t15 5q22 12 43 25
t40 27q39 29 81 54q11 9 22.5 18t22.5 17t22.5 17t22.5 18q16 7 33 19q19 13 31 -1q0 -10 2 -18t-2 -14q-1 -9 -7 -13q-4 -3 -9 -9q-6 -11 -5 -23q2 -13 -3 -27q-4 -11 -12 -19t-12 -17q-52 -43 -108 -84l-56 -40l-56 -40l-15 -8q-4 -2 -7.5 -4t-7.5 -4q-21 -11 -41 -25
t-41 -21q-4 -6 -10 -7q-3 -1 -7 -2t-9 -3q-7 -1 -15 -6q-6 -4 -11 -2q-9 0 -14 4q-6 4 -14 6q-25 8 -47 11q-24 3 -41 15q-6 16 -3 28q3 11 -5 28l-8 16t-8 15q-8 16 -12 31q-12 30 -13 53t1 43q2 22 9 41t15 35q9 15 16 33q7 20 16 35q11 26 15 42q2 8 5 16l6 16l15 30
t11 32q24 42 42 87l36 89q3 8 6.5 16t7.5 15q4 8 7.5 15.5t6.5 15.5q11 23 15 46t15 46q5 6 6 13q1 6 6 17q17 35 30 75q13 39 34 73l21 55q10 27 15 65q4 30 -4 62q-11 27 -13 40t-11 20q-6 17 -7 19q-3 5 -5 13l-6 4t-5 3q-6 4 -9 7q-34 -25 -63 -51q-26 -23 -63 -49
q-36 -30 -59 -50t-45 -42q-14 -14 -18 -14q-34 -28 -60 -78q-14 -24 -27.5 -47t-27.5 -45q-13 -22 -25.5 -45t-23.5 -47q-28 -39 -49 -88q-10 -24 -21 -47.5t-22 -46.5q-7 -22 -15 -42q-8 -21 -19 -36q-8 -14 -18 -29t-20 -29q-13 -18 -29 -35q-13 -14 -27 -37
q-4 -6 -7.5 -12t-5.5 -13t-4.5 -12.5t-4.5 -10.5q-8 -27 -20 -50q-4 -16 -10 -22q-5 -13 -10.5 -25.5t-11.5 -24.5t-11.5 -24t-10.5 -24l-6.5 -20.5t-15.5 -47t-15.5 -46.5l-6.5 -20q-11 -6 -19 -13q-9 -8 -19 -9q-10 -12 -23 -13q-15 -2 -27 -7q-10 -6 -15 -10
q-10 -8 -17 -12q-12 -7 -22 -8q-11 -1 -22 -12q-6 -5 -9 -10q-3 -6 -7 -10q-16 5 -24 -3q-7 -7 -22 -1q-10 4 -13 16t-5 26q8 20 11 25q4 6 7 9q3 4 5 12q2 7 5 10q4 10 10 20l12 20q1 2 12.5 23.5t23 43.5t12.5 23l6 10t5 9q2 5 5 9.5t6 9.5q5 12 11 19q7 8 13 19
q7 16 10 16t4 4q3 4 5 13q2 8 5 11q5 10 10.5 19.5t11.5 19.5l22 35q8 10 13 20t11 24q5 11 10.5 22t12.5 21q7 11 12.5 21.5t10.5 21.5t10 22.5t10 23.5t10.5 24t11.5 24q11 25 22 43q13 22 20 47q8 14 15 27t13 24l24 45q4 8 7.5 16t6.5 15q3 8 6.5 15.5t7.5 15.5
q3 5 6 10.5t5 12.5t5.5 12.5t7.5 10.5q3 7 7 21q3 11 11 17q0 10 4 15t8 9q10 36 18 77q7 37 18 79q-2 12 1 21q4 13 5 25q1 13 2 24.5t2 21.5t2 21t2 23q2 10 3 20t-1 18q-1 15 -13 30q-5 7 -10 13.5t-9 12.5q-20 -2 -34 -14q-12 -10 -30 -22q-22 -16 -28 -22
q-8 -6 -11 -10t-9 -10q-20 -14 -26 -27q-3 -7 -6.5 -12.5t-7.5 -10.5q-2 -2 -8 -10t-8 -10q-10 -10 -19 -22q-4 -6 -9 -12l-10 -12q0 -14 -8 -32t-8 -36q-2 -10 -1 -26t3 -28q0 -8 3 -17t7 -19q4 -16 7 -25t13 -13q10 4 16 10l12 12q1 2 2.5 4.5t2.5 5.5q3 6 7 10t7 11t7 11
q10 16 19 32t13 44q-6 38 10 72q-2 6 -1 11t1 13q24 -2 32 -22q4 -22 3 -53t-3 -61q-2 -22 -4 -38t-10 -30q-10 -20 -22 -43t-28 -39q-12 -5 -22 -13q-12 -11 -20 -15l-19.5 -13t-9.5 -7q-3 -3 -15 -8q-19 7 -27 17q-7 9 -17 13q-10 16 -22 37t-20 39q-4 7 -6 19
q-1 11 -6 21q-6 26 -13 57t-3 65q0 14 4 26l4 14l4 14q19 30 36 68q8 18 16 35.5t16 34.5q17 39 36 68q21 33 34 68q11 14 14 15q4 1 2 9q27 7 45 28q16 19 49 24q14 2 19 2q10 0 21 4q27 10 56 16q43 -6 64 -16q22 -26 27 -34t13 -22q9 -14 14 -28q8 -28 12 -59t0 -63
q-4 -12 -6 -23t-4 -23q-6 -40 -18 -79q-11 -37 -16 -77z" />
    <glyph glyph-name="O" unicode="O" horiz-adv-x="1102" 
d="M1012 1318h8q10 -51 24 -94q13 -42 18 -92q0 -16 -1 -24t1 -24v-24q0 -16 -3 -30q-3 -13 -3 -30q-1 -35 -12 -70q-2 -23 -4 -21t-2 -3q-4 -22 -6 -42q-1 -19 -6 -42q36 -4 83 -9t89 -1q10 1 19 6q5 2 9.5 4t9.5 4q36 5 54 16q21 13 48 20q-7 -21 -20 -26q-5 -18 -11 -27
q-3 -5 -11 -11q-5 -4 -9.5 -7.5t-8.5 -5.5t-8.5 -5.5t-9.5 -7.5q-30 -17 -51 -19q-20 -2 -35 -7q-14 2 -33 4t-33 0q-10 6 -22 6q-13 0 -24 -4q-21 -6 -32 -11q-4 -1 -8 -3l-8 -4q-2 -6 -3 -10.5t-2 -7.5l-3 -10q-1 -11 -1.5 -21.5t-1.5 -21.5q-2 -23 -7 -43q-8 -19 -8 -23
q0 -6 -4 -13q-6 -10 -10 -24l-8 -28q-10 -10 -12 -24t-4 -30t-10 -31t-16 -29q-4 -10 -8 -19t-10 -19q-23 -29 -46 -64q-10 -22 -21 -39q-5 -8 -10.5 -17.5t-10.5 -19.5q-16 -28 -40 -49q-12 -10 -24 -21l-24 -22q-12 -10 -24 -22l-22 -22l-42 -42q-7 -5 -14 -10.5
t-15 -10.5q-7 -5 -15 -10.5t-16 -10.5q-16 -9 -31.5 -17.5t-31.5 -16.5t-32 -17t-33 -19l-30 -19q-13 -9 -30 -15q-8 -3 -25 -5l-25 -3q-16 -4 -30 -7t-32 -3q-22 2 -49 9t-41 17q-28 26 -31 34q-4 9 -15 20q-1 8 -5 11q-3 3 -3 11q-15 22 -22 40q-18 38 -25 67t-3 61
q-4 28 -4 73v79v13.5t-1 13.5q-1 13 3 23q-2 16 -3 31t3 27l3 30q2 13 5 20q10 10 9 20t3 20q7 52 26 96l12 31q5 12 10 31q11 32 27 62q8 14 15 29t14 31q30 61 59 107q16 25 31.5 50t31.5 51q9 5 14 17q5 11 12 17q17 36 38 58l44 48q9 7 18 17q5 6 18 19q8 8 13 11t11 13
q8 4 15 10t13 12l32 24q15 11 29 25q13 13 29 23l20 2q4 0 4 6q21 17 31 29q7 8 13 19q17 11 28 23t28 23q6 7 10.5 11.5l6.5 6.5t5 4l6 4q5 6 9 9q6 4 7 7q11 5 18 9t20 9q14 -2 23 0t17 0q11 -1 19 -9q10 -10 17 -15q24 -4 37 -25q14 -21 29 -31q12 -19 23 -31t23 -33z
M864 936q10 -14 24 -25t28 -21q0 26 1.5 54t3.5 59t2.5 59t-1.5 54q-3 11 -6 21.5t-7 20.5t-6.5 21t-4.5 23q-8 8 -11 16q-1 4 -3 8l-4 8q-10 11 -10 15q0 3 -4 7l-9 8q-6 6 -9 10q-24 2 -39 -9q-7 -5 -14.5 -10.5t-14.5 -10.5q-4 -28 -2 -52t6 -46l12 -76t20 -66
q2 -14 16 -33t32 -35zM596 1110q-13 -13 -20 -18q-10 -7 -18 -20q-6 -5 -11 -10t-9 -10q-5 -7 -18 -20q-21 -21 -34 -40q-6 -4 -10 -10q-6 -8 -10 -12q-10 -13 -17 -22t-11 -14q-9 -12 -12 -20q-12 -8 -19 -21t-13 -27q-12 -16 -22 -34t-18 -36q-16 -28 -19 -38
q-3 -11 -7 -20q-8 -13 -14 -32q-34 -71 -60 -164q-2 -9 -4.5 -17.5t-6.5 -16.5q-8 -17 -9 -32q-2 -10 -1 -16q1 -5 1 -16q-1 -10 -2 -19.5t-2 -19.5t-1.5 -20t-0.5 -21v-74q0 -38 4 -70q0 -27 4 -42q4 -8 14 -16t18 -14l32 -33q17 -17 44 -7q10 -6 22 0q13 6 24 2q8 3 20 5
q13 2 20 5l31 9q8 2 15 4.5t14 4.5l16 6t16 5q13 4 30 13q38 33 58 54q15 15 28 25q14 11 26 23q10 10 20 21t18 27q13 13 20 28q10 12 15 26q5 15 15 28q12 36 28 64q8 15 14.5 30.5t11.5 31.5q18 38 31 67t19 59q5 5 7 15q2 11 5 15q10 28 17 54t15 58q-8 5 -14 3
q-6 -1 -12 3q-15 5 -29 21t-29 17q-4 3 -7.5 5.5t-5.5 4.5t-5.5 4t-7.5 4q-32 34 -61 71t-47 83q-18 40 -28 75t-18 75q-23 -23 -40 -44z" />
    <glyph glyph-name="P" unicode="P" horiz-adv-x="938" 
d="M180 158q-9 -14 -14 -36t-14 -36q-7 -16 -18 -30q-9 -11 -14 -34q-2 -16 1 -32q3 -19 -1 -30q-1 -7 -8 -15q-6 -7 0 -17q-36 -16 -64 -12t-48 18q-10 -2 -17 2t-15 10q-10 4 -9 14q2 11 -3 18q-11 33 -15 41q-5 11 -3 25q5 27 19 43q12 14 25 37q12 30 23 52t25 42
q1 6 7 14l9 12q6 13 8 17l8 15q3 5 6 10.5t5 11.5t5 11.5t6 10.5q4 10 10 20l12 20l2 6l2 6q1 5 8 10q0 13 4 17t4 19q11 13 18 25t18 25l34 55q12 19 22 41q0 10 4 17l8 15q4 6 6 14q1 7 8 12q14 40 24 64t20 46q6 14 11 19q6 6 7 9q6 15 11 26.5t9 18.5q8 16 12 31
q11 23 22 40q12 18 18 46q8 7 11 15t11 15q2 6 4.5 12t5.5 12l12 24q10 14 18 34q15 29 30 49q14 19 28 47q12 29 17 38q6 10 7 18q-13 -4 -26.5 -9t-27.5 -10q-30 -11 -64 -7q-22 4 -29 0t-15 -4q-14 -2 -17 -2q-8 0 -15 -4q-17 -6 -28.5 -10.5t-18.5 -7.5q-13 -6 -27 2
q1 8 2 16.5t2 17.5q2 18 12 30q48 40 105 69t119 57q22 6 40 11t34 13q16 34 34 64t42 54q21 13 18 10q-2 -2 8 -2q11 -5 18 -24q5 -6 9 -16q3 -9 13 -10q6 -2 13 1q10 4 15 5q21 2 31 6q9 4 21 2q8 3 23 5t23 5q15 2 25 6q11 5 27 6q49 4 110 -10q5 -3 17 -9l19 -9
q19 -9 29 -12q14 -4 23 -14q19 -19 32 -40q8 -1 14 -8q4 -4 12 -10q6 -11 12 -21l12 -20q11 -18 16 -45q5 -34 -3 -69q-4 -17 -7 -34.5t-6 -34.5q-2 -10 -4 -19t-4 -17t-1 -13t1 -15q-1 -23 -9 -46q-6 -19 -13 -44q-16 -58 -33 -110t-59 -84q-10 -16 -22 -28l-26 -26
q-26 -32 -68 -50q-58 -42 -122 -78l-48 -32q-23 -16 -52 -28q-12 -11 -31 -21q-8 -4 -17 -9l-18 -10l-85 -42q-19 -10 -40.5 -18.5t-44.5 -15.5q-36 -8 -68 -11t-60 5q-3 1 -7.5 3t-9.5 4q-12 5 -15 5q-10 -4 -16 -25q-7 -23 -10 -31q-12 -30 -28 -55q-18 -29 -30 -55
l-24 -50q-6 -13 -12 -25.5t-12 -24.5zM456 588q16 12 40 10q27 -2 42 2q18 5 21 3q2 -1 7 -1q6 0 16 2t14 4q12 4 23.5 9.5t22.5 12.5t22 12.5t22 9.5q9 9 22 17q6 4 12.5 8t13.5 9l20 20q9 9 24 14q9 14 12 17q2 2 2 3q20 14 33 33t27 41q14 18 28 37t24 41l22 29
q9 11 20 29q4 4 4 10q0 7 4 12q12 26 16 32q6 20 14 28q2 4 4 7.5t4 6.5t4 6.5t4 7.5q3 7 9 17l9 15q3 3 5 10q2 8 5 12q1 6 5 11q4 6 5 9q6 17 2 34q-4 16 -4 30q-4 15 -6.5 27t-3.5 21q-1 17 -12 28q-3 3 -10 5t-10 5q-21 8 -27 7q-7 -1 -17 3q-13 -6 -33 -3q-17 3 -41 1
q-11 0 -24 -5t-22 -1q-18 -8 -28 -8q-14 -2 -18 -2q-6 0 -16 -2q-13 -2 -25.5 -5.5t-23.5 -8.5q-21 -10 -49 -18q0 -17 -4 -28t-4 -26q-13 -37 -28 -66q-8 -16 -14.5 -32.5t-11.5 -33.5q-22 -40 -40 -83q-19 -45 -40 -85q-6 -13 -13 -26t-15 -26q-15 -24 -20 -60
q-10 -22 -15 -42q-2 -10 -5.5 -19.5t-7.5 -18.5q-2 -5 -4 -9.5t-4 -8.5t-4 -8.5t-4 -9.5q-5 -6 -6 -13q-1 -6 -6 -17q-10 -16 -13 -30q-1 -6 -3 -12l-4 -12q7 1 23 8q12 6 29 4z" />
    <glyph glyph-name="Q" unicode="Q" horiz-adv-x="1094" 
d="M840 -34q16 0 22 -10t13 -18.5t23 -5.5q15 -14 19 -22q5 -9 21 -10q14 -1 34 -8t34 -8q22 -1 40 0q18 2 42 0q8 -1 18 -2t23 -2q26 -1 27 -18q-5 -6 -10 -26q-9 -6 -16 -17q-6 -8 -18 -13q-10 -10 -16.5 -16t-8.5 -8t-5.5 -4t-7.5 -4q-19 -10 -24 -9q-2 1 -8 -1
q-10 -1 -28 -7q-7 -2 -13 -4t-11 -3q-8 -1 -15 -1.5t-13 -0.5q-13 0 -22 -4q-16 2 -34 1t-34 -3q-36 -4 -65 10t-53 30l-24 32t-26 30q-12 32 -28 42q-10 18 -15 30q-5 13 -15 20q-16 34 -28 59t-32 43q-14 -7 -20 -14q-34 -10 -56 -32q-21 -6 -41 -18q-22 -14 -41 -20
q-42 -31 -96 -22.5t-92 36.5q-16 29 -54 40q-9 11 -14 34t-14 34q0 20 -6 30q-5 31 -10 38q-5 6 -10 18q-11 16 -20 38q-10 16 -15 19t-1 9q-19 71 -12 174q3 13 5 22t3 13q1 8 6 19q36 155 90 296q5 13 10 25.5t9 25.5q8 23 21 47q3 5 6 10.5t6 11.5t6 11.5t6 10.5
q3 6 6 11.5t5 10.5t5.5 10t7.5 10q17 30 34 52q2 8 7 13q6 6 7 11q3 5 5 15t5 15q6 14 15 27t13 29q14 12 24 22t18 26q44 62 96 109t110 83q18 4 32 15t24 23q9 1 22 14q33 21 54 28q18 8 28 18q40 22 87 37t93 19h22q17 -8 19 -7t7 -1q8 -2 13 -8t15 -6q52 -62 72 -130
t32 -142q-1 -24 -0.5 -49t2.5 -51q4 -50 -2 -102q-1 -9 -2 -17t-3 -16q-1 -7 -2.5 -15t-2.5 -16q-4 -13 -7 -32q-3 -16 -13 -32q-6 -28 -17 -53t-25 -51q-3 -4 -5 -12q-2 -10 -5 -14q-4 -12 -12 -24q-12 -29 -26 -51q-13 -22 -20 -43q-22 -38 -38 -68t-30 -62l-12 -27
q-3 -7 -5.5 -13.5t-4.5 -13.5q-4 -7 -7.5 -13.5t-5.5 -13.5t-5.5 -12.5t-7.5 -10.5q-15 -25 -16 -29q-1 -7 -6 -15q-6 -8 -10 -14t-6 -10l-4 -8t-4 -9q-2 -4 -4 -8.5t-4 -8.5q-22 -22 -38.5 -61.5t-47.5 -50.5q-5 -8 -11 -12q-7 -4 -7 -14q0 -8 8 -16q6 -6 12 -14
q8 -10 11 -15t11 -11q7 -9 13.5 -18t13.5 -19q14 -19 29 -35q2 -7 4.5 -13.5t6.5 -12.5t7.5 -12.5t7.5 -13.5zM670 306q10 12 16 21q5 8 10 13q10 14 18 26t16 30q5 11 10 19t10 19q5 10 10 27q2 8 4.5 15t5.5 14q16 28 22 44t16 32q0 7 3 11q2 2 3.5 5.5t3.5 7.5q5 9 9 19
l8 20q8 23 17 37l7.5 15t6.5 14l12 25q1 15 12 26q11 30 24 60q14 30 24 60q4 9 7 25q3 14 7 23l9 23q3 7 9 23q12 35 18 67q3 17 6.5 34.5t7.5 36.5q8 34 12 68t-6 66q-2 7 -4.5 13.5t-4.5 11.5l-9 21q-20 26 -39 28t-35 2q-9 4 -22 4q-8 0 -24 2q-10 5 -21 6q-10 2 -21 6
q-22 -5 -29 -11t-21 -11q-7 -10 -18 -16q-5 -3 -10 -6.5t-10 -7.5q-12 -6 -22 -16q-11 -11 -22 -12q-40 -36 -83 -72t-85 -70q-10 -15 -24 -28q-13 -12 -18 -38q-9 -9 -17 -25t-17 -25q-13 -30 -28 -51t-28 -51q-6 -14 -11 -16t-5 -10q-3 -3 -7 -9t-7 -9q-12 -28 -23 -55
t-19 -57q-4 -14 -7.5 -28t-5.5 -28t-5 -29t-6 -31q-5 -18 -10 -32q-5 -13 -10 -34q-2 -11 -3 -22.5t-2 -22.5t-2 -24t-3 -27q-1 -25 -6 -54q-2 -14 -2.5 -26.5t0.5 -23.5q0 -13 5 -26q4 -12 3 -28q6 -6 9 -16t9 -18q13 3 26.5 6t27.5 7t28 6.5t28 4.5q19 0 26 6q20 5 29 3
q6 -1 21 -1h13.5t12.5 1t12.5 0.5t13.5 -1.5q29 -8 52 -18q25 -13 27 -14q5 -2 11 -6q17 12 27 27q10 14 27 25zM460 144q-21 -4 -43 -12q-21 -7 -45 -12q-7 -6 -20 -9q-11 -3 -16 -11q19 -5 29 -12t29 -12q26 8 45 18t41 16q11 12 23 19q13 7 17 23q-13 -1 -30 -5
q-13 -3 -30 -3z" />
    <glyph glyph-name="R" unicode="R" horiz-adv-x="1104" 
d="M576 560q12 -24 27 -45t21 -51q8 -11 8 -22q0 -13 4 -24q14 -50 35 -97t41 -89q4 -34 21 -55t21 -55q16 -38 36 -72l40 -68l20 -12q5 -3 10.5 -6.5t11.5 -7.5q10 -6 14 -9q7 -5 16 -9q11 -5 19 -6t19 -6q10 -6 13 -10t11 -10q7 -1 16 -5q7 -3 16 -1q33 -16 58 -22
q12 -3 23.5 -6.5t22.5 -7.5q10 -4 25 -8t25 -4q19 -9 26.5 -24t18.5 -28t39 -16q7 -5 9 -11t11 -13q19 -16 17 -20q-4 -6 -5 -10l-28 -4t-20 -12h-12.5t-14.5 -1q-13 -1 -25 7q-36 -2 -62 4q-25 5 -68 10q-11 0 -21.5 -0.5t-20.5 -1.5q-21 -2 -36 4q-44 18 -70 32t-54 30
q-21 10 -40 24t-40 24q-28 32 -54 62t-48 66l-13 22q-2 4 -4.5 8t-4.5 8q-7 17 -14 22q-5 4 -10 12t-10 24l-4 14l-4 14q-4 18 -8 35t-10 33q-5 14 -11 21q-7 9 -9 23q-8 22 -15 45t-11 49q-6 38 -15 59q-8 18 -13 41q-13 31 -34 70q-11 20 -20.5 37.5t-17.5 32.5q-2 5 -3 9
t-2 7q-1 6 -7 10q-11 -11 -18 -34q-6 -21 -16 -36q-22 -35 -28 -57t-18 -41q-6 -41 -22 -70q-5 -29 -20 -42q-10 -36 -24 -72q-7 -18 -13.5 -35.5t-12.5 -34.5q-5 -21 -10 -34q-6 -15 -4 -32q0 -15 -5 -28t-9 -28q-10 -28 -43 -34q-16 -3 -32 -6.5t-31 -7.5q-6 -2 -13 -4
t-15 -4q-24 -6 -51 -21q-28 -15 -55 -11q-18 4 -13 21t15 25q10 22 21 44t23 42q5 19 14 28q11 7 16 22q4 4 7 10l5 10q3 7 5 21t5 21q3 8 6 16.5t5 16.5q5 19 15 37l9 24q2 6 5 13t6 15q5 13 12 23q8 12 14 23q12 29 18 45q7 18 16 33q18 46 37 77q11 17 21 36t20 39l4 6
t4 5q4 4 6 13q8 5 12 14t12 14q8 12 12 24q5 13 12 20q20 37 38 80q2 5 3 9.5t2 8.5q2 12 5 16q11 13 15 22q4 10 7 14q4 7 8.5 13.5t8.5 13.5q5 7 9 14t8 15q10 29 27 55q17 27 27 53q12 18 14 20t2 6q26 50 47 93t43 89q-24 -5 -39 -20t-35 -22q-6 -8 -8 -10l-8 -8
q-50 -24 -92 -54t-74 -74q-14 -6 -21 -11q-5 -4 -10.5 -7t-10.5 -6q-14 -6 -36 -8t-34 14q-7 58 10 86q19 30 34 56q23 21 56 43l58 37q26 18 33 24q5 4 15 10q24 16 49 33.5t51 36.5q31 28 70 42q19 6 35 10.5t29 8.5t25 8t23 9q64 12 118 31t110 39q14 2 27 3l26 2l55 3
q8 -6 23 -5q8 1 14.5 0.5t12.5 -1.5q8 -2 16 -3.5t15 -3.5q8 -1 15.5 -3t15.5 -4q13 -12 35 -17q19 -4 43 -13l30 -15l30 -15q14 -17 13 -28q-1 -6 -0.5 -14.5t1.5 -19.5l3 -19q2 -12 3 -19q0 -8 3 -14t3 -12q1 -17 2.5 -33.5t2.5 -33.5q3 -35 -1 -67q-5 -27 -14 -41
q-5 -8 -10 -18t-10 -21q-12 -20 -26 -40t-30 -42q-3 -2 -6 -3.5t-5 -3.5q-6 -4 -7 -11q-28 -21 -48 -32q-19 -10 -38 -24l-16 -8l-16 -8q-9 -9 -20 -16q-6 -4 -11.5 -8t-10.5 -8q-16 -16 -28 -22q-11 -6 -16 -20q-44 -24 -82 -59q-34 -31 -78 -61q-8 -7 -15.5 -14t-15.5 -14
q-14 -13 -35 -24q-28 -12 -41 -22q-12 -9 -35 -14q-53 -32 -126 -40zM1022 1340q-10 -2 -20 -2q-14 0 -26 -4q-10 -2 -21 -5.5t-23 -8.5t-24 -8.5t-24 -5.5q-16 -4 -28.5 -7.5t-22.5 -6.5q-21 -7 -27 -10q-3 -3 -5 -14q-2 -12 -5 -16q-8 -20 -20 -37q-12 -16 -18 -33
q-21 -23 -32 -51q-5 -13 -10 -24.5t-10 -22.5q-13 -17 -23 -32t-17 -28l-12 -13q-2 -2 -2 -5q-24 -24 -39 -54t-37 -52q-8 -12 -13.5 -22.5t-9.5 -19.5q-8 -20 -23 -32l-15 -31q-4 -7 -7.5 -15t-7.5 -16q-17 -38 -44 -78q0 -9 -5 -16q-3 -4 -9 -14q8 -6 16 -2t14 8
q47 26 100 45q57 20 98 49q38 22 70 41t62 41l46 25q8 5 17.5 9t20.5 8q18 15 34 24q17 10 28 24q20 16 40 41t38 43q10 1 12 7q2 5 12 5q17 23 39 39q23 17 35 39q11 17 15 32q5 17 15 36q-4 15 7 33t7 31q-5 16 -16 25q-12 10 -18 23q-4 17 -9 24q-4 7 -9 20q-4 2 -7.5 4
t-6.5 4q-5 4 -20 2q-10 5 -27 3q-8 -1 -16.5 -0.5t-16.5 1.5z" />
    <glyph glyph-name="S" unicode="S" horiz-adv-x="962" 
d="M376 1160l20 32q11 17 12 29t12 29q43 24 72 53q31 31 74 51q29 20 45 27q18 8 33 19l18 8t17 8q19 9 39 14q18 5 28 11q6 4 12 6.5t12 4.5q31 11 56 18q14 4 27.5 8t26.5 8l24 10q13 6 26 4q21 -4 27 -2t9 2q17 2 27 -4q5 -3 11.5 -5.5t13.5 -4.5q12 -4 23 -6
q11 -1 21 -6q11 -4 17 -11l13 -13q10 -6 15 -10l15 -12q8 -17 17 -34t19 -34q20 -35 20 -82q-12 -18 -14 -18q-3 0 -4 -4q-11 -7 -19 -13.5t-13 -11.5l-22 -23l-28 -28q-4 -3 -14 -7q-9 -3 -10 -13q-14 -6 -26 -20q-11 -13 -26 -18q-16 -20 -44 -35q-13 -7 -25 -14t-23 -15
l-29 -18q-7 -4 -13 -10q-11 -5 -21 -10t-18 -10q-16 -10 -39 -18q-11 -5 -19 -10q-8 -6 -23 -4l-20 9q-10 5 -18 -9q-26 -4 -49 9t-25 37q-24 20 -14 54q4 15 15 32q5 8 10 15.5t9 14.5q9 16 18 35q8 17 18 33q28 30 57 56t73 36l28 8t26 8q6 -4 12 0q6 5 12 0q8 -6 6 -14
q-2 -10 -2 -18q-13 -18 -35.5 -18t-26.5 -24q-58 -50 -100 -120q6 -4 16 -10t20 -8q16 -4 37 8t33 18q56 26 100 70q12 10 25 22t19 24q4 5 7.5 10t6.5 10q6 10 16 16q3 24 -8 36t-25 24.5t-21 35.5q-10 4 -17 14t-17 14q-2 0 -6 0.5t-11 1.5l-15 2q-50 -10 -78 -22l-56 -24
q-67 -36 -126 -84q-3 -2 -6.5 -4t-7.5 -4q-10 -6 -12 -8q-8 -6 -17 -20l-8 -12t-9 -12l-21 -27q-11 -14 -15 -29q-11 -6 -16 -23q-5 -18 -14 -27q-5 -17 -10 -29t-10 -31l16 -32t11 -24q5 -10 9.5 -20t9.5 -20q1 -21 13 -39q11 -16 21 -39q29 -48 51 -97t51 -97
q6 -14 12 -27.5t11 -27.5q11 -28 33 -47q2 -7 4.5 -13.5t6.5 -13.5t7 -13.5t6 -13.5q4 -12 9.5 -25t12.5 -27q5 -13 14 -28q8 -12 12 -24q8 -18 13 -45t3 -45q0 -28 -3.5 -33.5t-9 -10t-11.5 -32.5q-19 -34 -42 -58q-24 -25 -42 -60q-10 -14 -26 -28l-28 -24
q-13 -10 -29 -18q-14 -7 -27 -20q-34 -30 -71 -43q-40 -15 -69 -35q-12 0 -24 -3t-24 -7q-10 -4 -21 -8t-23 -8q-13 -5 -17 -8q-4 -2 -17 -8q-28 -6 -60 -7t-66 7q-38 14 -59 12q-21 -1 -37 16q-10 4 -11 10t-9 12l-28 22q-8 6 -12 10q-29 24 -48 56l-12 20q-7 12 -8 18
q-4 11 -1 25q3 13 -5 25q2 14 0 30q-1 8 -1.5 15t-0.5 13q0 16 5 36q5 18 -1 28q4 26 12 39t20 29q17 8 31.5 15t25.5 14t23 13l24 12q13 6 17 8l15 8q16 9 38 16q23 7 42 16q19 11 37 18t37 18q13 0 23 6q11 6 25 6q6 0 10 -1t12 -1h22q13 0 22 -4q11 -4 18 -12q8 -8 22 -8
q14 -14 23 -31t15 -35q10 -26 10 -58q-1 -29 -21 -46q-19 -16 -35 -38q-28 -10 -62 -34q-20 2 -36 -7q-17 -10 -38 -15q-10 -1 -22 0q-13 2 -22 -2q-8 -1 -20 -8q-11 -6 -20 -2q-10 4 -15 16t-1 24q13 21 35 25q21 4 45 17q22 12 35 26q8 8 15.5 16t15.5 16q11 12 24 24
q14 12 6 32q-18 14 -41 8t-41 -14t-36 -16.5t-35 -17.5t-34.5 -17.5t-34.5 -16.5q-16 -6 -24 -14q-5 -6 -6 -16t-6 -18q-14 -31 -8 -60q5 -11 10 -19q6 -9 6 -19q15 -15 26 -30q6 -4 10 -5l12 -3q17 -11 48 -22q12 -4 37 -12t35 -8q11 -2 26 4l28 10q23 11 46.5 22.5
t47.5 23.5t47.5 23.5t46.5 22.5q35 22 54 52q18 22 30 54t18 66q2 10 2 15v13q-12 23 -11 27q2 5 -3 9q-15 26 -17 33q-4 12 -7 17q-7 11 -15.5 20.5t-18.5 17.5q-20 17 -26 48q-13 11 -17 26t-21 20l-7 17q-1 4 -3 8.5t-4 10.5q-12 14 -18 30q-14 12 -20 22q-9 15 -18 26
q-14 14 -22 24q-4 5 -7.5 10.5t-5.5 11.5q-4 11 -15 22q-6 11 -15 18q-8 7 -13 20q-29 34 -42 92q4 23 -8 42q-12 18 -6 46q11 30 22 56q6 14 11 27t9 25q11 5 12 15q2 11 6 21z" />
    <glyph glyph-name="T" unicode="T" horiz-adv-x="774" 
d="M1278 1492l12 -4q10 -16 6 -38q-1 -8 -13 -23q-5 -7 -9.5 -12.5t-7.5 -10.5q-22 -18 -25 -25q-4 -8 -15 -13q-36 -14 -56 -14q-11 0 -25 0.5t-31 1.5q-24 0 -35 -2t-35 -8q-4 -1 -7 -2t-5 -2t-5.5 -2t-8.5 -2q-9 -4 -19 -4q-9 0 -15 -6q-10 2 -12 0q-1 -1 -12 -6
q-14 -2 -19 -4t-13 -6q-5 4 -16 1q-5 -1 -10 -2.5t-10 -2.5q-16 -4 -27 -6q-9 -1 -21 -8q-2 -7 -6 -11t-2 -11q-13 -14 -20 -32q-7 -17 -22 -30l-12 -21q-7 -13 -16 -19q-5 -17 -13 -27q-10 -11 -17 -23q-16 -27 -34 -77t-34 -77q-7 -23 -22 -45t-24 -41q-8 -34 -19 -65.5
t-25 -60.5q-28 -58 -54 -120q-10 -22 -13 -25t-3 -9q-11 -11 -15 -25q-4 -13 -11 -29q-1 -5 -14 -18q-2 -5 -4 -10.5t-4 -11.5t-4 -11.5t-4 -10.5q-6 -7 -6 -16q0 -8 -4 -12q-12 -22 -12 -28q0 -4 -2 -12q-8 -16 -13 -28.5t-7 -20.5q-5 -20 -14 -31q0 -11 -4 -18l-4 -8
l-4 -8q4 -16 -6 -35q-5 -10 -9.5 -18.5t-8.5 -16.5q-12 -31 -22 -45q-7 -10 -12 -23q-12 -27 -17 -33q-7 -8 -13 -19l-19 -42q-10 -21 -21 -38v-17q0 -7 -2 -17q-4 -10 -13 -21t-15 -13q-20 0 -28 -3q-7 -3 -16 -3q-10 4 -20 12t-18 16q-11 13 -21 24t-19 19q-19 17 -20 45
q-2 14 4 28t22 18q23 47 33 78q5 16 11.5 32t13.5 32q4 8 7 15t7 17q5 11 6 17t6 17q6 16 14 30t18 30q15 27 30 59q12 25 32 57q5 14 11 21t11 21q4 11 1 21q-3 8 -1 19q1 11 11 21q9 9 9 21l19 30q5 7 9.5 14.5t9.5 15.5q9 16 13 27q3 8 9 19q9 14 10 20q6 16 12 30t16 24
q4 20 13 33t19 27q8 27 21 49q7 11 12.5 23t10.5 24q10 21 19 56t19 56q26 47 48 93q11 23 22.5 46.5t23.5 46.5h-29t-31 -1q-32 -2 -56 3q-10 0 -13 -3t-15 -1q-6 0 -16 2t-18 2q-19 2 -39 -5q-11 -4 -21.5 -6.5t-19.5 -4.5q-27 -5 -31 -13t-25 -13q-9 -4 -21 -2
q-10 2 -21 -6q-22 4 -39 21t-29 37q-4 8 -12 6q-9 -2 -10 8q-4 16 0 32q1 5 6 10q4 4 4 10q17 5 29 6t23 12q33 6 55 12q11 3 24.5 6.5t30.5 7.5q20 11 21 9q1 -1 5 -1l46 10q26 6 54 12q28 4 45 5t49 -1q36 -1 72 3l68 9q7 2 12.5 3t9.5 2l14 3q6 1 11.5 1.5t10.5 0.5
q10 0 16 8q38 8 70 14t62 11q23 4 62.5 11.5t69.5 11.5q33 4 52 9q21 5 58 1q16 -2 24 -2q6 0 13 -0.5t15 -1.5q5 -1 12 -3t15 -4q18 -5 31 1z" />
    <glyph glyph-name="U" unicode="U" horiz-adv-x="1244" 
d="M922 130q28 -7 58 0q14 4 22 12l24 9q8 3 22 9q6 4 12 7.5t11 5.5q12 5 17 9q3 2 7.5 5.5t9.5 8.5q10 10 15 8q5 11 23 21q17 9 23 19q10 0 33 16t29 22q24 10 41 5t21 -19q4 -18 -13.5 -50.5t-34.5 -41.5q0 -4 -15 -16t-15 -16q-4 -8 -20 -19t-22 -15q-4 -2 -12 -9
t-12 -11l-20 -10l-20 -10q-8 -5 -16 -11t-16 -13t-16 -13.5t-16 -12.5q-10 -4 -18 -9t-12 -15q-34 -18 -61 -45q-29 -29 -63 -41q-10 2 -17 4t-15 8q-12 39 -36 58q-11 34 -25 60q-14 27 -19 64q-15 45 -17 99l-2 52t-3 53q6 30 2 68q-10 0 -16 -7q-4 -5 -12 -11
q-10 -6 -16 -13q-4 -5 -12 -11q-18 -17 -29 -24q-8 -5 -13 -14q-6 -8 -12.5 -17t-13.5 -19t-14 -19t-14 -17q-12 -16 -18 -22q-4 -4 -6 -12q-6 -1 -12 -7t-12 -7q-6 -8 -13 -12q-4 -2 -7 -4l-6 -4q-18 -13 -36 -30q-9 -8 -18.5 -16t-19.5 -16q-18 -16 -38 -33t-44 -33
q-10 -16 -28 -25q-19 -10 -34 -19q-20 -12 -31 -6q-10 6 -19 6q-18 -4 -33 3q-12 6 -33 13q-14 7 -22 16q-7 8 -22 18q-10 6 -15 11l-15 15q-24 10 -31 31t-13 43q-8 22 -13 43t-3 45q5 35 12 66q8 34 8 60q4 15 4 34q0 20 4 32q4 24 10 40q4 22 16 44q3 14 7.5 28.5
t9.5 30.5l21 63q6 19 13 38l14 38q8 19 14.5 38t12.5 38q6 14 9 27q3 14 9 27l9 12q3 4 9 14q3 4 7 14q3 8 9 12q10 28 25 49t31 43q10 6 12 20q15 13 22 29q8 17 22 31q6 21 15 40q8 17 13 40q16 40 34 77t38 75q0 9 8 22q7 34 22 56q1 15 10 22t10 22q8 6 9 13q2 8 5 11
q8 14 23 20q14 6 25 18q8 1 16.5 2t17.5 2q16 1 38 8q20 4 29 6t19 8q20 -12 33 -29t23 -39q-8 -10 -14 -18t-10 -13q-9 -13 -18 -23q-12 -20 -22 -42l-20 -44l-22 -44q-6 -19 -15 -35t-15 -35q-5 -11 -7 -22t-5 -16q-6 -16 -15 -30q-10 -14 -11 -32q-8 -15 -15 -28t-14 -24
t-12.5 -22.5t-10.5 -23.5q-2 -3 -5 -11t-5 -11q-5 -7 -12 -22q-10 -18 -18 -39q-7 -21 -18 -39q-14 -23 -14 -27q0 -6 -4 -11q-15 -18 -16 -23q-1 -7 -6 -13q-8 -10 -11 -15t-11 -15q-7 -15 -22 -36q-16 -21 -28 -42q-8 -19 -12 -34t-12 -26q-5 -19 -10 -30q-5 -10 -10 -32
q-34 -62 -58 -128t-46 -136q0 -18 -12 -35q-13 -17 -2 -43q17 -17 24 -29t12 -17q13 -13 24 -20q25 19 43 35q20 18 49 29q7 2 11 12q4 9 9 14q33 23 65 52q31 28 67 52q48 31 87 67q41 38 87 69q12 13 20 18q18 34 45 57t55 45l9 8q2 2 4.5 4t4.5 4q26 76 53 150t65 140
q5 24 13 36t13 32q12 20 19 33t13 25q28 52 57 106t55 110q35 55 84 104q20 6 30 22q13 14 14 18q1 3 6 8l10 22q15 26 16 29q1 6 6 17q12 5 24 9t23 7t22.5 6.5t22.5 7.5q6 2 11.5 4t9.5 4q7 4 25 2q14 -12 26 -26q9 -37 -14 -48q-11 -22 -26 -42q-13 -18 -24 -42
q-47 -59 -80 -134q-17 -32 -39 -67q-19 -30 -37 -69q-16 -34 -34 -65l-18 -32t-18 -33q-12 -19 -12 -23q0 -1 -2 -7q-3 -5 -9 -17l-9 -19q-2 -5 -4 -9.5t-4 -9.5q-2 -4 -4 -9l-4 -10q-6 -8 -8 -10q-4 -4 -2 -12q-28 -57 -52 -119q-12 -31 -24 -60.5t-24 -58.5q-4 -16 -9 -30
t-10 -27t-10.5 -26t-10.5 -27q-6 -51 -24 -94q-19 -45 -26 -96q0 -48 10 -78q5 -16 8.5 -32.5t5.5 -33.5z" />
    <glyph glyph-name="V" unicode="V" horiz-adv-x="1042" 
d="M508 1376q-20 5 -31 11t-31 11q-12 4 -17 -1q-2 -2 -6 -5.5t-9 -7.5l-18 -21q-7 -8 -20 -23q-21 -27 -38.5 -54t-31.5 -53l-56 -105q7 -10 22 -15q11 -4 24 -13q32 17 51 46q10 15 20 29.5t21 28.5q5 19 16 32t16 32q2 11 1 16q-1 7 7 14q5 -20 8 -24t8 -24q4 -36 -2 -74
q-1 -4 -5 -12q-4 -7 -5 -14q-6 -19 -11 -26l-7 -10l-13 -13t-11 -15q-16 -16 -22 -34q-10 -4 -14 -11t-14 -17q-9 -6 -16 -17q-6 -9 -20 -1q-28 -6 -57 0q-14 3 -28.5 5.5t-28.5 4.5q-12 4 -16 14q-5 11 -14 12q-3 4 -5 15q-1 8 -9 13q0 9 -2 21q-1 9 0 19q1 7 5 14
q2 3 3.5 6.5t3.5 7.5q4 9 4 20t6 18q8 11 16 21.5t16 20.5q17 20 30 48q17 17 28 35q13 22 28 39q14 8 20 20q16 17 30 31.5t27 26.5t25 24.5t24 25.5q12 14 29 25t39 15q36 12 49 11q15 -1 33 3q26 -10 39 -30t27 -42q7 -13 9 -17t9 -17q8 -20 16 -48t-2 -60
q-1 -13 -3.5 -27t-6.5 -28t-7.5 -29t-6.5 -30q-2 -16 -2 -23q0 -5 -0.5 -12t-1.5 -15q-1 -17 -9 -37q-4 -10 -7 -19l-6 -18q-9 -26 -10 -45q-1 -22 -6 -45q-5 -30 -11 -60t-14 -59q-15 -57 -27 -119q-6 -34 -18 -66q-6 -16 -11.5 -32t-10.5 -32q-8 -8 -11 -23
q-1 -7 -3 -14.5t-4 -14.5q-16 -44 -26 -87t-8 -87q0 -35 -4 -63l-4 -32t-4 -33q11 1 16 20q14 14 26 33l20 33q6 8 8 10t8 10q4 5 7 13q4 10 7 15q11 15 28 32q18 18 30 34q12 19 18 32q7 15 20 28q58 93 128 180q52 70 100 133t100 125q12 25 32 47l38 41q8 8 14 17
q5 8 14 15q28 34 55 67t53 67q5 8 10 16.5t10 17.5q12 21 26 32q17 17 24 32t20 30q10 10 16 18l16 16q11 17 20 22q8 5 12 10q14 6 25 12t21 12q16 5 23 11t23 11q9 9 18 13q5 2 10 5l10 6q8 4 14 8l12 8q28 -26 22 -51t-16 -43q-6 -11 -16 -18q-5 -4 -9.5 -8t-8.5 -8
q-27 -27 -56 -68q-16 -26 -39 -52t-43 -48q-6 -10 -9 -14l-9 -12q-8 -12 -12 -19q-4 -9 -14 -13q-4 -10 -12 -16t-12 -16q-18 -16 -34 -40q-6 -8 -9.5 -12t-4.5 -5l-4 -3q-18 -28 -32 -42q-9 -13 -14 -26q-10 -10 -16 -23q-7 -15 -16 -27l-8 -12t-8 -14q-7 -16 -15 -30
q-4 -7 -8 -14.5t-9 -15.5l-7.5 -15l-6.5 -13q-7 -13 -16 -24q-10 -11 -20 -23.5t-20 -26.5q-19 -28 -42 -48q-5 -11 -11 -16q-5 -4 -13 -14t-15 -20l-14 -20l-14 -20t-15 -20q-5 -7 -9.5 -13.5t-9.5 -12.5q-4 -6 -9 -12.5t-10 -13.5q-10 -10 -19 -22t-19 -26q-8 -10 -15 -19
t-13 -21q-16 -12 -25 -31t-27 -33q-12 -20 -24 -39t-28 -41l-7 -14t-5 -18q-4 -10 -10 -16q-7 -7 -8 -16q-40 -48 -66 -87q-25 -38 -58 -71q-10 -16 -23 -30q-12 -13 -17 -28q-12 -18 -30 -35t-38 -31q-12 -10 -28 -8t-26 18q-26 14 -31 25q-4 9 -17 27q-24 4 -18 32
q3 14 5.5 27.5t4.5 26.5q4 30 7 64t5 68l2 44l2 44q2 44 6 90q2 8 1 11t-1 11q0 6 2 20t2 22v18q0 4 2 18q1 37 11 70q5 16 9 33t8 35q15 39 23 75q5 20 9.5 39t9.5 38q8 23 14.5 48.5t11.5 53.5q2 8 1 13t1 13q1 9 5 18q3 7 1 18q8 38 15 62t17 52q3 7 5 17l3 15
q8 18 17 41t17 45q3 8 6 16.5t7 17.5t6.5 17.5t4.5 16.5q6 42 6 68q0 27 -10 46z" />
    <glyph glyph-name="W" unicode="W" horiz-adv-x="1532" 
d="M1944 1514q-2 -8 1 -12l7 -10q-2 -4 -4 -7.5t-4 -7.5q-4 -7 -4 -17q-11 -13 -18 -28t-18 -28q-12 -17 -23 -33.5t-21 -32.5q-19 -31 -42 -60q-9 -12 -11 -18q-3 -8 -9 -14q-16 -18 -20 -27t-8 -19q-10 -20 -22 -36l-9 -16q-4 -7 -9 -18q-10 -16 -18 -30q-7 -13 -18 -30
q-4 -10 -9 -15q-6 -6 -7 -15q-12 -16 -24 -31t-20 -33q-8 -24 -14.5 -44t-21.5 -38q-6 -11 -12 -20t-11 -17q-5 -7 -10.5 -15t-10.5 -16q-10 -16 -17 -23t-15 -23q-16 -22 -30 -45q-13 -22 -30 -45q-12 -19 -18 -32q-7 -15 -20 -30q-8 -26 -30 -44q-22 -44 -40 -90t-36 -94
q-9 -12 -10 -22q-13 -22 -15 -27q-2 -6 -5 -9q-14 -19 -26 -38q-5 -8 -10 -15.5t-10 -14.5q-10 -12 -19 -23t-13 -27q-16 -22 -31 -44t-25 -50q-15 -18 -22 -36q-18 -18 -26 -38q-34 -34 -67 -66t-73 -60l-10 -2t-10 -3q-9 -3 -22 -1q-12 1 -23 8q-10 6 -23 4q-14 8 -28 34
q-4 17 -6 27q-2 11 -6 23q-5 13 -8.5 24t-5.5 20q-4 20 1 45l11 51q8 28 15 57t11 57q6 38 15 80t15 76l12 44t6 44q0 29 4 50q12 56 33 111t41 107q4 10 8 23t6 25q1 8 1.5 15t0.5 14t0.5 14t1.5 15q4 15 4 24q0 8 -1 12t1 12q0 10 3 20q2 5 3.5 11t3.5 13q2 16 2 24
q0 6 0.5 12.5t1.5 13.5q-33 -41 -63 -81.5t-56 -80.5t-53.5 -80t-55.5 -80q-10 -21 -24 -40q-15 -19 -26 -38q-5 -8 -10.5 -16.5t-11.5 -16.5t-11.5 -16.5t-10.5 -16.5q-4 -9 -7.5 -17.5t-6.5 -16.5q-6 -18 -16 -30q-3 -5 -6.5 -10t-7.5 -10t-7.5 -10t-6.5 -10l-21 -20
q-5 -5 -10.5 -10t-10.5 -10q-8 -3 -21.5 -23t-26.5 -41.5t-18 -29.5q-18 -44 -40 -82t-46 -76q-4 -6 -7.5 -12t-7.5 -13q-8 -15 -17 -25q-21 -32 -33 -55q-14 -26 -35 -43q-4 -10 -10 -17q-7 -8 -8 -17q-11 -12 -28 -18q-20 -7 -36 -16q-14 -8 -33 -14t-41 4q-3 1 -8 8
q-4 6 -10 6q-5 13 -13 17t-17 13q-3 3 -7 9q-1 2 -3 5l-4 6q-12 14 -23 31t-17 39q0 6 -1 11t-1 13q-1 7 -5 17q-3 8 -3 21q1 8 3 15.5t4 14.5l9 28q4 15 9 28.5t10 26.5t10 27t9 30q7 24 16 40q10 30 15.5 44t16.5 44q6 32 15 57l19 53q8 32 29 89.5t41 115t24 87.5
q6 10 10 23q2 7 4 12.5t4 10.5q8 28 23.5 73t26.5 79q14 42 27 82t21 72q8 18 11 47t3 57q-49 -34 -81 -63l-32 -28t-33 -27q-8 -13 -21 -20q-10 -6 -23 -22q-10 -1 -16 -9q-5 -6 -16 -11q-21 -8 -50 -8q-4 0 -12 2t-12 2q-10 0 -24 -6l-24 -10q-4 -2 -7.5 -4t-5.5 -4
t-5.5 -4t-7.5 -4q-10 -4 -18 -1q-9 4 -18 5q-10 2 -14 1q-5 -1 -12 7q5 11 11 16t11 16q17 11 30 30q11 5 16 11q4 5 14 13q7 7 14 11t14 13q23 11 39 27q17 17 39 27q23 14 31 21q10 8 23 15q10 8 15 13t15 13t19.5 15t18.5 14l36 27q20 28 41 40t43 22q10 6 20 11t22 3
q8 0 11 -1t11 -1q19 0 29 -8q12 -10 23 -16q10 -8 15 -11q6 -4 11 -15q10 0 20 -10q2 -6 4.5 -12t5.5 -11q6 -10 4 -27q-1 -5 -2 -9.5t-2 -9.5q-1 -4 -2 -9l-2 -10q-8 -14 -12 -24l-8 -20q-4 -7 -3 -18q1 -6 -1 -20q-2 -10 -4.5 -20t-5.5 -20t-5.5 -20.5t-4.5 -21.5
q-4 -5 -4 -13q0 -5 -2 -13q-13 -25 -27.5 -62t-22.5 -60q-4 -15 -9 -28t-9 -28q-2 -8 -4 -16.5t-4 -18.5t-4 -19l-4 -18q-6 -18 -11 -36t-9 -36q-2 -8 -13.5 -45t-22 -73t-10.5 -42q-2 -8 -1 -12q1 -5 -5 -10q0 -16 -7 -29q-4 -7 -7.5 -14l-7.5 -15q-3 -8 -5.5 -15.5
t-4.5 -15.5q-5 -18 -14 -29q-9 -28 -22.5 -65t-21.5 -58q-20 -55 -38 -129l9 -9t9 -5q10 0 26 10q18 8 26 16q5 5 6 10q1 3 2 5.5t2 4.5q12 14 14 22t8 10q5 23 17 34q13 11 19 32q7 5 8 13t8 13q8 21 32 62.5t34 59.5q2 7 4.5 13.5t6.5 11.5t7.5 11.5t7.5 13.5l24 36
q6 10 12 16t14 16q4 8 7 13t7 11l24 32q8 10 13 15l15 15q16 20 22 34q7 18 20 32q10 26 24 48t30 44q12 24 24 47t28 45q12 26 30 44q12 24 14 24q11 17 22 33t22 31q20 27 46 64q5 6 9 12l8 12q8 13 17 22q16 28 32 48t32 36q24 17 31 18t13 6q17 11 21 15l9 9q4 4 8 9
t4 11l13 12q6 6 9 10q10 10 17 20t23 0q9 -5 16 -18q11 -11 16 -24q2 -11 -1 -23q-3 -14 1 -25l8 -22l8 -22q8 -25 4 -54q-8 -15 -11 -33q-1 -10 -3 -19.5t-4 -19.5q-6 -25 -12 -38t-4 -26q-9 -19 -10 -34q-1 -17 -6 -34q-7 -33 -16 -57q-10 -27 -12 -57q-1 -28 -12 -67
q-5 -19 -8.5 -36.5t-5.5 -32.5q-4 -13 -1 -23q3 -9 3 -21q-4 -28 -4 -45q0 -7 -0.5 -13.5t-1.5 -13.5q-1 -5 -2 -10.5t-2 -10.5t-2 -10.5t-2 -10.5q-4 -13 -6 -27q-1 -11 -8 -23l-4 -24t-4 -25q-5 -29 -10 -45q2 -8 -1 -15q-4 -10 -5 -15q-4 -10 -3 -22t-3 -22l-3 -23
q-2 -15 -5 -23q-11 -26 -9 -40q1 -13 -5 -24q2 -17 -7 -33q-9 -17 -5 -33q10 7 16 18q3 5 6.5 10t7.5 10q4 7 14 17l8 8t8 9q16 16 28 38t22 44q4 6 9 18t9 22q20 31 36 68q4 8 7 15t5 15q3 9 5.5 18t4.5 18t4.5 18t5.5 18q3 5 7 15t7 15q21 44 44 74q15 32 43.5 79.5
t42.5 78.5q7 5 9 11q3 8 7 13q6 24 13 37q6 13 13 31q6 5 9 12q3 8 9 12q7 17 17 32l19 30q13 20 20 34q12 24 14 26q9 10 18 24.5t14 19.5q9 21 14 25.5t14 26.5q17 23 18 28t16 26q5 5 6 12q2 8 6 12q19 25 23 32q5 9 11 16l20 28t20 30q10 10 20 17q11 8 20 17
q13 0 28 20q25 6 41 22q8 8 17.5 16t19.5 16q14 10 27 20t23 24q18 16 41 18t35 -12z" />
    <glyph glyph-name="X" unicode="X" horiz-adv-x="1224" 
d="M1532 1510q-2 -14 -8 -19q-4 -3 -12 -13q-7 -5 -11 -12q-6 -9 -15 -16q-5 -6 -9.5 -12t-9.5 -12q-8 -11 -21 -22q-5 -15 -12 -22l-18 -18q-13 -13 -20 -18l-10 -8l-10 -8q-9 -8 -17.5 -16.5l-16.5 -16.5q-16 -16 -36 -33q-28 -26 -34 -44q-16 -16 -30 -39
q-14 -24 -32 -43q-10 -10 -15 -14q-8 -7 -15 -16q-8 -10 -16 -18t-18 -14q-11 -18 -26 -33q-16 -16 -26 -31q-16 -10 -20 -24q-18 -11 -32 -34q-23 -19 -39 -40q-16 -22 -39 -42q-10 -16 -28 -34q-11 -13 -22 -25.5t-22 -23.5t-22 -24t-22 -27q-6 -8 -14 -16t-14 -18
q-2 -8 0 -20q2 -16 2 -20q10 -53 10 -104q2 -17 3 -34l2 -34q2 -35 13 -58q0 -28 9 -51q8 -21 15 -49q4 -9 4 -21v-23q5 -49 18 -98q7 -25 12.5 -50.5t9.5 -51.5q2 -16 5 -31t9 -29q14 -17 14 -20q0 -2 2 -8q4 -8 15 -16t21 -12q12 -10 23 -15t19 -11q16 6 20 2q2 -2 10 -8
q12 -4 28 -2q14 2 30 0q10 0 20 -3q11 -3 24 -3l42 6q8 2 16 3l16 2q17 2 24 11q4 -48 -16 -68q-8 -3 -15.5 -6t-15.5 -5q-12 -4 -29 -13q-25 -4 -49.5 -7.5t-48.5 -6.5q-7 0 -19 -2t-17 -2q-4 0 -12 2t-12 2l-10 -2l-10 -2q-14 -2 -22 -2q-11 3 -17.5 5t-8.5 3q-4 1 -10 0
q-33 17 -52 48q-28 17 -52 44q-25 28 -48 50q-4 16 -10 33t-18 31q-4 22 -7 49t1 55q-4 4 -3 11q1 5 -1 13q-24 20 -29 44t-9 44q0 22 -4 38q-4 18 -6 36l-4 32v30q-2 19 -3 39t-2 41l-3 86q-11 -10 -21 -21l-20 -22t-20 -21.5t-21 -19.5q-6 -10 -15 -16t-15 -18
q-30 -22 -43 -33t-23 -27q-20 -16 -32 -38q-24 -18 -48 -49l-44 -57l-12 -12t-6 -14q-12 -13 -21.5 -23t-17.5 -18q-7 -7 -15 -16t-16 -19l-40 -48q-19 -23 -44 -42q-10 -6 -19 -12t-19 -14q-7 -5 -15 -9l-16 -8l-33 -15q-19 -10 -41 -15q-21 -4 -45 -15q-16 -6 -30 -18
q-13 -12 -34 -12q-3 3 -10 5t-10 5q12 24 24 45t24 45q18 24 36 47t38 45q10 11 20.5 21t20.5 20q21 20 39 45q11 11 22 26q8 8 11 13t11 13q56 60 113 116q55 53 109 120q10 10 21 22t21 26q28 25 44 46q9 2 13 9q3 5 11 13q18 16 27 25t17 19q9 12 18 24.5t18 25.5
t19 25.5t21 24.5q7 7 14 18q4 6 10 10q7 5 8 10q2 10 -2 28l-3 39q-1 21 -3 39v27q0 7 -0.5 13.5t-1.5 13.5q0 10 -2 26t-2 24q-1 8 -1.5 15t-0.5 14v29q-2 10 -3 19.5t-2 18.5t-2 19t-3 21q4 17 1 31q-1 7 -2.5 14t-2.5 15v20q0 11 -4 18q-4 6 -10 10t-10 10q-15 11 -22 18
q-12 16 -24 15t-22 -3q-24 -6 -41 -20t-33 -32q-8 -8 -13 -12t-11 -10q-13 -19 -19 -23q-4 -3 -9 -11q-20 -18 -38 -44q-1 -33 -20 -72q-18 -37 -24 -78v-22q-2 -24 1 -27l7 -7q23 -13 33 -6q11 8 23 8q20 24 26 55t12 63q1 8 1.5 15t0.5 13v24q0 10 -2 28q-2 16 8 28
q6 -2 8 -7q1 -4 8 -9q10 -6 16 -16l4 -8l4 -8q0 -28 -3 -61t-7 -65q-4 -38 -14 -70t-42 -54q-11 -6 -22 -11t-22 -9q-20 -8 -32 -4q-30 8 -54 30q-10 19 -26 42q-13 19 -18 50v16q0 7 4 18q13 68 44 128q8 20 15 31t17 25q6 8 12.5 16.5t13.5 17.5l28 36l68 68t66 68
q17 11 34 25q18 15 36 27q11 7 22 18q7 4 18 4q6 0 20 2q4 1 7.5 2t6.5 2q6 1 10 -6q19 4 33 -2q12 -5 29 -10q8 -7 18 -15q11 -8 16 -17q5 -5 6 -13q2 -9 6 -15q8 -14 11 -28q2 -7 3.5 -14.5t3.5 -15.5q-2 -18 1 -24q3 -9 -1 -22q4 -16 3 -33t-3 -39q6 -12 6 -26v-30
q-2 -14 -2.5 -27.5t0.5 -27.5q1 -13 2 -27l2 -28q2 -15 3 -31.5t2 -33.5t2 -33t3 -30q13 7 24 26q17 13 28 28q7 9 14 17.5t14 16.5q18 16 34 35t30 39q14 8 23 18q6 7 19 20q14 16 28.5 31.5t29.5 29.5q28 26 58 63q18 22 37 43t39 43q20 20 39 42t37 44q11 5 16 10
q7 7 16 12q18 0 30 2t22 10q19 0 24 8q24 5 44 17q19 11 44 23q18 8 34 15t24 -11z" />
    <glyph glyph-name="Y" unicode="Y" horiz-adv-x="1202" 
d="M858 1446l4 -22q2 -27 -4 -44q-3 -9 -5.5 -18t-4.5 -18q-10 -19 -18 -30q-9 -12 -14 -24q-3 -4 -5.5 -8t-4.5 -8t-4 -7.5t-4 -6.5q-5 -9 -14 -18t-14 -18q-3 -5 -6 -9.5t-5 -9.5q-2 -4 -5 -9l-6 -10q-10 -14 -19 -28t-17 -30q-6 -10 -9 -14q-6 -8 -7 -16q-10 -12 -23 -28
t-21 -32q-5 -8 -10 -24q-5 -15 -11 -25q-3 -5 -9 -13t-12 -16.5t-13 -16.5q-13 -16 -19 -39q-6 -35 -22 -58q-17 -25 -30 -52q-6 -14 -12 -28.5t-13 -29.5t-12.5 -30t-10.5 -30q-6 -18 -12 -35.5t-13 -34.5q-12 -31 -17 -74q16 -16 37 -5t31 23q20 8 32 24q38 16 62 39
t50 51q11 1 18 10q6 8 16 12q24 36 55 69t63 61q4 10 12 16q10 8 16 14q14 14 26 29t28 31q6 10 16 16q11 6 16 10q9 9 20 16q17 15 44 33t44 33q10 12 21 25t25 23q5 11 10 21l10 20q11 21 18 41q16 19 24 40q33 47 47 89.5t29.5 82.5t49.5 80q16 14 38 25t44 21
q30 13 60 14q33 2 58 6q12 -4 12 -14q0 -5 -0.5 -11.5t-1.5 -14.5q0 -15 -7 -26t-7 -22q-16 -35 -31.5 -64.5t-30.5 -53.5q-4 -11 -7.5 -21t-6.5 -20q-6 -20 -16 -41q-3 -5 -9 -17t-9 -17q-6 -10 -11 -13t-11 -13q-2 -6 -3.5 -11t-3.5 -10q-4 -12 -7 -19l-8 -16l-8 -16
q-14 -23 -18 -34q-2 -6 -4 -11.5t-4 -10.5q-9 -14 -17 -37q-7 -20 -21 -37q-12 -19 -12 -24q0 -4 -4 -8q-14 -20 -14 -23q0 -1 -2 -7q-10 -17 -17 -31.5t-12 -26.5q-10 -26 -25 -48q-6 -18 -12 -36.5t-11 -37.5t-11.5 -37t-13.5 -35q-2 -16 -5.5 -30.5t-8.5 -27.5t-10 -27
t-10 -29q-16 -34 -22 -66q-12 -25 -21 -42q-8 -15 -13 -36q-21 -18 -28 -36q-9 -6 -13 -13q-2 -4 -5 -9l-6 -10q-5 -5 -8 -7q-5 -3 -6 -13q-29 -35 -56 -65q-25 -28 -48 -63q-22 -22 -43 -46q-10 -12 -21 -24l-22 -24q-22 -20 -43 -40t-37 -42q-22 -16 -42 -33t-38 -33
l-57 -44q-13 -10 -25.5 -19.5t-25.5 -18.5q-15 -10 -29.5 -18.5t-28.5 -16.5q-14 -7 -28 -16t-28 -19l-28 -11q-4 -1 -8.5 -3t-9.5 -4q-10 -1 -21 -6q-9 -4 -19 -4q-10 5 -14 4t-8 0q-14 6 -18 5q-3 -1 -8 -1q-7 1 -17 7t-17 9t-17 5q-8 2 -15 7q-18 21 -33 25q-18 5 -31 15
l-9 9t-11 9q-12 9 -20 30q-4 9 -4 18t-4 18q-14 40 -26 85t-12 93v38q1 9 5 18q3 8 3 18q0 7 -3 11q-4 5 -5 11q-2 8 -4 21t2 21q2 4 11 15t15 15q25 6 36 16t28 16q14 -5 23 3t21 9q24 4 40 -23t6 -57q-4 -14 -8 -29t-6 -31q-4 -28 -3 -65t5 -65q2 -10 4 -21.5t4 -24.5
t4.5 -24t5.5 -20q18 -31 52 -64q6 2 14 2t16 -2q20 11 30 15l20 9q32 23 73 60q38 35 73 64q34 24 56 52q26 34 56 64q8 10 16.5 19.5t16.5 18.5l33 36q16 20 32 39t32 37q17 29 32 47q17 20 30 43q18 19 32 43q14 23 30 45q20 32 37 63t31 71q8 22 15 40t15 38q13 33 27 62
q8 16 14 32t11 32q-11 -7 -20.5 -14t-17.5 -14t-17.5 -13.5t-20.5 -12.5q-14 -16 -29 -29t-31 -25q-24 -31 -54 -57q-15 -13 -29.5 -26t-28.5 -27q-30 -28 -55 -58t-55 -58q-7 -1 -20 -14q-15 -7 -29 -21q-13 -13 -33 -21q-6 -2 -10 -2q-7 0 -12 -4q-4 -1 -7.5 -2t-5.5 -2
t-6 -2t-9 -2t-10 -3l-10 -4l-10 -4t-10 -3q-18 -2 -45 4t-47 12l-18 7q-9 4 -16 9q-15 11 -20 26q-6 17 -16 34q-6 11 -13 19q-6 7 -11 19q2 12 -2 21t-2 25q0 10 3 18t7 18q2 10 4 19t6 19q6 30 15 57t19 53q34 72 60 127t64 101q12 26 21 44t21 34q20 44 39 84t47 74
q12 45 33 80q11 17 21 35.5t20 38.5q-22 -4 -38 -19q-15 -14 -36 -25q-45 -26 -70 -63q-24 -35 -64 -61l-33 -27t-21 -19q-27 0 -46.5 -11t-40.5 -19t-51 0q-14 -6 -36 2q-10 6 -14 9q-7 5 -16 5q-14 8 -19 30t3 40q24 14 50 24l15 7.5t14 7.5t14 7.5l15 7.5l12 6t11 5
q11 5 23 15q34 28 70 52q53 50 117 90q66 41 113 96q15 1 27 10q12 8 25 4q50 -18 72 -32q20 2 36 -8q9 -5 17 -9t15 -7q12 -4 21 -8t21 -22z" />
    <glyph glyph-name="Z" unicode="Z" horiz-adv-x="1062" 
d="M1248 1454q-1 -4 -10 -6q-7 -1 -10 -4q10 -22 4 -52q-5 -31 -22 -53q-18 -22 -30 -45q-16 -12 -28 -26l-24 -28q-16 -12 -31 -28q-13 -14 -33 -26q-7 -12 -22 -20q-9 -15 -21 -28l-21 -24q-10 -12 -22 -24t-26 -22q-32 -38 -58 -68t-54 -58q-12 -22 -26 -35
q-15 -13 -26 -39q-28 -27 -34 -37q-7 -12 -18 -25q-5 -9 -12 -13t-12 -11q-6 -8 -11 -15t-9 -13l-44 -51q-11 -13 -22 -25.5t-22 -25.5t-21.5 -25.5t-21.5 -25.5q-21 -26 -43 -49q-28 -40 -59 -80t-61 -78q-28 -45 -58 -74q-9 -19 -29.5 -49.5t-41.5 -60t-33 -46.5
q-4 -1 -10 -7l-8 -9q76 1 147 14t121 14q9 1 19 2.5t20 2.5q11 2 21.5 3t21.5 2q13 0 20 -1t20 -1h33q8 0 16.5 0.5t16.5 1.5q18 -4 36 -6q18 -1 36 -6q17 -4 33 -6q17 -1 33 -6q10 -6 20 -10q6 -2 11 -2q8 0 13 -4q7 -2 15 -4l16 -4q19 -5 29 -14q4 -9 15 -17q5 -4 10.5 -8
t10.5 -9q24 -24 -4 -42q-8 -3 -16 -6.5t-16 -7.5q-16 -7 -38 -6q-18 -16 -40 -14q-10 1 -22 0.5t-26 -2.5q-14 -12 -37 -18t-33 16q-24 8 -48 4q-26 -5 -50 0q-42 8 -63 5q-11 -1 -22.5 -2.5t-22.5 -2.5q-42 -1 -81 -6q-19 -2 -39 -4l-40 -4q-29 -8 -64 -9q-38 -2 -64 -7
q-28 0 -58 -4l-60 -8q-16 -2 -29.5 -4.5t-24.5 -6.5q-23 -8 -40 -9q-39 -4 -58 28q-4 17 -9 28l-9 22q-6 44 16 76t42 56q13 26 32 42q16 24 32 46t34 38q19 34 48 55q26 19 50 51q38 39 56 66q10 14 21 26.5t23 23.5q13 18 26 30q14 22 28 40t30 34q6 10 16 16q33 50 72 97
q38 45 72 93q46 40 80 75t54 83q8 9 15.5 17.5t14.5 16.5q13 16 32 30q11 7 20 16q11 11 16 20q6 11 16 22q7 8 14.5 16t14.5 16q8 8 15 16l14 16q6 6 9 10t11 10q4 10 12 16t12 18q22 23 45 58q11 16 21.5 30.5t21.5 27.5q-25 4 -53 -2l-55 -12q-28 -4 -54 -10l-52 -12
q-10 -4 -21 -8t-23 -6q-9 0 -23 2q-10 2 -21 0h-29q-15 0 -27 4q-15 4 -28 4q-16 4 -28 3q-10 -1 -22 7q-12 10 -24 11t-30 1q-24 0 -48 1t-44 13q-25 14 -29 18q-4 5 -9 12q-12 20 -9 33t11 17q25 0 33 4q5 2 9.5 4t9.5 4q21 4 38 7t30 4q13 2 25.5 3.5t24.5 3.5q26 5 52 9
t51 8q26 4 51 9.5t50 13.5q29 0 58 10h126q29 0 59.5 -1t62.5 -3q9 4 24 2l28 -4q29 -1 66 0q38 2 70 -12q23 -13 24 -18z" />
    <glyph glyph-name="bracketleft" unicode="[" horiz-adv-x="472" 
d="M886 1492q-8 0 -14 -7q-4 -5 -14 -11q-26 -6 -38 6q-25 -4 -45 -4h-39q-24 -23 -30 -47q-6 -26 -22 -49l-10 -13q-4 -5 -10 -15q-32 -69 -56 -136q-24 -72 -57 -146t-71 -144q-14 -25 -26 -58q-10 -30 -24 -60q-44 -93 -83 -190q-19 -49 -39.5 -97.5t-41.5 -96.5
q-6 -16 -11 -31t-9 -31q-28 -52 -50 -103t-44 -103q-5 -11 -10 -19t-10 -19q-16 -34 -29 -70t-23 -70q29 -6 58 1q30 8 60 -3q4 -10 2 -23t-16 -27q-16 -10 -33 -10q-18 0 -33 -4q-15 4 -35 1q-19 -3 -35 -3q-26 2 -34 0q-7 -1 -18 0q-4 0 -12 2q-3 1 -6.5 2t-7.5 2
q-13 4 -25 6q-10 1 -15 10q-6 17 1 42q8 26 3 46q8 28 17 56t23 58q16 40 36 80t38 74q5 10 8.5 19.5t5.5 18.5q5 19 20 34q28 76 70 155q42 80 78 153q14 26 23 52q5 13 9.5 25.5t9.5 24.5q3 5 7 15t7 15q10 24 19 44t21 46q6 16 13 31.5t15 30.5q20 36 33 67l14 34t15 35
l10 22t9 21q5 11 9.5 21.5t9.5 21.5q10 21 16 44t16 44q17 42 34 80q17 39 22 74q4 4 9 13t7 13q18 22 37 44t47 32q36 18 71 15q17 -1 35.5 -1.5t37.5 0.5q6 0 16 2t16 2q10 0 17 -3q8 -3 15 -3q11 0 24 5t20 1q9 -4 3.5 -12t-11.5 -16.5t0 -15.5z" />
    <glyph glyph-name="backslash" unicode="\" horiz-adv-x="518" 
d="M410 1482q2 -24 4.5 -49.5t6.5 -52.5q8 -54 9 -108q2 -75 -7 -142q-9 -70 3 -138q2 -10 4 -19.5t3 -18.5q2 -9 3.5 -18t3.5 -18q2 -16 4 -27t3 -17q4 -15 5 -26q4 -52 1 -114t1 -118q2 -30 2.5 -59.5t-0.5 -58.5q-1 -58 0 -116l3 -80q1 -20 1.5 -39t1.5 -37v-53
q0 -28 4 -49q-5 -30 -6 -64q-1 -33 -22 -52q-7 -5 -14.5 -10t-15.5 -10l-9 -4.5t-10 -5.5q-10 -6 -19 -4q-17 15 -25 17q-9 2 -13 5q-16 8 -20 15t-6 29q0 13 -1 19t-1 15q-2 26 2 43q2 11 4 21.5t4 21.5q4 22 3 48t-3 50l-9 80q-2 20 -4.5 41.5t-4.5 44.5q-4 20 -4 45
t-4 45q-5 23 -6 46q-1 12 -2 23.5t-2 22.5q0 22 4 50q1 17 1.5 36t-0.5 39t-0.5 38.5t1.5 34.5q0 17 -0.5 34t-1.5 34t-1.5 34.5t-0.5 35.5v64.5t1 66.5t0.5 66.5t-1.5 64.5v16.5t-1 17.5t-1 17.5v16.5q0 9 0.5 18t1.5 17t1.5 17t0.5 18q0 27 -4 48q-5 24 0 50q10 24 10 34
q0 6 2 12q1 3 8 8q6 4 10 10l9 12q3 4 13 4q17 0 32 -4q8 -6 11 -11q5 -7 15 -15q5 -4 10 -4t12 -4z" />
    <glyph glyph-name="bracketright" unicode="]" horiz-adv-x="460" 
d="M-232 -48q8 -2 14 6t16 12q20 8 38 -6q21 4 42 4h40q24 22 31 47q8 27 23 49q6 10 9 14t9 14q18 34 31 68l27 68q24 72 55 146t71 144q14 25 26 58t26 58q20 47 40 95.5t40 97.5q41 99 84 195q13 31 20 60q13 26 25 52t23 51q11 26 22.5 51.5t23.5 51.5q5 11 10 19t10 19
q14 34 27 70t25 70q-31 6 -59 -1q-29 -8 -61 3q-4 10 -2 23t18 27q16 10 32 10q17 0 32 4q15 -4 35 -1t35 3q26 -2 35 0q12 2 17 2q4 -1 7.5 -2t6.5 -2l6 -2l6 -2q14 -4 24 -6q9 -1 14 -10q8 -18 1 -42q-8 -26 -3 -46q-8 -26 -18 -54.5t-22 -59.5q-15 -38 -36 -79
q-10 -19 -19 -37.5t-17 -35.5q-11 -23 -15 -40t-21 -34q-28 -78 -69 -156q-20 -39 -39.5 -77t-37.5 -75q-14 -26 -23 -52q-10 -27 -21 -50q-3 -5 -7 -15t-7 -15q-11 -24 -18 -43l-9 -22.5t-11 -26.5t-13 -29t-17 -31q-21 -37 -32 -66q-6 -16 -13 -33t-15 -35l-40 -88
q-11 -23 -15 -44t-15 -44q-8 -20 -16.5 -39.5t-18.5 -39.5q-18 -36 -23 -73q-2 -3 -4 -6.5t-4 -8.5q-5 -10 -8 -13l-36 -44q-17 -21 -46 -32q-34 -16 -72 -14q-36 2 -74 0q-11 0 -16 -1t-16 -1q-7 0 -17 2t-15 2q-11 0 -23 -4q-13 -4 -23 0q-12 4 1.5 18t8.5 24z" />
    <glyph glyph-name="asciicircum" unicode="^" horiz-adv-x="1072" 
d="M892 1284q-14 -8 -25 -19t-21 -23q-13 -25 -24 -36l-20 -20q-13 -23 -27 -37q-7 -7 -12.5 -13t-10.5 -12q-7 -8 -13.5 -16.5t-12.5 -16.5q-13 -18 -28 -29q-10 -8 -17 -14t-11 -10q-7 -7 -18 -12q-22 -18 -42 -38t-40 -42q-5 -5 -13 -10q-6 -4 -11 -10q-14 -14 -29 -34
q-13 -18 -31 -34q-28 -34 -59 -66t-63 -64q-10 -10 -17 -20t-15 -22q-33 -29 -56 -64q-16 -13 -26 -26q-20 -16 -41 -29t-43 -21q-24 2 -42 18t-22 38q4 12 9 22t19 26q10 16 18 24q14 14 30 36q29 35 68 72q36 34 64 64q34 46 71 85t77 75q22 18 40 37q16 18 40 35
q8 10 16 19t18 15q28 28 56 59q29 32 56 59q8 11 16.5 20.5t16.5 17.5l16.5 16.5t16.5 17.5q11 17 23 29q13 13 23 29q6 10 16 16q3 4 7 12q3 6 9 12q15 20 36 38q10 8 20 17t20 19q20 16 43 24t49 16q17 0 19 -5t7 -9q1 -5 2 -9l2 -8q2 -10 2 -17q9 -22 10 -43q2 -24 6 -43
q-2 -33 1 -57t1 -57q0 -23 2 -29t-2 -11q16 -17 16 -53q0 -17 0.5 -33t1.5 -30l7 -27q3 -10 3 -27q2 -19 -4 -39q-6 -22 -2 -39q-5 -12 -7 -27l-3 -27q-4 -32 0 -58t20 -42q0 -17 8 -36q7 -18 6 -40l-3 -25q-2 -17 -5 -25q-7 -29 -29 -46q-21 -16 -43 -40q-9 -5 -20 -16
q-10 -10 -22 -16q-17 13 -24 14q0 12 -3 24q-4 15 -5 26q0 18 -2 28q-8 15 -7 23q1 7 -1 17q0 12 -3 21q-3 10 1 21q-11 35 -15 71q-2 19 -5 37.5t-6 37.5q4 18 7 35t-1 29q-1 16 -1.5 31t-0.5 29q-1 7 -1.5 14t0.5 14t0.5 14.5t-1.5 15.5q-1 14 -6 24q-4 11 -6 24v30
q-2 14 -1 20q2 11 -3 18q4 17 4 44l2 12t2 11q2 13 -2 19z" />
    <glyph glyph-name="underscore" unicode="_" horiz-adv-x="784" 
d="M748 4q-5 -6 -10 -9t-10 -9q-20 -6 -38 -7t-40 -1q-14 2 -26 1t-22 -3q-14 -1 -29.5 -1.5t-32.5 -0.5h-56q-9 0 -18 0.5t-18 1.5t-18 1.5t-18 0.5h-31t-29 -1t-29.5 -0.5t-32.5 1.5q-27 1 -56 6l-56 8q-44 6 -92 3t-90 9q-22 -4 -41 -9t-33 -15q-26 -2 -52 -3t-52 1
q-13 6 -22 26q-4 30 10 48q16 19 26 36q3 4 7 12q2 5 11 10q23 10 50 7q13 -1 25 -2.5t23 -2.5q13 0 25 0.5t23 1.5q22 1 44 -6q24 0 36 4q11 4 34 2q16 0 23 -1t23 -1q14 1 28 1.5t28 -0.5t28 -1h28q32 2 65 2.5t67 -1.5q65 -3 142 5q33 -6 72 -2q20 2 39.5 3t38.5 1
q13 2 22 -2q11 -5 22 -6q34 -4 42 -18t4 -30q-1 -11 -14 -30q-6 -11 -16 -15t-4 -15z" />
    <glyph glyph-name="grave" unicode="`" horiz-adv-x="1102" 
d="M692 1538q4 -1 10 0q6 2 12 0q30 -14 48 -36t30 -48q27 -19 42.5 -47t32.5 -55.5t47 -47.5q8 -10 1 -26t-23 -36q-30 -24 -58 -24q-23 13 -40 30q-10 -1 -14 1q-4 3 -12 3q-40 46 -64 85t-58 73q-10 24 -15 27q-4 3 -9 9q-25 12 -9 31q8 10 15.5 18.5t13.5 16.5
q30 6 50 26z" />
    <glyph glyph-name="a" unicode="a" horiz-adv-x="848" 
d="M630 556l-2 -16q2 -7 -4 -24q-10 -12 -12 -26l-7 -14t-5 -16q-4 -12 -3 -28q1 -8 0.5 -15.5t-1.5 -14.5q-4 -22 -6 -43t-4 -43q0 -22 -4 -50t-8 -50q9 -16 10 -30q1 -15 14 -26q40 6 64 19t46 37q16 7 25 14q8 7 23 16l16 16q24 13 27 16q2 2 5.5 4t7.5 4q34 22 52 46
q15 12 25 25q8 11 31 21q13 16 29 27t29 27q11 0 16 -4q3 -2 6.5 -4t7.5 -4q6 -16 2 -33t-14 -31q-10 -13 -10 -16q0 -2 -2 -4q-6 -7 -15 -15q-9 -7 -15 -15q-10 -18 -16 -18t-10 -4q-18 -11 -25 -16q-8 -7 -23 -16q-21 -11 -26 -16t-8 -6q-24 -27 -47 -45q-21 -16 -45 -45
l-16 -12t-14 -16q-18 -12 -29 -24t-25 -28q-12 -6 -26 -17q-17 -13 -30 -19q-5 -3 -17 -9q-10 -5 -19 -5q-23 -4 -44 4q-19 7 -38 12q-8 12 -20 20q-18 22 -26 52t-16 64q-18 -12 -30 -26q-12 -15 -36 -26q-20 -19 -41 -37.5t-44 -35.5q-22 -17 -45 -35.5t-46 -37.5
q-16 -16 -22 -12q-18 -22 -64 -14q-16 8 -36 14q-14 4 -32 12q-34 6 -57 30t-39 56q-6 17 -9 30q-1 7 -3 15t-4 17q-1 17 -6 27q-4 11 0 21q-4 5 -2 13q2 10 2 15q-2 28 5 60t19 58q6 10 16 20q5 6 6 12q1 5 6 10q5 6 12 12q10 8 14 12q5 7 10.5 13.5t12.5 11.5t13 11l12 12
q7 7 11 14q5 8 15 12q8 14 18 23t22 19q34 41 84 70q51 29 90 64q14 6 24 14l20 16q25 22 54 14l52 -14q20 -18 39 -36t33 -40q7 1 15 1.5t17 -0.5q18 -2 38 3q6 0 12 3t10 3q30 -10 30 -30zM366 526q-54 -26 -98 -61t-84 -75q-5 -5 -10.5 -9.5t-10.5 -9.5q-5 -4 -10 -9
t-9 -10q-8 -10 -15 -24l-13 -26q-2 -4 -4 -7.5t-4 -5.5t-4 -5l-4 -6q-4 -10 -3 -20q1 -7 1 -22v-20q0 -6 2 -20q6 -22 6 -44q0 -16 3 -39t15 -31q13 -8 25 -4q14 5 23 6q70 54 132 113t110 133q-4 49 -1 101q3 49 -9 91q-8 5 -19 3q-8 -1 -19 1z" />
    <glyph glyph-name="b" unicode="b" horiz-adv-x="736" 
d="M552 410q8 -74 0 -131t-32 -115q-28 -44 -66 -80q-6 -6 -11.5 -12.5t-10.5 -13.5q-10 -13 -24 -24q-10 -8 -30 -17q-15 -7 -26 -21q-8 -2 -15 -5t-15 -7q-20 -5 -29 -9l-19 -9q-9 -4 -18 -2q-7 2 -18 0q-9 -1 -17 -8q-7 -6 -17 -10q-20 -6 -36 2t-28 22q-38 14 -51 34
t-27 42q-20 20 -25 41t-9 47q-5 31 -9 62t-7 62q-2 18 0 38t0 40q-2 28 -3 62t5 58q5 21 10 34q5 14 10 32q8 25 12 41q4 18 12 37q2 5 4 9.5t4 8.5l4 8l4 8q3 7 7 19t7 19q4 16 13 32q8 15 13 34q4 14 7 24t15 20l15 40l8 20t9 20t9 20l8 20l8 20t9 20q18 25 21 31l7 17
q6 8 10 14t6 10l48 81q12 20 25 40t27 39q18 25 36 49.5t35 49.5q32 46 81 95q7 12 20 26q12 14 24 30q7 7 13.5 14t12.5 14q11 12 26 24q13 11 22.5 19t14.5 13q11 11 33 12q40 2 66 -21t38 -57q-4 -35 2 -68t-4 -62q-18 -34 -35 -70t-33 -72q-16 -37 -36 -68
q-9 -14 -17.5 -29t-16.5 -31q-12 -22 -27 -42q-13 -17 -25 -46q-10 -10 -16 -23q-5 -11 -20 -23q-19 -42 -54 -74l-46 -90q-11 -22 -23.5 -43t-26.5 -41q-10 -2 -16 -10t-12 -18q-16 -20 -32 -39t-36 -37q-5 -16 -23 -32q-19 -18 -25 -28q-3 -4 -7 -12t-7 -12
q-6 -10 -11 -14t-11 -12q-6 -16 -10 -19q-3 -2 -8 -7q-12 -18 -14 -18t-4 -2q-12 -23 -16 -24t-6 -6q1 -28 0 -38l-2 -10l-2 -10q5 -18 3 -41q-1 -11 -0.5 -22.5t1.5 -22.5q2 -22 5 -41t9 -35q6 -18 22 -31t38 -11q8 2 22 8t22 10q5 4 10 9t10 11t10 11.5t10 10.5
q22 28 48 68l46 72q5 16 9 27t7 17q5 10 10 28q5 23 3 42q-1 18 7 36q4 12 19 31t25 29q18 16 22 15q3 -1 8 1q33 4 44 -2t32 -6q6 1 12 2.5t13 2.5q12 3 27 1q16 -2 30 -3t30 3q26 6 64 6h13t14 -1q15 -1 31 3q18 2 36 9t34 3q14 -2 21 -16t5 -30q-2 -10 -10 -25t-16 -17
q-16 4 -18 2t-6 -2q-12 1 -25 7l-23 9q-28 4 -55 -2t-53 -14l-25 -9q-7 -2 -13.5 -4.5t-13.5 -4.5q-8 -2 -13 -2q-8 0 -13 -4q-13 -4 -25 -6q-11 -2 -23 -6q-16 -4 -18 -9q-1 -4 -18 -9zM446 1088q-46 -70 -89 -143t-85 -153q-6 -12 -11 -25t-11 -29q-10 -12 -17 -33
l-13 -39q-5 -13 -10 -25.5t-10 -25.5q-10 -25 -6 -47q23 16 40 45l32 57q12 12 18 23q7 12 18 25q11 12 18 24q7 11 18 22q28 40 49 86q11 23 22.5 46t24.5 46q11 21 25 44q11 19 23 44l21 50q5 12 10 24.5t9 25.5q6 31 15 41q10 11 11 27q-29 -23 -54 -53z" />
    <glyph glyph-name="c" unicode="c" horiz-adv-x="686" 
d="M832 460q20 -25 19 -34q-1 -7 -1 -22q-10 -11 -16 -25q-5 -12 -18 -23q-12 -8 -21 -11q-12 -3 -19 -13q-14 -5 -20 -10q-7 -6 -24 -4q-48 -48 -85 -78t-77 -58q-30 -26 -63 -48t-67 -44q-13 -13 -18 -19q-7 -9 -20 -15q-23 -23 -49 -43q-13 -10 -24.5 -19.5t-22.5 -19.5
q-22 -16 -47 -22q-26 -6 -47 -16q-38 -17 -58 -6l-37 -7q-15 -3 -37 3q-6 2 -12 6q-3 2 -6.5 4t-7.5 4q-20 8 -31 17t-19 17q-6 6 -14 17t-12 19q-10 16 -13 39t-9 45q-4 20 -12 44q-7 22 -6 46q1 8 3 16t4 15l9 31q6 14 11 27t9 25q7 22 18 46q6 10 13 16t13 16q3 3 5 12
q2 10 5 14l34 37q9 10 17 20t15 21q5 7 10.5 13.5t10.5 11.5t10.5 11.5t10.5 13.5q11 15 17 19q5 3 9 9q12 12 22 25t20 27l14.5 14.5t14.5 15.5q14 15 31 26q19 11 37 18q10 4 20 8.5t21 9.5t19 10t19 10q12 5 22 6q9 1 18 10q12 -2 22 4t20 10q10 1 19 0q9 -2 15 4
q5 -4 13 -4q7 0 11 -4q19 -5 24 -28q4 -30 -15 -62t-33 -48q-17 -28 -50 -48q-23 0 -49 -3q-27 -3 -45 1q-5 -9 -11 -11q-8 -3 -3 -11q-68 -58 -120 -123t-82 -153q-11 -36 -20 -49q-10 -14 -10 -31q12 -42 40 -71t56 -33q32 -4 57 12q26 17 47 28q14 10 28 19t27 17l57 34
q8 4 16 9t16 11q24 17 47 35q11 8 21.5 16.5t21.5 16.5q9 1 15 7q5 5 15 5q36 32 78 57t88 51q16 16 29 25t29 25q14 0 20 7t18 7z" />
    <glyph glyph-name="d" unicode="d" horiz-adv-x="894" 
d="M688 172q14 0 20 -2t10 -2q20 0 51.5 28.5t50.5 43.5q41 9 66.5 52.5t57.5 75.5q41 41 66.5 73.5t43.5 32.5q16 0 23 -15q9 -18 13 -25q-4 -4 -4 -12q0 -9 -4 -14q-4 -6 -12 -12t-14 -14l-20 -24q-26 -26 -49 -66t-45.5 -75.5t-47.5 -50.5q-53 -34 -85 -72
q-31 -37 -69 -60q-4 0 -5 1t-3 1q-9 0 -13 -4t-11 -4q-37 14 -59 31.5t-57 76.5q-9 15 -16 33q-7 20 -16 35l-27 49q-11 20 -11 67q0 20 4 60t8 64q-31 -31 -57 -77q-13 -22 -25 -43t-24 -40q-32 -49 -69 -97q-36 -46 -37 -71q-12 -12 -26 -35t-21.5 -39.5t-0.5 -9.5
q-28 -46 -81 -65t-99 -19l-18 2l-18 2q-17 1 -34 14l-30 22q-32 16 -44 50t-12 74q25 63 29 113q4 49 23 97q28 74 79 132t107 106q45 38 103.5 83.5t84.5 76.5q32 5 54.5 19.5t45.5 27.5t54 13q46 0 54 -16t24 -44q13 33 20 67q4 17 9.5 33t12.5 30q12 62 41 132t58 129
q24 48 47.5 91.5t31.5 55.5q31 48 67 81q35 33 61 71q20 24 39 55q20 34 31 41q56 -15 59 -44t3 -66q0 -32 -6 -64l-68 -142q-28 -52 -53 -106t-47 -110q-37 -72 -81 -126q-22 -27 -41.5 -56t-37.5 -60q-7 -21 -21 -41q-7 -10 -13 -19.5t-12 -19.5l-36 -86q-12 -16 -12 -30
q4 -9 4 -16v-10v-18t-1 -18t-1 -18.5v-19.5q0 -102 8 -200q-4 -7 -4 -10q0 -14 15 -29q15 -14 19 -25zM496 658l-50 -32q-15 -5 -40 -29l-42 -39l-42 -38q-14 -26 -38 -44t-40 -40q-22 -28 -43 -66t-19 -64q-5 -18 -10.5 -33.5t-11.5 -28.5q-12 -25 -12 -58q0 -26 17 -27
t25 -1q30 20 63.5 58.5t61 79.5t37.5 68q22 38 50 81t62 77l52 84q2 5 4 9.5t4 8.5q4 7 4 18q0 13 -8 24q-8 0 -14 -3z" />
    <glyph glyph-name="e" unicode="e" horiz-adv-x="662" 
d="M16 442q13 7 32 30.5t37 46t27 25.5q6 10 11 17t15 13q16 29 42 49q27 21 50 45q19 8 38.5 18t38.5 23q39 26 87 27q22 -10 43 -6q20 4 39 -10q11 -19 18 -23t12 -11q8 -25 12 -33q5 -8 6 -17q1 -15 2 -25.5t2 -17.5q1 -13 0 -25q-6 -51 -20 -102l-4 -12t-4 -13
q-4 -13 -10 -23q-15 -19 -21 -31q-9 -16 -13 -21q-12 -12 -22.5 -22t-19.5 -18q-9 -5 -18 -10.5t-18 -11.5q-17 -11 -40 -16l-18 -11q-9 -6 -20 -7q-18 -13 -40 -21q-10 -4 -20.5 -8t-21.5 -9q-15 -6 -26 -14t-28 -16q-9 -3 -29 -7q-19 -3 -27 -7q10 -20 8 -50
q-1 -28 10 -50q26 -6 57 -9t59 1q5 1 10.5 3t11.5 4l12 4t12 3q22 4 43 10t37 16q58 20 112 54t94 74q24 16 53 44t45 52q30 32 53 50t43 16q16 0 31 -19t-3 -41q-19 -12 -42 -36q-22 -24 -46 -34q-17 -11 -45 -44q-27 -31 -45 -48l-9 -9t-12 -10q-13 -10 -21 -21
q-31 -26 -60 -44q-11 4 -18 -4q-9 -11 -16 -16l-6 -4t-7 -4t-7 -4l-6 -4q-16 -14 -35 -28t-39 -24q-20 -12 -40 -22.5t-40 -18.5t-39.5 -19t-38.5 -24l-22 -3q-5 -1 -10 -1.5t-10 -1.5q-11 -4 -21 -4t-25 4q-66 18 -108 64q-6 6 -12.5 11.5t-13.5 10.5q-16 12 -22 22
q-9 15 -18.5 47t-16.5 65.5t-7 51.5q6 12 13 41.5t12 59t5 41.5q4 4 15.5 26.5t22 46t10.5 29.5zM338 570q-14 -18 -28 -34t-32 -30q-12 -22 -28 -40t-32 -34q-8 -16 -18 -25t-22 -19q-13 -22 -32 -42t-8 -46q22 -4 44 6t38 18q8 5 16.5 9t16.5 8l16 8t15 9l52 52
q12 11 24 26q5 7 10.5 14.5t11.5 15.5q5 22 16 41q12 20 10 41q-1 9 -7 21t-7 19q-21 0 -31 -7q-5 -4 -11.5 -6.5t-13.5 -4.5z" />
    <glyph glyph-name="f" unicode="f" horiz-adv-x="668" 
d="M26 -448q8 6 17 18l15 20l8 10t8 9l8 10t8 11q4 5 7.5 10t6.5 10q5 9 16 20q6 10 9 13q6 6 7 15q26 50 41 97q7 22 14 44.5t15 46.5q13 18 17 34q5 18 15 36q12 25 15 50q3 23 17 50q16 28 22 67q3 20 7 39t9 38q2 14 4.5 26.5t4.5 23.5l4 22t3 22q1 9 2.5 18t2.5 18
q3 19 -1 34q-1 10 -9 16q-6 5 -11 16q-2 8 0 13q2 6 -2 13q6 10 28 19t38 13q12 -2 22 -4t14 -8q10 4 16 0q6 -5 16 -6q4 0 12 2t12 2q34 -8 57 -3t49 11q17 5 33 6q18 2 31 6q13 6 17 8q8 5 15 6q10 4 19 3q6 -1 19 1q9 1 23 7q12 5 25 1q30 8 52 14t50 14q6 -11 10 -17.5
t5 -8.5q3 -4 3 -8q-2 -10 -13 -18t-21 2q-20 -8 -28 -12l-16 -8q-24 -7 -42 -12q-19 -5 -38 -18q-10 -1 -19.5 -3t-17.5 -4l-39 -11q-9 -2 -18 -4.5t-18 -5.5q-44 -27 -74 -34q-31 -7 -60 -24q-14 -10 -23 -22t-5 -34q6 -27 -1 -40q-6 -10 -11 -30q-2 -7 -3.5 -13.5
t-3.5 -12.5q-3 -11 -11 -24q-7 -21 -8 -37t-6 -33q-7 -26 -13 -43q-7 -21 -9 -41v-12t1 -13t1 -13.5v-13.5q0 -17 -8 -41l-14 -43q-5 -14 -10 -28.5t-10 -30.5q-9 -28 -24 -59q-6 -13 -11 -25.5t-10 -23.5q-10 -25 -21 -43q-46 -72 -97 -138t-107 -130q-14 -6 -25 -16
t-21 -20q-16 -5 -23 -11q-8 -7 -19 -13q-22 -2 -45 -3t-33 13q-16 -4 -21 2q-3 4 -15 16q-8 16 -11 32t-7 38q-1 5 -2 9l-2 8q-2 10 -2 17q-1 11 -1.5 22.5t-0.5 22.5q0 26 4 49q1 10 7 26t7 28q4 17 4 38q0 9 0.5 18.5t1.5 19.5q6 78 24 159q9 41 17 79.5t15 75.5
q4 13 6 26q1 11 6 28q12 44 24 80t28 66q5 11 6 19t6 19q11 20 12 30q1 9 6 20q10 34 21 64t25 64q6 20 14 42t14 38q7 19 13 30q4 7 6.5 14t4.5 14q2 8 2 12t2 10q6 20 24 46q8 19 16 37.5t16 37.5l16 38t16 39q3 7 6.5 13.5t7.5 13.5q8 14 12 27q10 39 21 59l21 39
q4 7 7.5 13.5t7.5 13.5t8 13.5t9 13.5q11 20 22 40.5t22 41.5q23 42 48 78q36 25 56 58q25 17 49 46q21 26 45 48q9 8 18 16.5t17 17.5t17.5 17.5t19.5 16.5q6 6 13 10q6 4 11 12q9 1 22 14q12 10 26 23t24 27q17 5 33 22t37 22q20 -2 25 3q3 3 11 9q22 -35 22 -59
q0 -25 -10 -55q-2 -5 -4.5 -10.5t-4.5 -12.5t-5 -13l-6 -12q-4 -9 -7.5 -17t-5.5 -16q-4 -13 -11 -29q-1 -16 -10 -39q-4 -10 -8 -19.5t-8 -19.5t-6 -21t-6 -23q-6 -8 -9 -13l-9 -15q-4 -5 -10 -15q-2 -4 -4 -7l-4 -6q-10 -10 -13 -17q-4 -10 -7 -15q-9 -14 -22 -32
q-11 -15 -22 -34q-8 -11 -16.5 -21.5t-16.5 -21.5q-8 -10 -16 -21t-15 -22l-16 -28q-7 -13 -18 -24q-6 -7 -9 -15q-3 -7 -7 -11q-11 -14 -21.5 -27.5t-20.5 -27.5q-19 -26 -48 -49q-13 -25 -32 -42q-18 -16 -36 -36q-37 -18 -46.5 -50.5t-41.5 -55.5q-10 -18 -21 -36
t-27 -32q-20 -38 -46 -66q-5 -19 -11 -37.5t-14 -36.5q-7 -18 -13.5 -36.5t-11.5 -37.5l-4 -18t-4 -19q-5 -23 -10 -37q-1 -10 -6 -19t-6 -19q-2 -7 -3 -14l-2 -14l-2 -14t-3 -14q-4 -16 -3 -32q1 -8 0.5 -17t-1.5 -19q-4 -24 -2 -26t2 -6q0 -16 -6 -40q-7 -27 -8 -46
q-4 -28 -10 -54t-12 -50q-5 -11 -6 -19t-6 -19q-12 -28 -17 -46t-9 -34l-14 -37q-8 -23 -4 -41q1 -13 11 -27q9 -13 9 -29zM612 1180q-18 -12 -33 -25t-31 -27q-27 -26 -52 -54q-23 -30 -39 -58q-15 -28 -41 -52q-15 -29 -28.5 -52.5t-24.5 -41.5q-22 -36 -39 -78
q-2 -9 -4.5 -17t-6.5 -16q-6 -13 -13 -31q-5 -11 -10.5 -21.5t-12.5 -20.5q-14 -20 -3 -40q27 26 46 53q21 30 44 55q25 29 30 44q18 26 33 42q16 18 27 34q14 12 26 32q27 23 44 51q20 32 40 57q5 5 6 10t6 10q13 14 14 21t6 13q5 11 10 22.5t9 22.5q5 11 9.5 22.5
t9.5 22.5q-10 12 -22 22z" />
    <glyph glyph-name="g" unicode="g" horiz-adv-x="854" 
d="M582 500q4 -3 11 7q4 5 6.5 9.5t4.5 7.5q4 9 7 20t7 20q12 23 31 46q18 22 29 46q3 3 9 7q5 3 9 9q16 2 22 4t12 6q22 -6 28 -34q-1 -15 -13 -25q-10 -9 -15 -23q-5 -8 -3 -16t-3 -16q-10 -33 -27 -64q-18 -33 -29 -64q-10 -20 -19 -40t-15 -42q-22 -40 -42 -84
q-19 -43 -42 -90q19 5 32 15q14 11 30 21l18 7q4 2 8.5 3.5t9.5 3.5l25 16q4 2 7.5 4t7.5 4l12 9q4 3 14 9q5 5 11 6t11 6q12 5 18 10q8 6 18 12q12 6 21 12q7 5 23 10q12 5 24 12q6 2 12 6q6 5 10 6q13 5 14 6q3 3 6 4q18 6 23 8q2 1 7 6q23 16 36 19q14 4 38 19
q15 -2 22 -1q10 1 18 -7q-8 -38 -29 -51t-45 -23q-34 -30 -58 -47t-62 -41q-26 -11 -42 -22q-18 0 -27 -6q-12 -8 -19 -12t-17 -6t-17 -6q-20 -12 -25 -14q-4 -1 -9 -6q-20 -27 -38 -34q-19 -8 -32 -24q-34 -10 -56 -32q-23 -23 -52 -36q-17 -48 -27 -92q-10 -46 -27 -90
l-33 -92q-8 -23 -15.5 -46.5t-13.5 -47.5q-22 -36 -36 -82q-7 -22 -15.5 -44t-18.5 -44q-15 -11 -23 -34t-25 -36q-10 -22 -28 -37t-34 -31q-9 -9 -16 -20q-23 -23 -52 -49q-28 -25 -50 -53q-22 -14 -40 -30t-36 -34l-17 -7q-7 -3 -15 3q-20 -6 -42 -2t-18 26q-13 11 -14 17
q-1 8 -6 15q7 16 0 29q-8 14 -8 23q0 26 6 50q5 27 13 45l19 41q12 28 21 53t19 53q15 25 19 47q4 25 15 49q4 8 8.5 16t8.5 15q10 16 11 31q8 15 16.5 28.5t18.5 25.5q20 24 33 54q52 74 120 129t138 107q13 16 15 17t4.5 2t16.5 15q3 1 5 8t7 12q8 22 17.5 46.5t20.5 52.5
t19 50.5t13 40.5q-11 -5 -15 -14t-11 -16q-4 -6 -10 -10q-8 -6 -10 -8q-6 -6 -10 -9t-10 -11q-19 -16 -38.5 -37.5t-39.5 -38.5q-16 -22 -33 -41t-39 -31q-30 -22 -62 -36t-60 -24l-27 -9q-15 -5 -23 -5q-6 -2 -10 -1t-12 1q-30 0 -54 8q-6 4 -10 7t-8 11q-4 4 -10 11
t-10 13q-4 9 -4 21t-4 21q-2 10 -4.5 19.5t-5.5 17.5q-6 18 -2 35l2 6t2 5q2 5 0 11q-1 4 -5 12t-5 12q-10 16 -10 26q-1 11 3 21q5 12 1 19q7 15 11 28q5 14 15 26q15 22 19 33q2 7 5.5 12.5t7.5 10.5q12 20 21 32q11 14 21 30q38 66 84 120q7 4 14 6q6 2 8 10q46 22 88 48
q23 6 39 21q17 16 39 23q17 7 38 20q20 13 42 14q20 0 30 6l20 12q28 16 64 14q17 -16 33 -24q16 -7 27 -26q3 -5 5 -20l3 -26q4 -10 7 -21t5 -21q2 -27 -1 -48t-1 -46zM478 584h-2q-7 -6 -17 -6t-17 -4q-3 -3 -9 -7t-9 -7q-9 -5 -18.5 -9t-20.5 -8q-23 -8 -37 -17
q-9 -6 -16 -17q-6 -9 -16 -15q-6 -4 -12 -7.5t-13 -6.5q-13 -6 -23 -16q-6 -6 -9 -12t-13 -6q-22 -41 -54 -76q-33 -37 -52 -78q-10 -4 -13 -14q-2 -8 -9 -20q-22 -39 -17 -61q2 -10 4 -20.5t3 -20.5q12 -16 33 -9t37 17q20 14 39 31t39 35q20 16 37 35t33 37q5 7 16 16
t16 16q13 13 18 19q8 9 18 15q8 11 15 21.5t14 20.5t14 19.5t15 18.5q11 26 21 48q5 11 10 22.5t9 23.5q-4 9 -4 23q0 13 -10 19zM314 -140q-5 -1 -11 -7q-3 -3 -13 -11q-20 -20 -39 -41t-35 -47q-18 -25 -41 -50q-24 -25 -31 -54q-22 -34 -39 -70t-27 -80q-2 -12 -4 -21.5
t-4 -16.5q-4 -13 -6 -28l25 25t23 25q4 4 7 10t7 10q12 17 24.5 33.5t25.5 32.5q26 32 48 66q10 12 18 23t16 23q37 50 56 107q20 57 42 117q-6 -6 -12 -11t-11 -10q-13 -11 -19 -25z" />
    <glyph glyph-name="h" unicode="h" horiz-adv-x="946" 
d="M96 152q45 39 85 87q20 23 41 47t44 48q10 10 20 24t20 30q8 12 20 23q13 12 20 21q6 10 15 16q5 3 9.5 6.5t9.5 7.5q10 10 18 17t18 15q9 7 17.5 14.5t16.5 14.5q16 15 38 25q12 2 18 9q4 5 14 15q12 -2 18 2q4 2 8.5 4t9.5 4q28 -6 45 -22t33 -32q14 -6 22 -11t16 -11
q8 -16 14 -30t6 -32q0 -8 -2 -24l-2 -12l-2 -12q-8 -24 -6 -26t2 -6q2 -18 -11 -33q-13 -16 -7 -35q2 -8 -5 -30t-5 -30q4 -11 4 -31t10 -27q21 -8 28 -8h14q24 12 60 41t54 49q10 8 19 16t17 15q19 17 44 29q26 18 32 25l26 29q6 6 15 12t17 14q16 16 32 22h23q14 0 19 -8
q4 -16 0 -28t-10 -22q-7 -11 -18 -22q-8 -15 -18 -26l-10.5 -10.5t-11.5 -12.5q-12 -14 -28 -21q-5 -6 -9.5 -11t-9.5 -10l-19 -19q-11 -11 -18 -22t-18 -22q-11 -9 -21.5 -18t-21.5 -17q-21 -16 -39 -39q-9 -4 -16 -9q-4 -3 -14 -9q-25 -7 -50.5 -29t-52 -40.5t-55.5 -16.5
q-22 -10 -38 -1t-32 19q-22 14 -42 32t-24 50q-4 52 12 98q17 47 24 92q0 5 6.5 36.5t1.5 41.5q-3 4 -5 14q-1 10 -17 20q-9 5 -8 2q1 -4 -16 -4q-17 -6 -28 -16q-6 -5 -12.5 -10t-13.5 -10q-18 -21 -45 -40q-24 -17 -43 -42q-16 -18 -30 -36q-12 -16 -32 -36
q-56 -64 -110 -118q-7 -8 -13.5 -16t-12.5 -16t-12.5 -16t-13.5 -16q-24 -30 -52 -58q-12 -20 -34 -38t-44 -26q-6 4 -13 0t-13 -4q-12 5 -19 7.5t-9 3.5q-4 2 -6 9q-20 12 -15 39t9 47q10 45 24 90t31 89t31 88t24 87q10 34 20 63t24 61q15 32 19 57t19 57q9 16 14 30
q6 17 12 30q23 41 42 99q20 59 42 105q24 64 50 124t58 118q19 77 62 144q20 26 27 42q9 20 17 30q24 29 54 45q29 16 52 45q17 8 31 12q8 2 15 4.5t14 5.5q6 -6 6 -24q4 0 2 -12t0 -20q0 -28 -5 -40l-9 -22q-2 -16 -2 -21q0 -7 -2 -17q-6 -19 -5 -21t1 -7q0 -4 -2 -18
t-2 -20q-1 -20 -11 -46q-8 -22 -15 -44q-12 -14 -14 -22t-8 -10q-6 -17 -11.5 -33.5t-10.5 -32.5q-10 -31 -30 -60q-7 -21 -21 -43q-7 -10 -12.5 -20.5t-10.5 -20.5l-9 -19q-6 -12 -9 -19q-14 -26 -29 -53t-35 -49q-36 -76 -76 -153t-78 -149q-7 -11 -12 -20.5t-8 -17.5
q-5 -11 -7 -25q-2 -12 -11 -21q-3 -9 -6 -17.5t-5 -16.5q-4 -16 -15 -30q-7 -39 -25 -75q-17 -34 -27 -73z" />
    <glyph glyph-name="i" unicode="i" horiz-adv-x="534" 
d="M442 1002l20 -6q4 -5 4 -12q0 -5 6 -10q-4 -18 -7 -37t-3 -37q0 -7 5 -14t5 -12q-10 -23 -15 -28t-5 -10q-10 -4 -15 -12t-17 -8q-4 -6 -9 -9q-6 -4 -7 -11q-33 -14 -72 2q-11 19 -28 26q-26 38 -2 90q4 10 9 21t9 15q21 15 32 20q4 2 8.5 4.5t8.5 5.5q7 5 21 10
q6 2 11 2q8 0 15 4q4 1 7.5 2t6.5 2q8 2 12 2zM142 116l10 -4q18 8 44 6q27 -2 42 8q10 8 14 12q6 6 14 4q32 12 54 24q23 12 48 18q16 6 28 18q41 13 69.5 37t62.5 51q28 16 47 28t41 30q5 11 11 15q5 3 11 13q36 0 40 -28q-10 -22 -27 -36q-18 -15 -31 -32
q-16 -10 -26 -18t-20 -24q-1 0 -12 -9q-10 -9 -12 -9q-16 -19 -24 -23t-28 -21q-13 -22 -36 -36q-43 -41 -91 -69q-25 -14 -47 -28.5t-42 -28.5q-10 -6 -14 -11t-14 -13t-31 -16t-37 -14q-13 -8 -22 -12q-45 -2 -68 14q-26 14 -40 22t-24 26q-23 11 -27 37q-2 14 -5 27
l-6 26q-2 10 -4 23t0 27q5 23 6 47q1 22 10 43q9 20 11 44t11 44q13 20 11 22q-1 1 1 6l9 12q3 4 9 14l12 30q9 17 18 28q9 12 16 34q5 14 11 22q4 5 7.5 10.5t7.5 11.5q5 10 10 25q2 7 4.5 13.5t5.5 13.5q6 16 15 32t19 32q8 16 14 24t24 10q9 2 18 -1q11 -3 20 1
q26 12 36 12t14 6q21 -1 32 -14q11 -12 24 -24q-12 -58 -27 -89t-33 -65q-10 -16 -20 -36l-18 -36q-10 -22 -21 -39q-13 -20 -19 -39l-9 -19q-6 -12 -9 -19q-2 -7 -4.5 -13.5t-6.5 -11.5t-7 -10.5t-6 -10.5l-12 -24t-10 -26q-10 -22 -12 -29q-1 -2 -2 -4.5t-2 -4.5
q-4 -22 -12 -36t6 -20z" />
    <glyph glyph-name="j" unicode="j" horiz-adv-x="494" 
d="M278 862q10 12 12 17t4 13q17 8 31 12q18 5 29 14q33 21 43 27q7 4 13 6.5t12 4.5q14 -8 22 -12l16 -8q2 -6 4.5 -12t6.5 -12q8 -12 -3 -30q-21 -13 -23 -24q-1 -8 1 -16l-24 -40q-21 -11 -26 -22q-6 -12 -16 -22q-24 -6 -50 -10q-36 6 -50 38q-8 27 -2 76zM138 124
q14 6 30 13t30 15q37 19 59 35t42.5 32t54.5 33q7 9 15 13q10 5 17 15q25 20 46 38.5t48 35.5q29 32 64 57q36 25 64 55q18 4 25 -13t1 -29q-5 -11 -13 -15q-10 -5 -17 -15q10 -28 -5 -42t-31 -28q-11 -15 -22 -20q-23 -34 -57 -55q-16 -10 -33 -21.5t-34 -23.5
q-27 -20 -35.5 -27t-11.5 -9t-12 -6t-37 -18q-30 -22 -61 -41t-65 -33q-26 -16 -51 -34t-51 -40q-3 -3 -15 -13q-9 -7 -13 -13q-14 -20 -20 -43t-20 -43q-4 -14 -8 -27t-8 -25t-8 -25t-8 -27q-4 -22 -8 -42t-12 -42q-10 -16 -12 -21l-6 -15q-15 -23 -17 -35t-5 -19
q-2 -7 -4.5 -13.5t-5.5 -13.5q-5 -12 -10 -29q-2 -7 -3.5 -13.5t-3.5 -11.5q-3 -10 -15 -15q-4 -10 -8 -19t-10 -19l-21 -21t-13 -23q-6 -25 -24 -39q-17 -13 -22 -33q-16 -17 -31.5 -34.5t-30.5 -35.5q-30 -36 -70 -64q-6 -14 -17 -22t-17 -24q-10 -6 -17 -7l-17 -3
q-37 -6 -47 7q-5 7 -11.5 12.5t-13.5 10.5q-16 48 -28 103t-14 111q-4 9 -2 20q1 10 0 22q-1 4 -2 7.5t-2 7.5q-2 8 2 13q-6 24 6 58t24 56q6 22 14 45t26 33q22 40 50 71t60 59q19 18 36 34.5t32 32.5q29 31 72 49q24 21 55 39t55 39q5 29 16 52q6 12 11 23.5t9 22.5
q8 21 17.5 44t20.5 48q7 13 12.5 23.5t9.5 18.5q6 13 18 32q5 23 19 42q14 18 25 42q18 41 30 82q11 39 32 84q1 11 9 22q6 9 11 26q4 7 4 15t4 15q7 10 12 17.5t7 12.5q4 8 13 14q10 -4 18 -7t18 -5q4 -18 25 -22t41 -6q5 -4 10 -7.5t9 -5.5q9 -4 15 -15q2 -12 -1 -25
t-7 -21q-4 -12 -12 -21q-4 -4 -8 -9l-8 -10q-3 -5 -6 -10.5t-6 -12.5t-6 -12.5t-6 -10.5q-10 -20 -19 -40t-17 -42q-3 -5 -7 -15t-7 -15t-5 -15t-5 -15q-8 -20 -13 -31t-15 -31q-9 -19 -11 -31q-3 -16 -9 -29q-4 -7 -12 -19q-7 -10 -8 -25zM-192 -170q-16 -9 -25 -18
t-25 -18q-21 -34 -48 -58q-14 -13 -26.5 -27t-23.5 -29q-7 -11 -18 -22q-5 -12 -7 -29q-2 -19 -5 -27q-1 -10 -8 -18q-6 -7 -12 -18q-15 -34 -17 -76q-1 -20 -3.5 -40.5t-7.5 -41.5q-6 -21 -1 -29q4 -7 11 -7q4 0 13 9l13 13q10 8 14 13t10 11q9 12 18 23.5t18 22.5t17 22
t15 22q12 8 20 33t16 37q8 11 15 30q4 10 6.5 17.5t4.5 12.5q10 20 19 37.5t17 32.5q17 30 30 72q6 16 13 36t9 40q4 4 7 13q4 12 7 19q-10 -8 -19.5 -15t-17.5 -13q-17 -13 -29 -30z" />
    <glyph glyph-name="k" unicode="k" horiz-adv-x="904" 
d="M232 484q14 6 30 17t28 21q27 20 44 36t44 36q7 5 13.5 10t11.5 9q5 5 10.5 9t10.5 8q7 4 19 12t19 12q14 6 26 11t22 9q2 1 13 7q8 5 15 5q17 2 28 -7q11 -8 22 -13q16 -9 35 -18q17 -7 31 -22q12 -21 23 -34q14 -17 21 -40q2 -8 2 -16v-20q5 -33 15.5 -59t-9.5 -55
q-58 -34 -122 -58q-16 -12 -33 -21q-8 -4 -16.5 -9t-16.5 -10q-16 -22 -39 -36q-21 -13 -39 -32q8 -26 20 -44t28 -34q12 -20 34 -28q10 -4 32 -7t32 -1q13 5 28 9q14 4 30 11q27 1 41 19q16 20 29 29q5 4 10 7.5t10 5.5q8 4 20 17q5 15 18 26q26 26 48 36q14 20 36 24
t38 16l28 20q7 5 13.5 10t12.5 10t12.5 10t13.5 10q6 4 12 7.5t11 5.5q11 5 17 15q7 4 14 6l6 2l6 2q5 -7 8.5 -12t4.5 -7q3 -4 3 -11q-1 -10 -8 -13t-8 -13q-22 -14 -45 -29t-43 -33q-1 -10 -5 -15q-1 -2 -3 -5.5t-4 -7.5q-25 -17 -52 -44q-23 -23 -52 -46q-7 -4 -19 -14
q-10 -9 -21 -14q-30 -28 -60 -55t-64 -49q-9 -5 -20 -13q-8 -6 -24 -11q-12 -11 -25 -12q-12 -1 -25 -8q-26 -11 -41 -21q-16 -10 -41 -15q-12 -5 -23 0q-9 4 -27 2q-15 9 -28 10q-2 6 -15 25t-17 23q-7 25 -16 37q-4 5 -8 11l-8 12q-10 16 -13 35t-13 35q2 11 -3 15
q-5 5 -3 13q-25 19 -29 25l-9 15v26q0 4 4 8q12 12 27 21q14 8 25 21q9 1 17 8l15 12q12 8 23.5 16t22.5 15q23 16 50 31q20 10 25 34t9 46q-12 20 -17 20t-9 4q-6 5 -10 11q-4 7 -12 7q-6 -2 -16 -8t-16 -10q-17 -10 -34 -18.5t-34 -16.5q-32 -14 -66 -35l-33 -16l-15 -7.5
t-12 -6.5q-4 -2 -9 -7l-9 -9q-17 -36 -25 -49q-11 -18 -17 -33q-5 -13 -12 -20q-10 -16 -16 -32t-18 -30q-4 -24 -15 -51q-5 -13 -10 -26.5t-9 -26.5q-6 -24 -15 -44t-33 -26q-9 -14 -11 -24t-11 -24q-5 -3 -15 -5q-7 -1 -17 -7q-4 0 -26.5 -18t-27.5 -18q-16 -4 -21 1
q-5 6 -13 1q-12 23 -20 30q2 8 4 15t3 14q2 11 11 23q6 8 14 19t14 21q5 8 3 15q-1 8 3 15q6 14 11 21q4 5 7 10.5t6 10.5q7 17 17 38q5 9 9 19t8 21q3 11 5.5 22t4.5 21q5 24 14 43q10 22 20 47t14 47q1 10 6 16q3 4 8 16q2 5 4.5 10.5t4.5 12.5t5 13l6 12q9 10 11 18
q2 7 5 10q2 3 5 11q2 6 5 9q4 10 10 20t10 20q5 6 10 26q10 10 10 20q6 23 9 42q3 20 15 42q4 14 7 24t4 17q3 12 17 33q3 8 6.5 16.5t7.5 16.5t7.5 16.5t6.5 16.5l12 31q5 12 10 33q7 14 12.5 25.5t9.5 19.5q9 19 18 35q8 16 13.5 28.5t9.5 20.5l8 16t9 15q7 18 9 29
q3 13 9 25q17 22 22 38q2 7 4.5 13.5t5.5 12.5q20 46 46 94t62 84l21 20q13 13 19 24q18 18 32 27t30 25q27 -6 31 -9q5 -3 9 -3q23 -34 18 -86q0 -14 -6 -28q-6 -13 -6 -28q-2 -10 -1 -14q1 -5 -5 -10q-4 -22 -12 -41t-16 -37q-31 -73 -63 -122q-31 -47 -63 -112
q-14 -22 -25 -43t-21 -49q-12 -24 -26 -48t-34 -44q-13 -25 -21 -43q-10 -23 -25 -41q-6 -24 -26 -48q-7 -15 -15 -28q-6 -9 -11 -30l-21 -53q-5 -13 -9.5 -25.5t-7.5 -23.5z" />
    <glyph glyph-name="l" unicode="l" horiz-adv-x="536" 
d="M644 472q20 -5 29 -14q7 -7 7 -16q-16 -22 -19 -29t-13 -11q-13 -20 -27.5 -37.5t-31.5 -33.5q-31 -30 -61 -69q-13 -13 -18 -20t-18 -20q-24 -17 -40 -35q-9 -10 -18.5 -18.5t-19.5 -16.5q-5 -4 -9.5 -7.5t-9.5 -7.5q-4 -4 -9 -8t-10 -9q-8 -8 -18 -16q-4 -3 -8.5 -6.5
t-9.5 -7.5l-24 -28t-24 -30q-21 -10 -40 -24q-18 -13 -42 -24q-10 -6 -19 -19q-8 -12 -23 -17q-16 -6 -34 -3t-30 9q-13 9 -16 10q-8 2 -10 2q-19 27 -26 57q-4 16 -8.5 32t-9.5 33q-4 10 -6 21t-4 25l-3 16q-1 4 -2 8.5t-3 9.5q-4 10 -8 21t-6 23q-4 24 -3 47t5 45
q12 66 35 126t47 114q5 25 11 38t13 36q9 11 14 32q2 9 4.5 18t5.5 18q3 8 7 16.5t8 18.5q8 18 13 37q7 23 11 40q2 10 5.5 19t7.5 17q8 21 15.5 41t14.5 39t14.5 38t15.5 38l4 12l4 12q4 11 12 22q5 14 10 21q8 12 12 19q0 11 7 15q5 3 11 13q11 17 15 32t15 32l24 30l4 8
l4 8q5 8 12 14q23 36 48 72l54 76q18 28 40 53t46 49q8 10 19 22t23 14q19 2 40 -4q6 -10 11 -21t9 -25q4 -62 -4 -120t-18 -114q-2 -13 -1 -19t-1 -19q-4 -12 -10 -31t-10 -35q0 -27 -12 -50q-12 -22 -16 -44q-6 -4 -7 -13t-7 -13q-5 -23 -13 -40q-9 -18 -15 -36
q-15 -21 -30 -41t-31 -40q-16 -19 -30.5 -39.5t-28.5 -41.5q-35 -53 -73 -100t-73 -100q-28 -25 -44 -50q-17 -27 -46 -50q-5 -20 -9.5 -42t-9.5 -45q-4 -23 -9 -47l-10 -48q-1 -13 -6 -27q-2 -7 -4 -13.5t-4 -13.5q-4 -14 -2 -34q1 -18 -6 -34q3 -8 5 -23q1 -13 7 -23
q11 -18 24 -18q15 8 16 7t6 1q10 6 20 16l18 18q11 5 15 9q3 3 11 9q6 4 11 6t9 6q29 30 54 45q26 15 42 37l36 22q11 6 21 17q9 11 23 17q6 8 8 10t8 10l24 16t23 16t23.5 16t25.5 16q4 10 13 16t15 12t10 13q5 8 14 9q1 9 9 14t13 14zM536 1218h-2q-18 -4 -25 -18t-13 -32
q-4 -8 -7.5 -14t-5.5 -10q-4 -7 -3 -24q-31 -51 -59 -104.5t-54 -109.5q-25 -56 -51 -112.5t-52 -113.5q41 41 75 96q17 28 35.5 52t37.5 44q14 34 29.5 66t32.5 61q33 56 52 133q-8 25 2 43t8 43z" />
    <glyph glyph-name="m" unicode="m" horiz-adv-x="1402" 
d="M136 254q10 1 16 9q4 5 14 13l6 4t7 4t7 4l6 4q26 19 45 40q19 20 43 38q13 15 26.5 28.5l26.5 26.5q25 24 49 57q32 24 60 52q19 12 31 23t33 23q10 12 22 26t28 24q17 17 35 24t35 24q30 16 54 5t38 -27q7 -18 24 -38l4 -6t4 -5q4 -4 4 -15q0 -23 -6 -46
q-3 -11 -5.5 -22t-4.5 -22q-2 -14 -3 -27.5t-2 -27.5q-1 -26 -9 -55q11 -16 19 -34q8 -19 19 -30q7 1 18 16q5 4 10.5 7.5t12.5 7.5q14 8 23 17l15 15t14 13q15 13 27 28q7 7 14 13.5t14 12.5t14.5 12.5t15.5 13.5q8 8 15 16.5t14 16.5t14 16.5t15 16.5q7 9 13 11q7 3 11 13
q15 7 27 22q11 14 31 20q20 2 26 0t18 -14q10 -7 15 -20t15 -20q18 -36 28 -44q7 -16 3 -32l-9 -32q-1 -12 -2 -19.5t-2 -11.5l-2 -8t-2 -9q-12 -70 -36 -136q1 -14 8 -29q6 -12 4 -35q12 -2 23 0t19 4q42 17 80 44q26 20 54 39q29 20 54 39q9 7 16 15t16 15q20 16 39 26
t39 20q10 6 16 12l14 14q10 10 28 21t34 19q28 1 29 -9l3 -19q-26 -18 -49 -37t-47 -39q-6 -4 -11 -7t-15 -7q-8 -6 -11 -11t-13 -11q-6 -5 -12 -9.5t-12 -9.5q-12 -9 -22 -19q-14 -10 -26 -20t-22 -20q-11 -11 -18 -22q-6 -10 -20 -22q-10 -4 -17 -10l-15 -12
q-4 -12 -6 -21q-1 -8 -12 -19q-16 -14 -19 -19t-9 -11q-4 -3 -14 -7q-4 -1 -8 -3l-8 -4q-9 -5 -18 -14q-4 -4 -8.5 -8t-9.5 -8q-8 -5 -15 -9t-12 -8q-8 -6 -29 -11q-21 -14 -30 -13q-6 1 -20 -1q-5 -2 -9 4t-11 6q-13 12 -20 10q-8 -2 -14 2q-20 23 -20 34q0 6 -0.5 12.5
t-1.5 13.5q-4 30 -8 61t-6 65q0 14 3 26q4 15 5 26q0 5 -2 15t-2 13q2 17 6 30q4 12 2 28q-13 -15 -23 -25.5t-17 -17.5t-13.5 -14t-12.5 -15q-31 -18 -52 -35q-22 -18 -54 -29q-14 -14 -27.5 -26.5t-26.5 -23.5t-26.5 -23.5t-27.5 -26.5q-33 -43 -72 -64q-14 -4 -22 -5
t-16 5q-42 24 -50 62t2 84q-9 19 2.5 54.5t3.5 51.5q3 15 7 30.5t9 31.5t8.5 31.5t5.5 30.5q10 14 3 22t-13 14q-34 -20 -65 -47t-63 -55q-8 -7 -15.5 -13.5t-15.5 -13.5q-7 -7 -15 -13.5t-16 -13.5l-32 -27q-17 -14 -28 -29q-13 -18 -21 -24l-13 -10q-9 -5 -16 -12
q-4 -4 -12 -10q-6 -5 -16 -9l-18 -7q-12 -8 -25 -21l-23 -23q-8 -8 -18 -16q-11 -9 -16 -16q-12 -17 -29 -36q-7 -8 -14.5 -16.5t-14.5 -17.5q-1 -9 -11 -19l-19 -19q-4 -4 -8 -8.5t-9 -9.5q-8 -9 -19 -14l-14 -3q-11 -2 -16 -5q-6 -2 -12.5 -4.5t-13.5 -5.5q-13 -6 -30 -4
l-24 3q-9 1 -20 9q0 16 -10 22q5 27 13 48q8 22 13 46q15 21 23 45t21 49q9 25 21 52l21 48q4 12 7.5 23t6.5 21q6 21 16 36q13 21 14 30q22 26 22 54q11 12 16 34q5 21 12 38l7 14t5 16q2 13 1 19q-1 8 5 19q4 5 8 9l8 8l8 8t8 9q9 1 14 10q5 8 12 12q22 7 25 10q4 4 5 4
l30 15q3 2 6.5 3.5t7.5 3.5t7 3t5 2t5 2t7 3q5 5 16 12t16 12q20 -8 34 -25t8 -45q-2 -10 -6 -19t-8 -17q-3 -7 -5 -19t-5 -17q-14 -25 -18 -37q-5 -15 -10 -25q-8 -13 -14 -26q-6 -16 -11 -26t-15 -20q-8 -10 -12 -14q-7 -7 -12 -16q-7 -9 -14 -19t-14 -21q-13 -21 -30 -40
l-21 -40q-10 -19 -21 -42z" />
    <glyph glyph-name="n" unicode="n" horiz-adv-x="874" 
d="M160 246q16 10 26 26q5 8 11 16t13 16q26 30 56 50q14 21 35 31q21 11 33 33q3 4 7 12t7 12q38 53 82 88l12 10t11 10q8 8 27 20q9 5 18 11.5t17 14.5q16 16 37 24q13 6 26 9q6 2 12.5 3.5t13.5 3.5q14 4 25 7t25 -1q32 -13 48 -54q6 -15 -6.5 -63t-29.5 -99.5t-24 -79.5
q-4 -15 -2 -17t2 -5q-4 -10 -6 -18t-4 -18q-4 -16 -6 -43t2 -43q20 1 23 4q2 2 5 2q8 2 13 1t13 1q41 11 74 44q18 8 34.5 16t31.5 16q28 20 45 29t51 25q13 15 35 25q20 9 39 25q6 6 10 11q6 8 12 3q10 -10 13 -21t1 -15q-15 -15 -17 -24t-5 -12q-10 -10 -30 -18
q-17 -7 -21 -13t-7 -9q-6 -6 -11 -9t-11 -9q-4 -6 -11 -7l-13 -3q-12 -10 -20 -18l-18 -18q-15 -15 -20 -23q-4 -7 -22 -19l-40 -24q-28 -14 -56 -34l-56 -40q-18 -11 -41 -21q-21 -9 -39 -21q-9 0 -11 1q-3 2 -11 -3q-10 5 -20 1q-11 -5 -20 -1q-10 8 -16.5 13t-10.5 7
q-6 4 -11 10q-4 10 -3 22t-5 20q0 44 3 84t13 84q2 14 10 48.5t13 66.5t-3 37q-22 -12 -45 -36q-11 -12 -22 -22t-21 -18l-31 -22q-7 -5 -15 -10.5t-16 -11.5q-14 -10 -24 -20t-22 -24l-13.5 -13.5t-12.5 -13.5q-12 -13 -28 -25q-10 -10 -15 -13t-13 -11l-19 -19
q-9 -9 -23 -15q-32 -43 -71.5 -83t-62.5 -81q-24 -20 -51 -35t-65 -3q-20 12 -26 20q-6 7 -14 12q2 22 4 42t12 42l12 20q10 17 13 40q3 24 13 42q12 20 15 33q3 12 9 23q5 12 11 19t11 19q5 11 14 23t14 23q12 43 32 88q4 14 8 27t10 25l10 22t10 21q5 11 10 21.5t10 21.5
q6 12 11 21t13 19l6 10t5 10t5 10l6 10t6 10.5t5 12.5q4 13 15 25q7 8 12.5 15.5t9.5 14.5q7 13 26 18q17 -8 35.5 6.5t30.5 -2.5q28 -18 38 -28q12 -11 16 -22q10 -18 2 -37t-28 -33q-7 -31 -28 -64q-10 -15 -19 -29.5t-17 -28.5l-16 -40q-12 -28 -25 -56t-29 -54
q-13 -27 -19.5 -35t-11 -15.5t-15.5 -35.5z" />
    <glyph glyph-name="o" unicode="o" horiz-adv-x="762" 
d="M994 578q10 -1 13 -8q3 -6 11 -6q4 -19 -8 -26.5t-8 -23.5q-18 -12 -44 -15q-27 -3 -40 -21q-35 -17 -73 -21q-19 -2 -39.5 -5.5t-41.5 -7.5q-22 -15 -27 -16q-7 -1 -15 -6q-21 8 -42 8t-44 6q-11 -4 -23 -4t-23 -4q-8 -18 -8 -36q0 -19 -6 -36l-12 -24l-3 -19
q-2 -12 -5 -19q-4 -6 -9 -14t-5 -18q-14 -18 -20 -37q-6 -22 -22 -35q-6 -21 -19 -32q-13 -12 -25 -28q-22 -30 -39 -52t-45 -38q-10 -16 -24 -22q-10 -10 -16 -20l-40 -24q-24 -15 -46 -20q-34 -8 -66 2t-60 28q-19 -2 -29 7q-10 8 -27 13q-22 20 -48 36q-27 17 -38 44
l-9 44q-4 20 -9 40q-4 17 -1 38q3 18 1 40v20.5t-1 16.5q-1 15 9 37q6 13 10 24t6 19t4 15.5t4 13.5q3 5 6 10.5t6 11.5t6.5 11.5t7.5 10.5q12 18 28 36t32 34q11 15 22 26q18 18 34 30t36 32q4 6 10 10l12 8q20 12 37 20t39 18q19 9 31 11q8 2 16.5 3.5t18.5 3.5h24
q11 0 20 4q-6 16 14 22t30 4q20 0 32 -9t22 -21q20 -14 44 -42q5 -5 10 -6t10 -6q8 -12 11 -22q3 -12 13 -22q6 -4 12 -10t8 -16q21 -8 38 -12q9 -4 21 -2q11 2 25 0q9 -1 18 -5q8 -3 18 -3q15 1 33 8q17 6 39 2q30 -7 63 6q33 14 67 18q10 0 14 1t14 1q10 8 26 12t34 8z
M422 518q-20 18 -23 23q-4 6 -7 7q-9 9 -20 10q-6 1 -11.5 2t-10.5 2q-32 6 -53 -7q-10 -7 -20.5 -13t-20.5 -12q-32 -20 -56 -50q-6 -10 -13 -22t-11 -26q-8 -16 -14 -29t-10 -31q-10 -19 -12 -33q-1 -7 -2 -12.5t-2 -10.5q-1 -10 -3 -20.5t-4 -21.5q-5 -25 -5 -38
q2 -6 6 -16t8 -14q4 -10 9 -22t9 -18q11 -14 26 -18q8 -2 17 -4.5t19 -5.5q22 -12 30 -10q10 2 12 2q27 5 46 22q17 16 40 28q8 12 16.5 25t18.5 26q10 14 18.5 27.5t16.5 27.5q5 6 10 18q2 5 4 9.5t4 8.5q14 17 13 18t1 6q13 30 12 46t0 32q-5 11 -9 23t-8 25q-8 27 -21 46
z" />
    <glyph glyph-name="p" unicode="p" horiz-adv-x="786" 
d="M542 232q34 10 68 18t70 12q32 2 66 12l28 9q7 2 13.5 4.5t12.5 4.5q14 4 27 7t23 5q16 -12 15 -13t3 -5l-16 -28q-8 -6 -19 -8q-10 -1 -21 -6q-10 -6 -12 -8q-5 -5 -8 -6q-9 -2 -13 1q-6 4 -9 5q-49 -32 -110 -44q-64 -12 -118 -30q-20 -10 -40 -21t-42 -25
q-16 -32 -45 -62t-59 -52q-8 -6 -13 -9q-4 -2 -6.5 -4t-4.5 -3q-7 -3 -15 -5.5t-16 -4.5l-16 -4t-15 -4q-12 -12 -20 -12q-13 -2 -24 4q-13 7 -26 8q-10 18 -12 25q-2 5 -8 7q-5 20 -23 38q-17 17 -27 38q-4 8 -7 17t-3 17q2 22 18 38t32 26q12 -18 21 -14t15 8q7 3 17 5
l13 3q30 7 64 12q22 2 34 -1q15 -3 32 1q10 18 25 34t29 30q10 24 26 52t32 54l18 36q4 4 7 8t7 12q4 16 3 31t-3 33q-19 11 -38 30q-12 -5 -23 0t-23 0q-6 -1 -12 -6q-3 -2 -6.5 -4t-7.5 -4q-18 -10 -39 -18q-21 -7 -33 -24q-11 -11 -20 -20.5t-16 -17.5t-14.5 -16.5
t-15.5 -17.5q-10 -8 -16.5 -13.5t-8.5 -9.5q-3 -5 -9 -11t-12 -11.5t-12 -10.5q-12 -10 -22 -22q-6 -8 -11 -11t-11 -11q-12 -13 -21 -30q-8 -15 -19 -32l-40 -64q-11 -31 -23.5 -61.5t-26.5 -59.5t-26.5 -60t-23.5 -63q-4 -21 -6 -23t-2 -5q-2 -8 -3.5 -15t-3.5 -14
q-3 -13 -9 -25q-4 -16 -12 -33t-16 -33q-13 -32 -24 -61q-12 -33 -24 -63q-5 -11 -9 -22l-8 -22l-15 -44q-5 -11 -7 -24l-2 -12t-3 -12q-6 -21 -15 -46q-10 -26 -11 -46q-29 -28 -40 -48q-22 -22 -46 -39t-54 -29q-19 0 -49.5 3.5t-30.5 26.5q-2 18 1 46t13 48q8 22 17 42
t17 34q12 52 30 88q5 11 10 21l10 20q11 21 18 41q5 14 6 30t12 28q14 34 35 64t43 60q11 17 18 33q8 17 18 33q18 31 30 64q12 34 34 62q5 11 10 21l10 20l20 39q3 7 7 21t7 21q6 9 11.5 18.5t10.5 19.5q18 40 37 79t43 77q1 21 11 40q5 9 9 19t8 21q6 17 9 34q4 21 7 34
q6 18 14 28q11 14 18 30l4 6t4 7t4 7l4 6q6 12 9 21q2 7 11 19q24 28 31 31q5 2 10 5.5t11 7.5q40 2 50 -19t18 -43l-8 -32t-8 -38q8 7 16.5 14.5t18.5 15.5q20 17 35 32q17 10 33.5 21t32.5 22q32 23 72 39q10 4 21 8t21 4q9 0 17 -5q10 -6 19 -7q11 -11 23 -19
q11 -7 23 -21q8 -10 12 -24l4 -14l4 -14t4.5 -14t6.5 -14q7 -13 9 -26q0 -6 -2 -20t-2 -20q0 -8 1 -12t1 -16q-1 -19 -16 -50l-24 -50q-4 -8 -7.5 -15.5t-6.5 -14.5l-14 -30q-10 -22 -18 -40z" />
    <glyph glyph-name="q" unicode="q" horiz-adv-x="754" 
d="M542 616q14 11 26 27q5 8 10 15l10 14q13 5 19 11q8 8 17 9q24 4 48 -14t30 -34q2 -13 -4 -23t-4 -21q-12 -12 -12 -30q-18 -34 -35 -68t-25 -74q-13 -63 -37 -113q-24 -49 -43 -105q-13 -26 -28.5 -52.5t-33.5 -53.5q-8 -10 -14.5 -20t-11.5 -20l-22 -42
q-5 -11 -10 -21.5t-10 -21.5q-5 -10 -10 -21l-10 -22q-16 -28 -24 -60q-16 -58 -39 -117t-49 -113q-15 -33 -23 -64q-4 -17 -9 -34l-10 -34l-15 -34q-4 -9 -7.5 -18t-7.5 -18q-4 -8 -7.5 -16t-6.5 -16q-6 -16 -16 -32q-8 -34 -26 -63t-40 -53q-6 -8 -20 -16t-24 -10
q-18 -2 -39 7t-33 19q-14 10 -22 19t-4 29q4 16 13 32q5 8 9 16l8 16l12 36q3 9 6.5 19t7.5 21q22 50 50 105t56 95q19 34 37 65t35 59t32.5 56.5t29.5 57.5q12 45 37 84q25 40 37 86q11 12 15 27q4 13 11 29q4 10 7 19t3 17q0 12 -9 4q-4 -4 -9 -8l-10 -8q-7 -4 -19 -14
q-9 -7 -21 -12q-7 -7 -9 -11t-5 -7q-7 -8 -15 -16.5t-16 -17.5q-17 -19 -27 -40q-9 -7 -19 -18q-8 -9 -23 -14q-8 -16 -30 -19t-44 -1q-10 1 -19.5 1.5t-19.5 -0.5q-19 -1 -33 3q-18 12 -21 12t-5 2q-22 24 -32 36t-14 26q-2 6 -1 10q2 6 -3 12q-4 16 -8 36t-4 42q0 32 2 68
t6 74q6 20 9 33q3 16 7 25q6 23 18 42l24 40q28 36 58 64q8 8 16 15.5t15 14.5q8 7 15.5 14.5l15.5 15.5q9 7 16 15q4 5 14 15l18 11q4 2 8.5 5t9.5 6q10 6 16 13t16 15q7 5 13.5 10t13.5 9q12 8 23 19q15 6 30 17t30 17q16 6 37 9t41 -1q20 -11 26 -9q4 1 10 -1
q16 -4 19 -18q3 -12 11 -24q10 -10 22 -23t22 -25zM436 518q-3 -1 -6.5 -2t-7.5 -2l-16 -4q-13 -2 -24 1q-12 3 -22 3q-16 -2 -42 -6t-36 -8q-15 -5 -26 -20q-11 -14 -26 -4l-7 -10q-4 -6 -5 -10q-17 -11 -24 -25q-6 -13 -18 -31l-20 -36t-14 -40q-9 -16 -18 -29t-14 -31
q-4 -12 -8 -27t-2 -31q0 -6 3 -12q4 -7 5 -14q0 -16 3 -23t7 -13q4 -7 6 -16q2 -8 6 -14q9 -4 20 -15t26 -7q14 4 32 21t28 27q8 8 14.5 15.5t11.5 14.5t10.5 14t11.5 14q22 22 40 43t38 41q8 7 17 11q9 5 15 15q13 21 15 22q4 2 5 6q5 6 10 18q4 10 10 20q9 17 18.5 33.5
t19.5 32.5q20 32 32 70q-8 1 -16.5 2t-17.5 2t-17.5 2t-16.5 2z" />
    <glyph glyph-name="r" unicode="r" horiz-adv-x="780" 
d="M582 158q8 11 12 15q5 5 12 9q25 53 65.5 84t86.5 70q10 0 17 7t17 11q12 11 23 18q9 6 15 16q23 11 43 30q21 19 41 34q16 4 34 -4q8 -16 6 -34t-20 -20q-6 -6 -13 -12t-17 -8q-20 -4 -26 -16q-1 -19 -5 -23t-5 -7q-22 -37 -49 -63.5t-51 -64.5q-11 -7 -18 -22
q-36 -20 -53 -31t-31 -27q-12 -7 -12 -12q0 -4 -4 -8q-20 -17 -23 -25t-9 -13q-10 -7 -17.5 -13.5t-12.5 -11.5q-12 -12 -26 -17q-17 -14 -50 -33.5t-68 -30t-58 -0.5l-14 11q-4 3 -14 9q-13 16 -29 27q-14 10 -27 29q-15 21 -19 43q-4 23 -15 45q-5 52 8 86q11 34 24 63.5
t29 54.5q31 48 43 114q-22 22 -25 41q-1 10 -4 23t-7 30q-52 -34 -96 -86t-78 -106l-24 -44q-10 -19 -24 -36q-10 -10 -10 -13t-4 -7q-8 -10 -13 -17t-7 -11t-4 -7.5t-4 -6.5q-6 -8 -10 -12t-10 -12q-28 -40 -51 -75l-47 -71q-11 -17 -18 -34q-7 -18 -20 -32q-20 -2 -23 6
t1 14q-24 16 -27 62t9 74q-6 18 -4 20t2 6q26 36 53 72t57 68l10 14t9 14q10 15 21 26q17 29 41 60q24 30 39 62q11 11 15 22q5 12 17 20q7 12 12.5 23.5t9.5 22.5q6 19 22 38q4 14 10 22t16 18q1 9 11 17t15 17q5 14 10 18q6 5 6 14q10 10 20 21t18 27q28 16 39 16t17 10
h17.5t20.5 1q23 2 24 -15q1 -4 0 -10l-2 -6l-2 -6q1 -18 0 -19q-2 -2 -2 -3q-2 -8 -1 -14q1 -5 1 -18q-1 -8 -2 -14t-2 -11q-2 -10 8 -23q5 -7 12 -11t14 -13q5 -5 7 -12t7 -12q4 -5 12 -10t12 -14q11 -8 7 -10q-3 -2 9 -8q23 -29 34 -62q13 -25 22 -40q10 -16 0 -32
q-6 -6 -14 -24q-9 -9 -16 -20q-4 -7 -6 -15q-1 -7 -6 -13q-18 -29 -37 -52t-33 -50q1 -57 22 -84q24 -28 30 -28q13 -2 28 8l26 16q4 2 7.5 4t6.5 4q6 4 14 6q21 7 20 5q-1 -3 2 -3z" />
    <glyph glyph-name="s" unicode="s" horiz-adv-x="624" 
d="M200 304l12 -10q5 -8 -3 -22q-4 -7 -6.5 -13t-4.5 -11q1 -4 2 -7.5t2 -5.5q2 -6 -2 -13q14 -11 18 -23q5 -16 14 -27q12 -13 21 -20q11 -7 21 -18q11 6 16 6q7 0 16 4q17 22 28 56q2 8 4 18t2 18q-1 26 -16 54q-15 29 -22 54q-8 17 -5 36q3 21 -1 36q-1 10 -6 16
q-2 3 -4 6.5t-4 7.5q-4 17 -3 36q2 20 -9 34q-12 -12 -38 -45.5t-51.5 -66.5t-36.5 -44q-5 -7 -10.5 -13.5t-11.5 -11.5t-11.5 -11.5t-10.5 -13.5q-32 -40 -47.5 -59t-30.5 -39l-48 -64q-11 -16 -37.5 -52t-51 -69.5t-29.5 -44.5q-12 -20 -31 -35t-45 -15q0 1 -4 15.5
t-7.5 30t-4.5 16.5q6 12 9 24q3 11 17 22q4 13 23 43.5t44 66t46.5 65.5t28.5 41q13 13 37.5 45t49 64.5t35.5 46.5q9 27 37.5 67.5t61 83t53.5 73.5q10 16 17 28t15 26q8 8 14 18q4 15 -4 23q-7 8 -6 21q18 34 35 43q18 10 35 33q12 8 19 12q10 5 19 14q14 14 41.5 7.5
t32.5 -17.5q1 -6 0 -16l-2 -10l-2 -10q-2 -9 -4 -17l-4 -16q-2 -7 -4 -15.5t-4 -17.5q-4 -22 -7 -42t13 -38q-2 -10 1 -24t7 -26q4 -64 23 -127t41 -115q0 -10 3 -20t7 -20q6 -64 -12 -127q-9 -31 -17.5 -62t-16.5 -61q-12 -20 -20 -46q-7 -23 -20 -38q-10 -16 -18 -36
t-32 -32q-13 -4 -27 0q-13 4 -25 0q-9 -1 -18 -5q-7 -3 -16 -3q-26 -5 -43 5q-15 8 -41 13q0 6 -6 9t-10 7q-7 30 -16 46q-7 14 -12 30q-6 23 -6 43q0 22 -10 43q-8 18 -7 22t1 12q0 26 -3 57q-3 32 25 51q11 8 15 21q4 11 17 23q4 4 13 4q7 0 13 -2z" />
    <glyph glyph-name="t" unicode="t" horiz-adv-x="608" 
d="M610 1104q44 -7 76.5 -9t71.5 5l79 11q32 4 77 9q12 1 25 0q7 -1 13 -1.5t12 -0.5q26 0 51 2t47 4q4 1 7.5 2t6.5 2q6 2 12 0h18t18 1q18 1 32 -13q6 -20 4 -22q-3 -3 -4 -6q-2 -26 -7 -26t-5 -4q-16 -4 -27 -7t-17 -13q-34 -7 -63 -3q-29 5 -59 -9q-15 -7 -29 -15
q-14 -9 -37 -1q-20 0 -46 -2t-50 -4q-34 -3 -76.5 -6.5t-65.5 -4.5q-22 -1 -63 -3t-73 -2q-16 -13 -21 -34q-5 -20 -21 -32q-18 -40 -26 -51q-9 -12 -14 -31q-28 -36 -51 -75q-21 -36 -53 -73q-4 -22 -15 -39q-10 -16 -15 -45q-21 -28 -32 -66q-5 -18 -11.5 -37t-14.5 -39
q-4 -16 -9 -31t-11 -31q-7 -18 -19 -37q-5 -8 -10.5 -17.5t-10.5 -19.5q-4 -4 -4 -11q0 -5 -2 -11q-3 -7 -6 -13.5t-6 -11.5q-4 -7 -10 -21q-3 -7 -5 -21t-5 -21l-2 -6t-2 -5t-2 -5l-2 -6q-6 -28 0 -38t10 -20q2 -6 4 -11l4 -10q5 -9 6 -19l10 -4t9 -4q8 -4 19 -4
q13 -2 26 11q14 14 24 15q12 4 27 4q13 0 23 6q6 5 11 10t9 10q6 9 22 14q32 8 34 13q1 4 14 15q7 5 13.5 10t11.5 9q8 7 27 19q20 10 23 12t17 14q10 5 18.5 10.5t15.5 11.5q11 10 32 22q24 10 26.5 12.5t3.5 6.5t22 17q7 15 18 26q5 5 11 11.5t13 14.5q13 15 25 24
q14 11 23 20q4 3 10 9t14 7q6 5 10.5 9t8.5 8t9.5 9t13.5 12l10 10q7 7 10 8q9 0 13 -6q5 -6 13 -6q-1 -13 -1.5 -21t-0.5 -12q0 -8 -4 -15q-12 -19 -27 -20q-15 -2 -23 -22q-6 4 -15 2t-13 -6q4 -7 4 -14q0 -4 2 -14q-37 -37 -48 -58q-25 -26 -26 -29l-2 -3l-16 -16
q-28 -22 -42 -42q-13 -19 -42 -36q-22 -16 -30 -24q-4 -4 -10 -9.5t-14 -12.5q-5 -5 -15 -17t-17 -17q-13 -10 -27 -18q-11 -6 -23 -20q-29 -13 -43 -32q-13 -17 -39 -34q-18 -12 -49 -30t-53 -26l-6 -2t-5 -2t-5 -2l-6 -2q-16 10 -31 20t-25 28q-19 14 -29 20q-12 7 -21 16
q-10 17 -21 34t-24 34q-26 35 -39 76q-3 5 -5 17l-3 19q-2 8 -4 15t-4 13q-4 10 -2 30q0 14 4 26q2 7 4 14.5t4 15.5q4 13 9 25.5t10 24.5q12 27 17 52q12 42 26 80q3 7 5 19q1 9 11 13q8 40 26 77t36 71q11 21 21 42.5t20 43.5t20 43.5t21 42.5q1 22 16 40q1 20 16 43
t20 43q-22 6 -49 1t-47 -9q-36 -1 -76 0q-7 1 -13.5 2.5t-13.5 2.5q-13 3 -25 3q-18 -1 -27 3q-10 5 -19 1q-28 24 -57.5 42t-38.5 46q0 6 6 10q8 6 10 8q17 5 36 3q19 -1 32 7q29 -4 59 4q27 8 57 6q4 0 12 -2t12 -2q10 -1 17 0l8 2t9 2q12 2 26 0t28 0q29 2 63 -5
q37 -7 65 3q5 14 10.5 28.5t12.5 28.5q14 29 21 57q8 12 16 27t12 29l19 32l8 12t9 12q14 29 21 55q4 14 8.5 28.5t10.5 30.5q13 14 26 31t26 37q15 -2 23 8q9 10 27 -2q0 -6 5 -11t1 -15q20 -20 26 -36q4 -16 -3 -37t3 -39q4 -9 2 -19q-2 -11 2 -17q5 -11 11 -20
q7 -10 7 -26q0 -6 -3 -15t-7 -19q-7 -30 -12 -42q-2 -6 -4 -12.5t-4 -13.5q-14 -17 -14 -21q0 -3 -2 -9q-3 -6 -6 -13.5t-7 -15.5t-7 -15t-6 -12z" />
    <glyph glyph-name="u" unicode="u" horiz-adv-x="886" 
d="M502 14l-12 44q-12 25 -4 78l7 35q2 7 3.5 18t3.5 27q2 15 4.5 30.5t6.5 31.5t6.5 32t4.5 32q-15 -23 -29 -47t-27 -50q-25 -49 -62 -85q-8 -24 -20 -30.5t-24 -12.5t-20 -29q-10 -10 -19 -21t-13 -27q-10 -4 -20 -16q-19 -19 -24 -20t-10 -6q-20 -16 -35 -24t-35 -10
q-22 -4 -57 -6q-17 -1 -31 -2t-24 -2q-13 10 -20 12q-3 1 -8.5 3t-13.5 5q-29 12 -28 11q-1 1 -3.5 2t-6.5 3q-16 12 -22 19q-4 5 -14 15q-33 51 -38 132q-2 28 10 56t22 50q12 25 26 46q8 12 14.5 23t11.5 21q12 24 4.5 31.5t3.5 30.5q5 16 12 28l18 32q18 32 38 57
q18 22 30 59q10 28 27 43t41 27q10 -4 29 3t29 15q14 0 22 8q22 4 23 0t5 -4q4 -1 11 0t11 0q7 -21 10 -26q4 -5 4 -10q0 -6 -1 -16t-3 -14q-11 -15 -13 -19l-3 -7q-6 -8 -13.5 -18.5t-16.5 -24.5l-32 -47q-11 -17 -20 -22q-11 -6 -18 -22q-4 -7 -6 -15q-1 -7 -6 -15
q-23 -48 -52 -97q-15 -25 -28.5 -49.5t-25.5 -47.5q-1 -8 -3 -15.5t-4 -15.5q-5 -17 -5 -29q0 -3 -2 -31t2 -33q12 -17 14 -15t4 -1q8 -20 11 -23t13 -7q8 -2 23 3t23 9q24 12 36 25t24 27q30 36 64 84t64 84q11 24 29 48q19 26 29 46l28 54q6 11 13 24t15 28q12 17 25 31
t19 41q5 14 15 27q5 7 9.5 12.5t7.5 10.5q15 14 19 22t13 14q22 6 34 9t30 -1q16 10 34 10q9 0 17.5 -0.5t16.5 -1.5q0 -10 5 -13t5 -11q8 -18 0 -44q-9 -29 -10 -52q-5 -21 -15 -37q-11 -18 -17 -39q-4 -15 -6.5 -24t-3.5 -12l-6 -22q-4 -18 -8 -34.5t-8 -32.5
q-8 -32 -12 -71q0 -10 -3 -21q-3 -10 -3 -19q0 -10 1 -24t11 -18q11 -4 19 2q10 8 21 14q7 5 20 18t20 18q10 10 22 16t22 16q16 14 31.5 28.5t29.5 29.5q30 31 63 50q32 34 65 63t75 49q16 -26 8 -43t-20 -33q-5 -5 -14 -10q-11 -6 -16 -10l-10 -10q-6 -6 -10 -6
q0 -8 -5 -13l-9 -9q-13 -20 -27.5 -37.5t-30.5 -33.5l-31.5 -31.5t-30.5 -31.5q-14 -5 -17 -13q-3 -10 -13 -17q-4 -5 -8 -9l-8 -8l-8 -8t-8 -9q-12 -13 -21 -27q-9 -13 -25 -25q-10 -10 -15 -21q-4 -10 -15 -21q-16 -16 -23 -15q-6 1 -11 -19q-16 -12 -18 -17q-1 -4 -6 -3
q-5 -2 -14 -3q-10 -1 -10 -5q-13 -6 -21 -12q-8 -7 -19 -8q-26 -4 -37 3t-23 21z" />
    <glyph glyph-name="v" unicode="v" horiz-adv-x="784" 
d="M286 692q16 4 18 1t8 -3q8 -11 2 -32q-7 -32 -28 -61t-32 -57q-7 -14 -12.5 -24.5t-9.5 -18.5q-4 -7 -7.5 -15t-6.5 -16q-10 -22 -20 -49t-20 -55l-12 -26q-10 -22 -16 -39t-8 -43v-54q2 -14 3 -29t2 -31q2 -33 13 -54q25 12 54 41q14 14 26.5 25.5t23.5 19.5
q14 20 31 37q18 18 29 39q24 20 32 52q10 11 19 25q5 7 9.5 13.5t9.5 13.5q15 21 26 50q6 17 5 32q-1 8 -1 16v16q1 17 6 34q4 14 2 32q3 5 7 17t7 19q4 10 15 22t21 22q7 9 13.5 18t12.5 18q11 17 30 28l24 10q15 7 24 8q15 2 40 9q26 8 40 3q8 -1 15 -9q7 -6 17 1
q16 -17 16 -30q0 -12 -8 -26q-13 -19 -14 -23q-1 -2 -2 -4.5t-2 -4.5q-18 -30 -36 -66t-30 -68q20 -10 53 -9t59 7q4 1 7.5 2t7.5 2t7.5 2t7.5 2q13 4 39 7q21 3 39 11q23 12 28 12q7 0 14 4q19 5 35 10t29 10q7 2 14 4.5t14 6.5q14 8 26 3q4 -4 3 -14q-1 -9 5 -20
q-16 -13 -24 -12q-16 -8 -33 -15t-36 -14l-71 -25q-24 -11 -32 -9q-7 2 -18 -3q-33 -15 -57 -22q-20 -6 -35 -14q-8 -6 -11 -9q-5 -5 -13 -7q-34 -6 -58 -5q-25 1 -52 -13q-6 -12 -16 -27t-22 -25q-10 -20 -21 -34t-25 -30q-18 -16 -36 -34l-34 -34q-28 -46 -65 -85t-77 -77
q-10 -1 -19 -9q-7 -6 -19 -11q-13 -4 -20.5 -6.5t-9.5 -3.5q-4 -1 -12 -6q-14 -6 -21 -11q-6 -4 -9 -7q-5 -4 -12 -4q-5 0 -10 -8q-25 5 -30 -6q-8 0 -16 -2q-6 -2 -14 0q-6 5 -9 9q-4 6 -7 9q-30 12 -36 26q-7 15 -18 22q-9 21 -11 48q-1 12 -2 24.5t-3 25.5q-1 4 -2 7.5
t-2 7.5t-2 7.5t-2 7.5q-4 16 -3 32q1 15 -5 32q10 32 2 62q4 14 10 37t8 39q5 42 15.5 70t32.5 70q8 18 18 36q5 9 10 18.5t10 19.5t8.5 16.5t4.5 9.5q4 7 13 22l10 18q6 10 14 18q16 16 30 25t34 19q19 -4 49 7t37 -1z" />
    <glyph glyph-name="w" unicode="w" horiz-adv-x="1244" 
d="M136 142q26 11 48 28q16 22 34 42t38 40l12 12t11 12t11.5 12.5l13.5 13.5q5 5 8 7t8 9q11 14 18 27q7 12 20 27q13 7 26 22q6 7 12 13.5t12 12.5l9 8q2 2 4.5 4t4.5 4q6 6 9 14q2 4 3.5 8t3.5 8q18 30 32 50q44 24 90 42t88 16q2 -2 12 -8q8 -5 12 -14q10 -16 4 -38
t-20 -32q-16 -46 -22 -104t-4 -110q-5 -6 -3 -17q1 -10 -5 -15q8 -16 20 -32t34 -16q24 6 30 6q4 0 10 2q10 6 13 9q6 6 11 7q6 10 8 12t8 10q22 27 39 52l37 54q6 10 11.5 18.5t9.5 15.5q5 7 9.5 17t9.5 23l9 21q3 7 9 23q5 12 0 33q-4 21 0 31q10 13 10 24q14 23 14 26
q0 2 2 8q4 4 8 9t4 13q33 33 82 52q34 6 63 17q27 10 43 -7q-5 -6 2 -11q6 -4 6 -11q2 -11 -1 -16q-3 -6 -3 -12q-12 -22 -14 -22t-4 -2q-3 -5 -7 -19q-1 -5 -3 -11l-4 -12q-6 -16 -14 -35t-20 -37q-10 -24 -3 -31t7 -17q6 -5 13 -6t13 -6q8 -6 11 -10q4 -5 15 -10
q9 -2 17 -1q7 1 23 -1t21 0t15 10q23 12 27 18q3 4 9 10q9 4 19 4t17 4q22 8 49 20t49 24q10 4 19 8t13 14q8 2 11 3q2 1 13 1q5 -12 10 -18q6 -8 -6 -20q-23 -23 -53 -40q-29 -17 -53 -42q-12 -5 -23 -10.5t-21 -12.5q-19 -13 -48 -21q-15 -9 -26 -15.5t-18 -11.5
q-14 -10 -24 -11q-18 0 -34.5 -0.5t-31.5 -1.5q-11 -2 -17 2q-4 2 -19 8q-27 7 -40 20q-6 6 -12 11.5t-12 10.5q-7 -11 -13.5 -23t-11.5 -25q-11 -26 -27 -44q-7 -22 -16 -34q-10 -13 -18 -36q-10 -11 -18.5 -23t-15.5 -26q-14 -28 -36 -47q-45 -57 -118 -98q-13 4 -28 -4
q-14 -8 -24 -2q-42 -10 -55 6t-27 22q-18 29 -21 50t-9 44q-4 12 -9 21q-4 9 -3 19q-7 30 -13 43q-4 8 -6.5 18t-4.5 21q-1 9 -1.5 18t0.5 18q1 17 -5 38q-36 -6 -45 -25t-25 -29q-7 -21 -22 -33q-13 -10 -24 -33q-22 -12 -39 -32q-18 -21 -39 -38q-18 -11 -27 -20
q-8 -8 -17 -12q-6 -10 -16 -19q-7 -6 -20 -19t-18 -19q-9 -10 -18 -17q-8 -10 -15 -15t-13 -9q-8 -6 -12 -11q-6 -8 -10 -9q-14 -9 -25 -15.5t-19 -11.5q-16 -9 -28 -3q-16 -4 -30 5t-26 17q-5 7 -10 13.5t-10 12.5q-9 11 -14 28q-12 16 -22 37t-18 43q-1 41 -6 60
q-4 17 -2 40q1 23 15 43t21 39q-1 17 6 24q8 8 6 20q17 46 38 73q20 26 30 59q10 34 25 59q14 24 25 57q9 17 13 30q4 15 15 32q8 8 11 12t11 10q17 5 28 14t28 14q12 4 23 4q9 0 19 6q25 16 35 18q8 1 19 6q14 -12 22 -25t4 -33q-13 -13 -14 -19q-1 -7 -6 -13
q-5 -8 -12 -14t-12 -14q-2 -4 -3.5 -7.5t-3.5 -6.5q-4 -8 -7 -12l-9 -8q-6 -6 -9 -10q-5 -5 -6 -10q-1 -6 -6 -12q-6 -9 -19 -18q-9 -7 -15 -16q-3 -9 -7 -29q-1 -8 -3 -16.5t-4 -16.5q-7 -22 -22 -51q-17 -33 -24 -53q-2 -9 -3.5 -18t-3.5 -17q-1 -8 -3 -16.5t-4 -16.5
t-6 -14t-6 -12q-10 -28 -11 -60t23 -40z" />
    <glyph glyph-name="x" unicode="x" horiz-adv-x="802" 
d="M302 450q17 12 35 26q8 7 17 14l18 14q21 17 42.5 34t43.5 33q22 17 43.5 33.5t42.5 33.5q8 10 18 16q21 11 23 15t5 5q7 4 19 1q11 -3 21 1q26 6 54 0t36 -10q5 2 9.5 3t8.5 2l16 3q16 0 23 -6t13 -12q0 -8 1 -13q2 -7 -3 -15q-20 -18 -42 -35t-50 -29q-31 -17 -41 -27
t-27 -15q-28 -12 -53 -31q-22 -16 -51 -33q-16 -12 -33 -23l-34 -22q-36 -22 -67 -47q-11 -7 -17 -13q-3 -3 -11 -9q2 -15 6 -25q4 -9 4 -27q3 -4 7 -14q2 -4 3.5 -8t3.5 -8q5 -9 9 -18t8 -17l8.5 -17t10.5 -18l15 -24q8 -12 19 -18q5 -10 9 -15q5 -4 9 -15q13 -22 44 -11.5
t56 23.5q20 2 31 11t23 19q5 4 10.5 7.5t10.5 6.5q12 7 21 16q20 14 40 27t42 23q12 16 23 23q14 9 25 19q18 12 28 22t26 20q10 10 20 18t16 14q14 6 25 13t19 21q10 0 17 7q8 8 17 9q4 -18 0 -29t-10 -19q-12 -12 -24 -22t-28 -18q-3 -3 -9 -7t-9 -7t-9 -7t-9 -7
q-11 -20 -17 -24q-7 -4 -13 -12q-11 -6 -21 -16q-9 -9 -23 -18q-42 -40 -72 -67t-64 -53q-29 -17 -56 -31q-14 -7 -28.5 -15.5t-29.5 -17.5q-4 -2 -8 -4.5t-8 -5.5q-8 -7 -14 -8q-10 -4 -21 -3q-10 2 -21 -9q-19 -7 -42 -18q-21 -10 -40 -8q-7 1 -17 7q-7 4 -17 3
q-6 14 -26 22t-14 30q-11 15 -22 34q-5 9 -10 17.5t-10 16.5q2 26 -7 42t-19 32l-4 12l-4 12q-4 11 -9 18q-6 10 -7 18q-22 -12 -32 -20t-28 -24q-5 -4 -9.5 -7.5t-8.5 -6.5t-8.5 -6.5t-9.5 -7.5q-23 -13 -38 -28q-8 -8 -16 -18q-7 -9 -16 -14l-21 -12q-5 -3 -10.5 -6.5
t-10.5 -7.5q-7 -5 -17 -15q-8 -8 -19 -15q-6 -4 -12 -12q-6 -7 -14 -12q-10 -9 -26 -16t-26 -16q-24 -24 -44 -37t-46 -9q-13 8 -41.5 18t-28.5 20q8 8 16 13t18 11q21 21 45 37q11 8 23 15.5t24 15.5q16 10 25 24q10 15 25 26q8 14 18 20q6 6 9 10t9 10q22 12 22 14t2 4
q17 12 24 24q4 3 14 9q9 5 16 11q10 8 19.5 15t17.5 13l35 26q11 11 22 18q6 4 11.5 8t10.5 8q12 24 6 30q-7 7 -8 10q-2 10 -2 17t-2 17l-6 30q-1 14 -8 29q-5 12 -10 29q-4 9 -7 25q-3 14 -7 23q-2 6 -3.5 12.5t-3.5 13.5q-4 16 -7 24q-6 10 -8 16t2 20q2 14 2 18
q0 8 8 14q17 11 20 14l8 8q13 5 34 17q20 12 32 17q28 18 41 7t17 -27q-10 -24 -9 -30q1 -4 1 -12q-4 -17 -4 -35q0 -14 12 -25q-4 -8 -1 -14t7 -10q6 -33 20 -60q7 -13 14 -26.5t14 -27.5z" />
    <glyph glyph-name="y" unicode="y" horiz-adv-x="916" 
d="M148 158q19 -4 36 10q18 15 34 24q8 10 19 21t23 19q14 18 29.5 35t32.5 33q8 10 16 19.5t16 18.5t16 18.5t16 19.5q8 11 16 26q3 6 6.5 12t7.5 12q11 18 23 32q13 16 19 38q8 13 21 20t21 20q5 6 10 18q4 10 12 16t9 10q2 5 5 8q6 11 15 18q10 9 17 18q25 20 36 31
t30 23q36 12 73 8t53 -26q1 -13 3 -25.5t4 -23.5q5 -24 -7 -59q-8 -20 -20 -40q-11 -18 -18 -40l-8 -12q-6 -8 -8 -10q-19 -54 -42 -105q-11 -25 -22 -51l-22 -52q53 26 76 42q13 9 27 17.5t29 16.5l36 24q9 6 18.5 12t19.5 12q16 20 36 33t42 27q14 14 28 23t30 19l10 8
t9 8q12 10 19 14l15 16q10 10 17 14q18 7 36 18q10 6 15 10q7 6 17 10l14 19q8 12 22 7q5 6 15 6q12 0 17 -4q0 -7 3 -12t-1 -14q-10 -7 -18 -15q-6 -6 -20 -11q-25 -27 -45 -40q-19 -12 -31 -34q-34 -34 -70 -68t-72 -66q-11 0 -22 -8t-20 -4q-12 5 -20 -16
q-52 -55 -116 -98q-39 -41 -90 -73q-52 -33 -90 -71q-4 -39 -21 -77t-27 -73q-8 -17 -13.5 -32t-9.5 -28q-8 -27 -21 -50q-6 -34 -20 -63t-30 -57q-5 -24 -20 -42q-14 -17 -26 -44q-5 -11 -10 -19t-10 -19q-6 -10 -10 -20t-10 -20l-8 -9q-2 -2 -4 -4.5t-4 -4.5l-24 -42
q-17 -36 -41 -57q-13 -11 -26 -24l-27 -27q-9 -9 -17 -20q-7 -10 -17 -20q-13 -13 -20 -19q-5 -4 -10 -9.5t-10 -11.5q-16 -6 -26 -19t-20 -27q-10 -6 -13 -9t-13 -9q-14 -5 -20 -9q-7 -5 -8 -5q-13 -7 -30 -9t-28 -11q-20 0 -29 8t-17 18q-14 26 -9.5 54t13.5 59t6 65
q11 32 12 54q1 20 8 40q15 25 16 32q1 9 12 14q2 13 6 20q5 8 6 18q6 4 10 10q4 5 12 10q10 20 18 37t13 31t11.5 28t13.5 28q3 8 5.5 15.5t4.5 14.5t4.5 13.5t5.5 12.5q9 20 27 44l33 44q7 9 12 15.5t7 10.5q6 10 9 14q17 12 15 15q-1 3 1 3q27 27 52 48q12 14 24 26t28 22
q12 14 24 26t28 22q16 11 30.5 23.5t27.5 25.5q13 14 27 26t29 23q5 30 14 50q9 19 14 48q8 14 14 32t10 34q6 6 9 16q4 14 7 22q10 19 10 34q2 16 2 21q0 10 4 21q2 14 2 28q-17 -15 -25 -28q-10 -16 -21 -30l-9 -9t-7 -15q-12 -13 -14 -14q-4 -1 -4 -6
q-23 -26 -45.5 -52.5t-45.5 -54.5q-22 -28 -45 -54.5t-46 -52.5q-18 -16 -38 -31t-42 -31q-8 -6 -17.5 -13.5t-20.5 -15.5q-23 -17 -54 -7q-46 -18 -75 7t-45 55q-8 12 -13 21t-3 31q2 11 4.5 22.5t5.5 22.5t5.5 24t4.5 27l4 22t3 22q3 21 9 46q6 28 16 54t24 44
q5 15 10 29.5t9 27.5q5 14 9.5 27.5t9.5 27.5q10 32 24 62t30 58q10 14 19 25t19 23q20 2 32 7t24 11l14 4t14 3q7 2 13.5 3.5t12.5 3.5q22 10 28 9q5 -1 10 5q4 -10 12 -13q9 -3 10 -13q0 -14 -11 -34q-10 -19 -15 -30q-4 -7 -8 -15t-8 -17q-8 -19 -18 -32q-2 -9 -4.5 -18
t-6.5 -17t-7 -17l-6 -18q-20 -22 -35 -50t-31 -60q-4 -10 -9 -18q-4 -7 -9 -18q-2 -9 -3.5 -18t-3.5 -18q-1 -9 -3 -18l-4 -18q-8 -21 -12 -46q-4 -28 -6 -56t-2 -58zM434 -14h-2q-39 -25 -70 -57q-15 -16 -30.5 -31.5l-31.5 -31.5q-7 -8 -14 -15.5t-14 -15.5
q-15 -17 -26 -33q-10 -18 -21 -37t-27 -35q-25 -23 -30 -35q-3 -7 -6 -12.5t-6 -10.5l-15 -31q-4 -7 -8 -14.5t-9 -14.5q-9 -17 -18 -40t-18 -40q-14 -36 -22 -69t-6 -67v-15q0 -6 6 -11q9 0 30 8q16 14 31 28t29 30q28 32 60 64q28 32 50 69t38 83q6 11 11 22.5t9 24.5
q7 24 20 45q11 32 22.5 63t23.5 60q26 62 44 119z" />
    <glyph glyph-name="z" unicode="z" horiz-adv-x="638" 
d="M280 356q22 4 47 8t53 2q14 0 26 3q13 3 28 -1q8 -2 13 -2t11 -2q3 -1 8 -6q2 -2 12 -8q28 -26 37 -53t7 -49q0 -10 -3 -22t-7 -24q-2 -12 -5 -27t-7 -29q-8 -28 -21 -50t-29 -44l-19 -31q-8 -14 -21 -25q-16 -32 -33 -58t-35 -52q-20 -23 -33 -46t-33 -46
q-18 -26 -34 -42q-5 -5 -9 -10.5t-8 -10.5t-8 -10.5t-9 -10.5q-16 -22 -34 -43t-36 -41q-20 -22 -38 -40t-40 -34q-28 -11 -46 -31q-19 -21 -42 -39q-31 -25 -51 -47t-51 -47l-20 -15q-10 -7 -20 -17q-17 -12 -30.5 -21t-24.5 -14q-19 -10 -41 -23q-10 -6 -14 -11t-12 -11
q-8 -3 -22 -7q-11 -3 -20 -7q-13 -8 -44.5 -11t-41.5 7q-14 11 -15 14l-3 8q-4 5 -7.5 10t-6.5 10q-5 9 -16 20q-4 15 -4 31t12 23q-4 39 16 73q20 33 36 63q34 34 67 68t67 70q13 23 35 42q11 9 21 19t20 21q10 14 27 29q8 7 15.5 14t15.5 15l48 40q12 12 23 18t23 20
q21 25 33 35q7 5 12.5 11t10.5 12q26 25 32 35q7 12 22 19q11 13 18 25q6 11 20 25q3 3 15 13q10 8 15 17q3 7 5 22l2 12t3 12q11 6 16 1q6 -6 10 -9q18 -46 -18 -82q-24 -31 -42 -57t-46 -39q-4 -5 -7.5 -10.5t-6.5 -12.5q-6 -13 -18 -19q-12 -20 -23 -37t-25 -33
q-5 -9 -14 -16q-7 -6 -12 -20q-11 -20 -28 -30q-19 -11 -26 -32q-28 -28 -67 -65t-60 -58q-29 -29 -53 -57t-42 -50q-25 -34 -19.5 -51.5t39.5 -0.5q28 13 37 21q11 9 27 21q28 16 54 32t50 38q26 20 47 44t45 48q28 42 63 77t71 67q30 48 59 87t63 73q11 11 18 30
q9 14 18.5 27.5t19.5 26.5t20.5 27.5t21.5 30.5q20 30 31 61t21 71q-7 12 -8 16q-1 6 -6 12q-12 16 -42 19t-50 -3l-19 -9q-9 -5 -19 5q-29 -6 -55 -19q-23 -12 -55 -25q-7 -2 -14 -4.5t-14 -6.5q-14 -8 -26 3q-8 6 -17 20t-13 24q-4 6 -8 17t0 23q4 10 17 25t21 21
q7 5 16 9l18 7q7 4 20 17l20 21q16 16 35 25t29 25q20 15 49 34q26 17 51 44q8 8 11 12t11 12l37 45q21 25 25 59q2 10 -13 23t-23 15q-11 2 -18 -1q-9 -4 -16 -5l-28 -8l-28 -8q-6 -2 -10 -6l-8 -8l-19.5 -6.5l-10.5 -3.5t-7 -2t-9 -2q-8 -8 -11 -17q-3 -10 -9 -17
q-5 -9 -11 -11t-11 -9q-10 -26 -18 -33t-18 -15q-8 0 -17 -6q-10 -6 -17 -2q-14 -10 -35 -3t-27 21q-5 23 -20 36t-20 36q-4 16 -2 33t6 37q10 6 13 11t11 13q36 20 75 31t81 21q11 2 21.5 4.5t20.5 6.5t20 6.5t20 4.5l47 9q11 2 23.5 4.5t25.5 4.5q15 -6 34 -1q18 4 34 -3
q5 -1 10 -8q4 -6 10 -10q5 -4 13 -7t13 -7q23 -23 34 -27q6 -2 11.5 -5.5t10.5 -7.5q1 -11 8 -19q6 -7 10 -17q0 -51 -34 -70q-28 -38 -55 -73t-61 -67q-5 -11 -11 -16t-11 -16q-12 -6 -22 -19q-5 -7 -10 -13l-10 -12q-7 -9 -17 -18q-9 -7 -15 -18z" />
    <glyph glyph-name="braceleft" unicode="{" horiz-adv-x="566" 
d="M346 690q11 -10 21 -18q13 -9 19 -18q1 -21 11 -37q9 -16 15 -31q5 -10 0 -42q-2 -14 -2 -21t-2 -21q-2 -7 -4.5 -14t-5.5 -15q-5 -12 -10 -31q-12 -28 -28 -60t-32 -62q-9 -14 -16 -30t-16 -30q-5 -14 -14 -30l-16 -28q-7 -11 -13.5 -22.5t-12.5 -23.5t-12 -23.5
t-12 -22.5q-16 -18 -24 -36q-11 -18 -12 -37q-1 -16 -10 -39q-10 -28 -2 -36l14 -14q14 -12 21 -9q8 3 21 3q10 0 21 -4t11 -8q-42 -22 -68 -29t-54 -3q-11 1 -19 6l-15 8q-10 4 -14 9t-8 11q-4 4 -11 13t-9 17q0 13 -2 19q-1 2 -2 4.5t-2 4.5q-2 8 0 14q1 3 2 7t2 9
q1 16 5 25q2 4 3 7l2 6q4 15 8 31.5t8 33.5q8 35 26 67q8 14 15 28t14 27q7 14 14 28.5t15 30.5q12 24 21 51q10 29 19 49q9 19 14 45t12 49l20 56t4 50q-12 7 -24 8q-14 2 -26 6q-8 5 -12 11t-14 5q5 8 0 13q-4 4 -4 13q1 9 12 26q9 13 14 28q12 30 40 41t44 13q12 4 22 0
q21 11 41 28q10 8 20 16.5t21 17.5q11 12 15 24q2 6 5 12.5t6 13.5q9 23 19 46.5t20 47.5q19 44 37 94q7 23 10 29q2 5 4 9.5t4 9.5q2 10 6 26t10 30q20 40 36 66t32 50q9 15 19 34t21 32l19 19t13 19q16 16 33 30t35 28q33 11 57 31q25 21 59 31q6 2 12.5 4t13.5 3
q14 3 30 9q9 1 16 3l14 3q8 6 20 7t20 1q29 -4 38 -28q-2 -14 1 -21q3 -6 -5 -11q-14 -2 -29 0q-18 2 -29 -2q-9 0 -22 -8q-13 -3 -34 -7q-19 -3 -28 -7q-8 -6 -11 -11t-13 -11q-10 -10 -20 -13q-11 -3 -18 -13q-18 -34 -30 -48q-10 -12 -22 -30q-24 -36 -44 -70t-40 -78
q-18 -42 -36 -90q-4 -12 -6 -26q-1 -13 -8 -26q-8 -20 -16.5 -40.5t-18.5 -41.5t-18.5 -41.5t-16.5 -40.5q-16 -40 -38 -76t-56 -66q-22 -18 -51 -28t-59 -18z" />
    <glyph glyph-name="bar" unicode="|" horiz-adv-x="524" 
d="M732 1490l18 -8q-16 -48 -35 -102t-43 -108q-33 -69 -75 -142q-40 -70 -63 -138l-9 -38q-2 -9 -4.5 -18t-4.5 -18q-5 -16 -8 -27t-5 -17q-3 -13 -9 -26q-12 -28 -25.5 -56.5t-27.5 -57.5q-29 -60 -51 -118q-13 -30 -27 -59.5t-28 -58.5l-28 -58t-27 -58l-18 -40t-17 -40
t-17 -39t-18 -37q-6 -14 -12 -27t-11 -26t-9.5 -25t-7.5 -24q-10 -15 -19.5 -31t-18.5 -33q-18 -34 -46 -52q-8 -5 -18 -10t-22 -10l-24 -10q-13 -6 -20 -4q-11 15 -18 17t-10 5q-14 8 -15 15t9 29q5 11 6 19q2 9 6 15q10 21 24 43q7 11 14 21.5t14 21.5q14 23 24 48
q5 13 10 25.5t10 24.5q8 20 15.5 40t14.5 40t15.5 41.5t18.5 44.5q4 11 8.5 22.5t8.5 22.5q5 11 9 22.5t8 22.5l15 46q4 12 8 23.5t9 22.5t13 22q9 12 15 28q9 17 18 36t19 39t18.5 38.5t16.5 34.5q8 17 15.5 34t14.5 34q12 31 30 70q15 32 31 64.5t32 66.5q32 66 61 131
l15 34q4 9 7.5 17.5t7.5 16.5l10 18t9 17q5 8 9.5 17t9.5 18q11 24 18 48q8 25 24 50q1 2 7 8t9 10l4 8l4 8q6 10 8 12q4 4 11 8q10 6 15 10q7 5 14 12q4 4 14 4q21 0 32 -4q8 -5 8 -11q0 -7 6 -15z" />
    <glyph glyph-name="braceright" unicode="}" horiz-adv-x="596" 
d="M424 750q-13 13 -20 18q-10 7 -16 18q-5 23 -13 37q-9 16 -15 31t-2 40q2 16 2 23t2 21q8 29 24 60q10 28 26 60t32 60q4 8 7.5 16t6.5 15q6 16 16 31q8 17 15 30q4 7 8 13.5t9 12.5q7 12 13.5 24t11.5 24t11.5 23.5t13.5 22.5q6 11 12 18q5 6 10 18q10 17 13 37
q3 19 9 37q1 6 5 11q4 6 5 9q0 9 -8 17q-9 9 -12 13q-17 14 -23 11q-7 -3 -19 -3q-10 0 -22 4t-12 8q42 22 69 29t53 3q11 -1 19 -6q4 -2 17 -8q10 -8 12 -10l10 -10q11 -11 18 -30q0 -14 3 -19q3 -4 3 -9q2 -13 -4 -30q0 -20 -3 -26q-4 -8 -5 -12l-17 -65q-9 -36 -27 -67
l-27 -55q-7 -13 -14 -28t-15 -31q-15 -27 -23 -52q-4 -14 -8.5 -26t-8.5 -22q-11 -23 -15 -46q-2 -12 -5.5 -24t-7.5 -24q-10 -28 -19 -56t-5 -50q12 -7 25 -8q14 -1 27 -8q6 -5 10 -11t14 -5q-4 -7 1 -13q5 -5 3 -11q-1 -9 -12 -26q-8 -13 -14 -30q-7 -28 -34.5 -38.5
t-49.5 -15.5h-22q-20 -9 -41 -27q-10 -8 -20 -16.5t-21 -16.5q-16 -20 -24 -50q-9 -23 -18.5 -46.5t-20.5 -47.5q-10 -24 -20 -47.5t-19 -46.5q-7 -23 -10 -29q-5 -9 -6 -19q-2 -5 -4 -11.5t-4 -14.5q-5 -19 -10 -30q-29 -61 -66 -116q-9 -15 -19 -34q-8 -16 -21 -34
q-13 -13 -20 -18q-9 -6 -14 -18q-16 -16 -32 -30t-36 -28q-33 -11 -57 -31t-57 -31q-7 -2 -14 -3.5t-14 -3.5q-15 -3 -28 -9q-5 -1 -9 -2t-7 -2q-8 -2 -16 -2q-6 -6 -19 -7t-21 -1q-29 4 -38 28q2 14 0 20q-1 6 4 10q11 4 29 2q17 -2 31 2q4 0 10 3q8 4 12 5q17 5 33 6
q15 1 27 8q8 6 11 10t13 12q11 10 21 13q9 3 19 13q17 36 28 48q10 12 22 30q24 36 45 70t39 78q10 22 19 44t17 46q4 9 7 25q2 7 3.5 13.5t3.5 13.5q9 20 18 40.5t19 41.5t18.5 41.5t16.5 40.5q14 38 37 75t55 67q24 18 53 27q14 5 28.5 9.5t28.5 9.5z" />
    <glyph glyph-name="asciitilde" unicode="~" horiz-adv-x="892" 
d="M798 594q-25 -17 -57 -27t-49 3q-14 -2 -19 -2h-19q-40 -10 -60 -3q-10 4 -20.5 6.5t-21.5 4.5q-6 0 -11 -1t-13 1q-9 1 -16 8q-5 6 -16 10q-15 4 -34 4q-16 4 -34 8t-40 2q-50 -5 -101 -21q-50 -16 -101 -27l-35 -10q-19 -6 -29 10q8 8 6 17q-1 9 16 19q2 14 11 28
q5 7 9.5 15.5t9.5 18.5q51 33 110 47q29 7 58 15.5t58 19.5q36 2 74 -2t50 -30q32 -6 49 -18t35 -19t52 1q22 -6 49 3t51 9q20 12 44 22t42 12q12 -5 16 -11q6 -10 10 -15q-13 -20 -17 -46t-23 -48q-8 -2 -14 -3t-10 -2q-7 -1 -10 1z" />
    <glyph glyph-name="uni00A0" unicode="&#xa0;" horiz-adv-x="700" 
 />
    <glyph glyph-name="guillemotleft" unicode="&#xab;" horiz-adv-x="868" 
d="M-12 346q14 17 14 22q0 7 10 8q14 14 14 16q0 1 4 0q12 12 29 24q16 12 27 26q18 11 33 24q16 14 39 20q3 3 7 9t7 9q23 17 48 41q25 23 46 39q5 4 10 7.5t10 6.5l20 12q19 18 34.5 31t27.5 21q26 18 44 36q6 5 12 6q5 1 10 8q23 11 42 21q20 11 48 15q33 -8 37 -18
l9 -18q4 -14 -7 -24t-25 -18q-20 -18 -40 -35t-40 -25q-13 -8 -24 -15t-20 -14q-15 -11 -40 -23q-10 -10 -14 -15t-14 -13q-10 -14 -26 -25t-34 -21q-20 -16 -39 -30t-41 -26l-16 -9q-5 -3 -10 -9q-7 -1 -17 -7t-17 -9q-11 -14 -23 -21t-23 -19l-6 -24q19 -33 39 -55
q10 -10 18.5 -20.5t16.5 -20.5q27 -27 43 -50q15 -22 37 -34q11 -11 12 -20q26 -23 30 -38q-10 -37 -8 -67q2 -29 -8 -51q-34 -6 -38 -2q-2 2 -10 8q-18 11 -24 15l-12 9q-8 9 -13 16q-2 4 -5.5 8.5t-7.5 9.5q-5 6 -10.5 12t-12.5 11t-12.5 11.5t-10.5 13.5q-10 18 -21 36
t-21 34q-13 11 -20 24q-2 4 -4 7.5t-4 6.5t-4 6.5t-4 7.5q-2 8 -1 11t1 11q-1 5 -11 10l-8 4t-7 4q-12 22 -14 22q-1 0 0 4q-11 7 -13 13q-1 2 -2 5.5t-3 7.5q-4 6 -8 14t-4 14q0 14 18 18zM306 346q14 17 14 22q0 7 10 8q14 14 14 16q0 1 4 0q13 14 28 24q17 11 28 26
q18 11 33 24q16 14 39 20q3 3 7 9t7 9q26 20 47 41q20 20 47 39q10 8 19 14t19 12q19 18 34.5 31t27.5 21q22 15 46 36q6 5 12 6q5 1 10 8q23 11 42 21q20 11 48 15q32 -8 35 -18t9 -18q4 -14 -7 -24t-23 -18q-20 -18 -41 -35t-39 -25q-13 -8 -24 -15t-20 -14
q-15 -11 -40 -23q-10 -10 -14 -15t-14 -13q-10 -14 -27 -25t-33 -21q-38 -32 -80 -56l-16 -9q-5 -3 -10 -9q-8 -1 -18 -7q-7 -4 -18 -9q-11 -14 -22 -21q-12 -7 -22 -19l-6 -24q20 -34 38 -55t36 -41q29 -29 42 -50t38 -34q11 -11 12 -20q26 -23 30 -38q-10 -37 -8 -67
q2 -29 -8 -51q-36 -6 -40 -2q-2 2 -10 8q-13 8 -22 15l-12 9q-8 9 -13 16q-2 4 -5.5 8.5t-7.5 9.5l-12 12t-12 11t-11.5 11.5t-10.5 13.5q-10 18 -21 36t-21 34q-16 11 -22 24l-7 14l-7 14q-2 8 -1 11t1 11q-1 5 -11 10l-8 4t-7 4q-12 22 -14 22q-1 0 0 4q-10 6 -18 26
q-4 6 -9 14t-5 14q0 13 20 18z" />
    <glyph glyph-name="guillemotright" unicode="&#xbb;" horiz-adv-x="776" 
d="M748 370q-16 -16 -16 -21q0 -6 -10 -7q-17 -12 -15 -14t-3 -2l-28 -24t-26 -26q-10 -5 -18.5 -10.5t-16.5 -12.5q-15 -14 -37 -21l-16 -16q-13 -11 -24.5 -21.5t-22.5 -21.5q-19 -19 -47 -37q-11 -11 -20 -16q-5 -3 -10 -6.5t-10 -7.5q-36 -31 -60 -48q-26 -18 -46 -38
q-15 -7 -22 -14q-11 -5 -21.5 -10t-20.5 -10q-17 -9 -48 -14q-31 7 -36 17q-6 12 -10 17q-4 13 8 24q6 5 11.5 10t10.5 10q27 18 44 33q21 18 38 25q12 7 22.5 14.5t20.5 14.5q19 15 41 25q10 8 13 12q5 6 15 12q10 16 26 28t32 22q11 7 21 14t19 14q19 14 40 24l30 20
q7 3 17 9l15 9q12 12 23 18t23 20q0 9 1 12q2 5 3 14q-19 33 -36 53t-34 43q-34 29 -45 48q-10 19 -35 36q-24 20 -24 28q-17 11 -22 28q11 42 9 68t9 50q21 0 20 1q-2 2 2 3q13 4 18 -1q6 -6 10 -9q15 -7 22 -14l10 -10q10 -7 15 -17q4 -8 13 -17l12 -12t12 -11
q13 -11 20 -27q28 -37 44 -66q13 -11 20 -28q4 -6 8 -12.5t8 -13.5q1 -28 10 -31q4 -1 8 -3l8 -4q5 -5 7 -12t5 -10q15 -15 16 -20t6 -10l8 -15q4 -7 4 -13q-5 -21 -18 -22zM430 370q-16 -16 -15 -21q2 -5 -9 -7q-17 -12 -15 -14t-3 -2q-16 -12 -30 -24t-26 -26
q-21 -12 -34 -23q-17 -14 -38 -21l-16 -16q-13 -11 -24.5 -21.5t-22.5 -21.5q-19 -19 -45 -37q-9 -9 -21 -16q-5 -3 -10.5 -6.5t-10.5 -7.5q-36 -31 -60 -48q-26 -18 -46 -38q-15 -7 -22 -14q-11 -5 -21.5 -10t-20.5 -10q-16 -9 -46 -14q-33 7 -38 17q-6 12 -10 17
q-4 13 8 24l24 20q23 17 42 33q21 18 40 25q22 12 42 29q17 14 42 25q10 8 13 12t13 12q10 16 27 28t33 22q10 7 19.5 14t18.5 14q19 14 40 24q23 13 30 20q7 3 17 9l15 9q11 11 24 18t24 20q0 9 1 12q2 5 3 14q-20 34 -37 53q-16 18 -35 43q-34 29 -45 48q-10 19 -35 36
q-22 22 -22 28q-6 4 -14 12t-10 16q12 44 11 68q-2 26 9 50q34 7 38 3q6 -6 10 -9q28 -18 34 -24q9 -6 14 -17q5 -10 12 -17l12 -12t12 -11q13 -11 20 -27q14 -16 24 -33l20 -33q8 -4 12 -12l4 -8l4 -8q4 -6 8 -12.5t8 -13.5q1 -28 11 -31q12 -4 17 -7q3 -4 5 -12
q2 -7 5 -10q15 -15 16 -20t6 -10l8 -15q4 -7 4 -13q-5 -21 -18 -22z" />
    <glyph glyph-name="uni1780" unicode="&#x1780;" horiz-adv-x="1750" 
d="M406 978q-3 -1 -12 -1q-35 0 -100 44q-37 25 -57 68q-18 42 -18 100q0 59 27 111q27 54 82 103q53 49 130 73t165 24q89 0 168 -39q82 -40 163 -117q98 -94 125 -94q26 0 135 75q55 38 113 56q57 19 122 19q63 0 126 -29q63 -30 124 -88q91 -82 91 -167q0 -80 -33 -88
q-3 -1 -10 -1q-27 0 -50 35q-25 41 -105 114q-37 36 -76 56q-37 18 -73 18q-71 0 -126 -37q-40 -28 -75.5 -49.5t-66.5 -35.5q-60 -28 -102 -28q-40 0 -93 32q-54 32 -120 93q-68 63 -125 94q-58 31 -108 31q-127 0 -192 -56t-65 -99q0 -41 53 -79q41 -29 41 -62
q0 -12 -4 -21q-16 -46 -54 -55zM461 807q20 -9 30 -28q7 -14 7 -37q0 -19 -4 -38l-129 -604q-10 -49 -36 -75q-24 -25 -62 -25q-40 0 -53 25q-6 10 -8 31q0 15 5 43l134 631q-17 -5 -29 -5h-4q-31 3 -50 34q-12 20 -12 37q0 11 5 24q13 29 57 58q146 111 264.5 166.5
t241.5 55.5q121 0 244 -53q121 -52 272 -157q150 -105 213 -217q44 -80 44 -163q0 -36 -7 -68l-73 -342q-11 -51 -35 -75q-24 -25 -63 -25q-38 0 -52 24q-8 14 -8 36q0 15 5 40l73 351q5 23 5 42q0 60 -38 122q-50 82 -171 166q-119 83 -215 126q-94 42 -195 42
q-120 0 -215 -50q-32 -17 -67.5 -40t-73.5 -52z" />
    <glyph glyph-name="uni1781" unicode="&#x1781;" horiz-adv-x="1510" 
d="M545 928q38 23 65 23q35 0 56 -35q13 -22 13 -43q0 -38 -46 -68q-85 -52 -157 -52q-41 0 -74 16q-100 45 -122 168q-11 58 -11 113q0 70 17 149q29 137 174 219t382 82q99 0 240 -28q208 -48 291 -170q53 -80 53 -189q0 -59 -15 -127q-32 -160 -449 -351
q-418 -192 -489 -272t-76 -125v-7q0 -41 43 -60q47 -21 201 -21q155 0 311 70q158 71 180 184q16 71 16 123q0 23 -5 45q-2 10 -2 15q0 42 61 60q18 5 29 5q47 0 63 -57q8 -29 8 -68q0 -69 -22 -169q-36 -166 -243 -262t-401 -96q-193 0 -299 53q-93 50 -93 156v12t1 13
q12 125 104 226q91 100 495 286q403 186 424 268q8 40 8 73q0 74 -38 129q-55 78 -190 113q-130 21 -200 21q-208 0 -305 -56q-96 -56 -115 -149q-12 -52 -12 -97q0 -35 7 -62q15 -66 40 -78q7 -4 17 -4q25 0 65 24z" />
    <glyph glyph-name="uni1782" unicode="&#x1782;" horiz-adv-x="1750" 
d="M386 978q-3 -1 -12 -1q-35 0 -100 44q-37 25 -57 68q-18 42 -18 100q0 59 27 111q27 54 82 103q53 49 130 73t165 24q89 0 168 -39q82 -40 163 -117q98 -94 125 -94q26 0 135 75q55 38 113 56q57 19 122 19q63 0 126 -29q63 -30 124 -88q91 -82 91 -167q0 -80 -33 -88
q-3 -1 -10 -1q-27 0 -50 35q-25 41 -105 114q-37 36 -76 56q-37 18 -73 18q-71 0 -126 -37q-40 -28 -75.5 -49.5t-66.5 -35.5q-60 -28 -102 -28q-40 0 -93 32q-54 32 -120 93q-68 63 -125 94q-58 31 -108 31q-127 0 -192 -56t-65 -99q0 -41 53 -79q41 -29 41 -62
q0 -12 -4 -21q-16 -46 -54 -55zM220 244l106 488q46 204 193 286q145 82 289 82q111 0 234 -53q121 -52 272 -157q150 -105 213 -217q44 -80 44 -163q0 -36 -7 -68l-73 -342q-11 -51 -35 -75q-24 -25 -63 -25q-38 0 -52 24q-8 14 -8 36q0 15 5 40l73 351q5 23 5 42
q0 60 -38 122q-50 82 -171 166q-119 83 -215 126q-94 42 -185 42q-109 0 -207 -56q-97 -55 -126 -189l-89 -415q78 89 177 154q95 57 188 57t194 -59q46 -28 46 -64q0 -20 -14 -43q-22 -37 -58 -37q-25 0 -56 19q-56 34 -110 34q-53 0 -130 -48q-68 -50 -131 -119
q-151 -183 -197 -183q-44 0 -71 61q-14 33 -14 82q0 41 11 101z" />
    <glyph glyph-name="uni1783" unicode="&#x1783;" horiz-adv-x="2516" 
d="M1384 152q-27 -49 -64 -82q-79 -70 -207 -70h-662q-76 0 -107 37q-20 26 -20 67q0 19 5 47l229 1085q4 20 4 42q0 28 -9 44q-15 28 -57 28q-43 0 -73 -41q-31 -41 -47 -123q-6 -28 -6 -48q0 -38 25 -38h1q51 0 51 -74t-51 -76q-111 0 -153 65q-26 41 -26 104q0 40 11 93
q32 145 98 216q68 72 170 72q107 0 174 -76q47 -53 47 -136q0 -36 -9 -78l-224 -1060h629q66 0 109 38q42 40 58 115l118 546l-152 78q-191 95 -191 206v4q3 115 91 213q87 100 171 100q86 0 207 -73l117 -73q59 -36 59 -78q0 -19 -11 -39q-21 -38 -57 -38q-23 0 -55 18
l-117 74q-101 59 -130 59t-76 -53q-46 -52 -48 -93v-1q0 -40 109 -91l254 -131l-123 -573q32 -95 64 -145q41 -63 85 -63h354q66 0 109 38q42 40 58 115l108 496l-152 78q-191 95 -191 206v4q3 115 91 213q87 100 171 100q86 0 207 -73l107 -63q59 -36 59 -78q0 -19 -11 -39
q-21 -38 -57 -38q-23 0 -55 18l-107 64q-101 59 -130 59t-76 -53q-46 -52 -48 -93v-1q0 -40 109 -91l254 -131l-130 -601q-30 -140 -109 -210t-207 -70h-353q-99 0 -173 92q-21 26 -39 60z" />
    <glyph glyph-name="uni1784" unicode="&#x1784;" horiz-adv-x="1650" 
d="M1106 1100h-206q-205 0 -291 89q-57 60 -57 162q0 49 12 104l22 106q5 25 5 40q0 36 -16 58q-24 37 -84 47q-56 12 -80 36q-18 18 -18 43q0 6 2 18q8 37 37 50q15 7 39 7q16 0 43 -5q138 -25 192 -107q35 -53 35 -129q0 -42 -10 -88l-20 -106q-5 -28 -5 -46q0 -52 33 -84
q49 -44 162 -44h101q-2 14 -2 21q0 128 63 203t186 75q100 0 168 -71q50 -55 50 -133q0 -28 -6 -58q-19 -94 -80 -141q-7 -5 -15 -10l-16 -10q87 -60 121 -145q24 -58 24 -130q0 -61 -18 -133l-94 -439q-30 -140 -109 -210t-173 -70q-34 0 -237 125t-264 125t-116 -100
q-85 -150 -159 -150q-58 0 -58 58q0 17 4 34l20 92l116 552q7 36 7 65q0 49 -25 49q-37 0 -39 -75q-1 -75 -76 -75q-75 2 -75 76q2 77 42 150q41 74 151 74t152 -76q25 -43 25 -111q0 -46 -12 -103l-73 -344q34 34 117 34q103 0 321 -137l185 -113q26 0 69 38q42 40 58 115
l96 447q10 41 10 82q0 44 -14 83q-26 68 -96 107q-76 39 -124 78zM1158 1250h62q78 0 93 73q3 14 3 25q0 22 -10 33q-16 19 -56 19q-44 0 -72 -40t-28 -90q0 -9 8 -20z" />
    <glyph glyph-name="uni1785" unicode="&#x1785;" horiz-adv-x="1750" 
d="M253 150l64 310l97 459q-116 81 -148 106q-30 22 -49 64q-18 42 -18 100q0 59 27 111q27 54 82 103q53 49 130 73t165 24q89 0 168 -39q82 -40 163 -117q98 -94 125 -94q26 0 135 75q55 38 113 56q57 19 122 19q63 0 126 -29q63 -30 124 -88q91 -82 91 -167
q0 -80 -33 -88q-3 -1 -10 -1q-27 0 -50 35q-25 41 -105 114q-37 36 -76 56q-37 18 -73 18q-71 0 -126 -37q-40 -28 -75.5 -49.5t-66.5 -35.5q-60 -28 -102 -28q-40 0 -93 32q-54 32 -120 93q-68 63 -125 94q-58 31 -108 31q-127 0 -192 -56t-65 -99q0 -41 53 -79l182 -115
l-179 -851h759q66 0 109 38q42 40 58 115l92 431q4 20 4 42q0 28 -9 44q-15 28 -57 28q-43 0 -73 -41q-31 -41 -47 -123q-6 -28 -6 -48q0 -38 25 -38h1q51 0 51 -74t-51 -76q-111 0 -153 65q-26 41 -26 104q0 40 11 93q32 145 98 216q68 72 170 72q107 0 174 -76
q47 -53 47 -136q0 -36 -9 -78l-93 -428q-30 -140 -109 -210t-207 -70h-791q-76 0 -107 37q-20 26 -20 65q0 23 6 48z" />
    <glyph glyph-name="uni1786" unicode="&#x1786;" horiz-adv-x="1800" 
d="M401 500h72l89 419q-215 82 -246 106q-30 22 -49 64q-18 42 -18 100q0 59 27 111q27 54 82 103q53 49 130 73t145 24q89 0 168 -39q82 -40 163 -117q98 -94 125 -94q26 0 135 75q55 38 113 56q57 19 122 19q63 0 126 -29q63 -30 124 -88q91 -82 91 -167q0 -80 -33 -88
q-3 -1 -10 -1q-27 0 -50 35q-25 41 -105 114q-37 36 -76 56q-37 18 -73 18q-71 0 -126 -37q-40 -28 -75.5 -49.5t-66.5 -35.5q-60 -28 -102 -28q-40 0 -93 32q-54 32 -120 93q-68 63 -125 94q-58 31 -108 31q-107 0 -172 -56t-65 -99q0 -41 63 -79l270 -115l-106 -501
q134 0 265 -77q126 -75 220 -175q92 -98 163 -98q66 0 109 38q41 39 57 115l80 382q4 20 4 42q0 28 -9 44q-15 28 -57 28q-43 0 -73 -41q-28 -38 -40 -73q-2 -10 -2 -14q0 -22 29 -22h1q51 0 51 -74t-51 -76q-111 0 -153 65q-28 43 -28 93q0 24 8 54q21 95 88 166
q68 72 170 72q107 0 174 -76q47 -53 47 -136q0 -36 -9 -78l-82 -379q-30 -140 -107 -210q-79 -70 -207 -70q-139 0 -240 111q-97 109 -203 175q-103 64 -210 64h-27l-23 -121q-25 -115 -81 -172q-55 -57 -141 -57q-100 0 -150 62q-50 64 -50 188q0 125 63 188q62 62 188 62z
M325 325q-25 -25 -25 -75q0 -100 50 -100q49 0 70 100l22 100h-41q-51 0 -76 -25z" />
    </font>
</defs>
</svg>
